G75*
G70*
%OFA0B0*%
%FSLAX24Y24*%
%IPPOS*%
%LPD*%
%AMOC8*
5,1,8,0,0,1.08239X$1,22.5*
%
%ADD10C,0.0160*%
%ADD11C,0.0060*%
%ADD12C,0.0080*%
%ADD13C,0.0040*%
%ADD14C,0.0100*%
%ADD15C,0.0004*%
D10*
X001727Y003479D02*
X019050Y003479D01*
X019050Y019621D01*
X001727Y019621D01*
X001727Y003479D01*
X020227Y003452D02*
X037550Y003452D01*
X037550Y019593D01*
X020227Y019593D01*
X020227Y003452D01*
X038633Y003444D02*
X055956Y003444D01*
X055956Y019585D01*
X038633Y019585D01*
X038633Y003444D01*
X056952Y003463D02*
X074274Y003463D01*
X074274Y019605D01*
X056952Y019605D01*
X056952Y003463D01*
X075396Y003436D02*
X092719Y003436D01*
X092719Y019578D01*
X075396Y019578D01*
X075396Y003436D01*
X076186Y025398D02*
X076186Y034060D01*
X078351Y034060D02*
X074020Y034060D01*
X074020Y025398D01*
X070477Y025398D01*
X070477Y034060D01*
X074020Y034060D01*
X070477Y034060D02*
X063981Y034060D01*
X063981Y025398D01*
X056107Y025398D01*
X056107Y034060D01*
X063981Y034060D01*
X056107Y034060D02*
X047839Y034060D01*
X041540Y034060D01*
X039572Y032091D01*
X039572Y025398D01*
X047839Y025398D01*
X056107Y025398D01*
X063981Y025398D02*
X070477Y025398D01*
X074020Y025398D02*
X078351Y025398D01*
X078351Y034060D01*
X082682Y031107D02*
X090753Y031107D01*
X090753Y039375D01*
X082682Y039375D02*
X082682Y031107D01*
X047839Y034060D02*
X047839Y025398D01*
X037603Y030910D02*
X042327Y035635D01*
X042327Y038981D01*
X042131Y039178D01*
X033666Y039178D02*
X033666Y033666D01*
X025989Y033666D01*
X018312Y033666D01*
X018312Y030910D01*
X033666Y030910D01*
X033666Y033666D01*
X033666Y030910D02*
X037603Y030910D01*
X025989Y033666D02*
X025989Y039178D01*
X018312Y039178D02*
X018312Y033666D01*
X018312Y030910D02*
X010635Y030910D01*
X010635Y039178D01*
X003548Y039178D02*
X003548Y030910D01*
X010635Y030910D01*
D11*
X008786Y031958D02*
X008572Y031744D01*
X008572Y031531D02*
X008572Y031958D01*
X008786Y031958D02*
X008893Y031958D01*
X008355Y031851D02*
X008355Y031744D01*
X007928Y031744D01*
X007928Y031637D02*
X007928Y031851D01*
X008035Y031958D01*
X008248Y031958D01*
X008355Y031851D01*
X008248Y031531D02*
X008035Y031531D01*
X007928Y031637D01*
X007710Y031637D02*
X007604Y031744D01*
X007390Y031744D01*
X007283Y031851D01*
X007390Y031958D01*
X007710Y031958D01*
X007710Y031637D02*
X007604Y031531D01*
X007283Y031531D01*
X007066Y031531D02*
X006745Y031531D01*
X006639Y031637D01*
X006745Y031744D01*
X007066Y031744D01*
X007066Y031851D02*
X007066Y031531D01*
X007066Y031851D02*
X006959Y031958D01*
X006745Y031958D01*
X006421Y031958D02*
X006208Y031531D01*
X005994Y031958D01*
X005777Y032171D02*
X005350Y031744D01*
X005456Y031851D02*
X005777Y031531D01*
X005350Y031531D02*
X005350Y032171D01*
X001687Y032262D02*
X001687Y031942D01*
X001581Y031835D01*
X001260Y031835D01*
X001367Y031618D02*
X001260Y031511D01*
X001260Y031298D01*
X001367Y031191D01*
X001581Y031191D01*
X001687Y031298D01*
X001687Y031511D01*
X001581Y031618D01*
X001367Y031618D01*
X001260Y030974D02*
X001474Y030654D01*
X001687Y030974D01*
X001687Y030654D02*
X001047Y030654D01*
X001367Y030436D02*
X001687Y030436D01*
X001687Y030116D01*
X001581Y030009D01*
X001474Y030116D01*
X001474Y030436D01*
X001367Y030436D02*
X001260Y030329D01*
X001260Y030116D01*
X001367Y029792D02*
X001474Y029792D01*
X001474Y029365D01*
X001581Y029365D02*
X001367Y029365D01*
X001260Y029471D01*
X001260Y029685D01*
X001367Y029792D01*
X001687Y029685D02*
X001687Y029471D01*
X001581Y029365D01*
X001260Y029148D02*
X001260Y029041D01*
X001474Y028828D01*
X001687Y028828D02*
X001260Y028828D01*
X001260Y028610D02*
X001367Y028503D01*
X001367Y028183D01*
X001047Y028183D02*
X001047Y028503D01*
X001154Y028610D01*
X001260Y028610D01*
X001367Y028503D02*
X001474Y028610D01*
X001581Y028610D01*
X001687Y028503D01*
X001687Y028183D01*
X001047Y028183D01*
X001260Y027322D02*
X001260Y027215D01*
X001474Y027001D01*
X001687Y027001D02*
X001260Y027001D01*
X001367Y026784D02*
X001260Y026677D01*
X001260Y026464D01*
X001367Y026357D01*
X001581Y026357D01*
X001687Y026464D01*
X001687Y026677D01*
X001581Y026784D01*
X001367Y026784D01*
X001260Y026139D02*
X001260Y025819D01*
X001367Y025712D01*
X001474Y025819D01*
X001474Y026033D01*
X001581Y026139D01*
X001687Y026033D01*
X001687Y025712D01*
X001687Y025495D02*
X001367Y025495D01*
X001260Y025388D01*
X001260Y025068D01*
X001687Y025068D01*
X001474Y024850D02*
X001474Y024423D01*
X001581Y024423D02*
X001367Y024423D01*
X001260Y024530D01*
X001260Y024744D01*
X001367Y024850D01*
X001474Y024850D01*
X001687Y024744D02*
X001687Y024530D01*
X001581Y024423D01*
X001581Y024206D02*
X001687Y024099D01*
X001687Y023886D01*
X001581Y023779D01*
X001367Y023886D02*
X001260Y023779D01*
X001154Y023779D01*
X001047Y023886D01*
X001047Y024099D01*
X001154Y024206D01*
X001367Y024099D02*
X001474Y024206D01*
X001581Y024206D01*
X001367Y024099D02*
X001367Y023886D01*
X001913Y020557D02*
X001806Y020450D01*
X001806Y020023D01*
X001913Y019917D01*
X002127Y019917D01*
X002233Y020023D01*
X002233Y020237D01*
X002020Y020237D01*
X002233Y020450D02*
X002127Y020557D01*
X001913Y020557D01*
X002451Y020557D02*
X002771Y020557D01*
X002878Y020450D01*
X002878Y020237D01*
X002771Y020130D01*
X002451Y020130D01*
X002451Y019917D02*
X002451Y020557D01*
X003095Y020450D02*
X003095Y020344D01*
X003202Y020237D01*
X003416Y020237D01*
X003522Y020130D01*
X003522Y020023D01*
X003416Y019917D01*
X003202Y019917D01*
X003095Y020023D01*
X003095Y020450D02*
X003202Y020557D01*
X003416Y020557D01*
X003522Y020450D01*
X020704Y020557D02*
X020704Y019917D01*
X020704Y020557D01*
X020918Y020344D01*
X021131Y020557D01*
X021131Y019917D01*
X021131Y020557D01*
X020918Y020344D01*
X020704Y020557D01*
X021349Y020450D02*
X021349Y020023D01*
X021455Y019917D01*
X021669Y019917D01*
X021776Y020023D01*
X021669Y019917D01*
X021455Y019917D01*
X021349Y020023D01*
X021349Y020450D01*
X021455Y020557D01*
X021669Y020557D01*
X021776Y020450D01*
X021669Y020557D01*
X021455Y020557D01*
X021349Y020450D01*
X021993Y020557D02*
X022420Y019917D01*
X022420Y020557D01*
X022420Y019917D01*
X021993Y020557D01*
X021993Y019917D01*
X021993Y020557D01*
X022638Y020344D02*
X022851Y020557D01*
X022851Y019917D01*
X022851Y020557D01*
X022638Y020344D01*
X022638Y019917D02*
X023065Y019917D01*
X022638Y019917D01*
X038814Y019917D02*
X038814Y020557D01*
X039028Y020344D01*
X039241Y020557D01*
X039241Y019917D01*
X039459Y020023D02*
X039566Y019917D01*
X039779Y019917D01*
X039886Y020023D01*
X040103Y019917D02*
X040103Y020557D01*
X040530Y019917D01*
X040530Y020557D01*
X040748Y020450D02*
X040855Y020557D01*
X041068Y020557D01*
X041175Y020450D01*
X041175Y020344D01*
X040748Y019917D01*
X041175Y019917D01*
X039886Y020450D02*
X039779Y020557D01*
X039566Y020557D01*
X039459Y020450D01*
X039459Y020023D01*
X041040Y026276D02*
X041040Y026476D01*
X041040Y026276D02*
X041240Y026276D01*
X041840Y026276D02*
X042040Y026276D01*
X042040Y026476D01*
X042040Y027076D02*
X042040Y027276D01*
X041840Y027276D01*
X041840Y027457D02*
X042040Y027457D01*
X042040Y027657D01*
X041240Y027457D02*
X041040Y027457D01*
X041040Y027657D01*
X041040Y027276D02*
X041040Y027076D01*
X041040Y027276D02*
X041240Y027276D01*
X041040Y028257D02*
X041040Y028457D01*
X041240Y028457D01*
X041240Y028639D02*
X041040Y028639D01*
X041040Y028839D01*
X041840Y028639D02*
X042040Y028639D01*
X042040Y028839D01*
X042040Y028457D02*
X041840Y028457D01*
X042040Y028457D02*
X042040Y028257D01*
X042040Y029439D02*
X042040Y029639D01*
X041840Y029639D01*
X041840Y029820D02*
X042040Y029820D01*
X042040Y030020D01*
X042040Y030620D02*
X042040Y030820D01*
X041840Y030820D01*
X041840Y031001D02*
X042040Y031001D01*
X042040Y031201D01*
X042040Y031801D02*
X042040Y032001D01*
X041840Y032001D01*
X041840Y032182D02*
X042040Y032182D01*
X042040Y032382D01*
X042040Y032982D02*
X042040Y033182D01*
X041840Y033182D01*
X041240Y033182D02*
X041040Y033182D01*
X041040Y032982D01*
X041040Y032382D02*
X041040Y032182D01*
X041240Y032182D01*
X041240Y032001D02*
X041040Y032001D01*
X041040Y031801D01*
X041040Y031201D02*
X041040Y031001D01*
X041240Y031001D01*
X041240Y030820D02*
X041040Y030820D01*
X041040Y030620D01*
X041040Y030020D02*
X041040Y029820D01*
X041240Y029820D01*
X041240Y029639D02*
X041040Y029639D01*
X041040Y029439D01*
X038151Y031531D02*
X038151Y032171D01*
X037938Y032171D02*
X038365Y032171D01*
X037971Y032515D02*
X037971Y033155D01*
X037544Y033155D02*
X037971Y032515D01*
X037720Y032171D02*
X037720Y031637D01*
X037614Y031531D01*
X037400Y031531D01*
X037293Y031637D01*
X037293Y032171D01*
X037076Y032064D02*
X036969Y032171D01*
X036756Y032171D01*
X036649Y032064D01*
X036649Y031637D01*
X036756Y031531D01*
X036969Y031531D01*
X037076Y031637D01*
X037076Y032064D01*
X036900Y032515D02*
X036900Y032942D01*
X037113Y033155D01*
X037327Y032942D01*
X037327Y032515D01*
X037544Y032515D02*
X037544Y033155D01*
X037327Y032835D02*
X036900Y032835D01*
X036682Y032622D02*
X036575Y032515D01*
X036362Y032515D01*
X036255Y032622D01*
X036255Y033049D01*
X036362Y033155D01*
X036575Y033155D01*
X036682Y033049D01*
X038833Y033049D02*
X038940Y033155D01*
X039153Y033155D01*
X039260Y033049D01*
X039260Y032942D01*
X038833Y032515D01*
X039260Y032515D01*
X043145Y034287D02*
X043145Y034927D01*
X043358Y034714D01*
X043572Y034927D01*
X043572Y034287D01*
X043789Y034393D02*
X043789Y034820D01*
X043896Y034927D01*
X044110Y034927D01*
X044216Y034820D01*
X044434Y034927D02*
X044861Y034287D01*
X044861Y034927D01*
X045079Y034714D02*
X045292Y034927D01*
X045292Y034287D01*
X045079Y034287D02*
X045506Y034287D01*
X044434Y034287D02*
X044434Y034927D01*
X044216Y034393D02*
X044110Y034287D01*
X043896Y034287D01*
X043789Y034393D01*
X045765Y033182D02*
X045765Y032982D01*
X045765Y033182D02*
X045965Y033182D01*
X046565Y033182D02*
X046765Y033182D01*
X046765Y032982D01*
X046765Y032382D02*
X046765Y032182D01*
X046565Y032182D01*
X046565Y032001D02*
X046765Y032001D01*
X046765Y031801D01*
X046765Y031201D02*
X046765Y031001D01*
X046565Y031001D01*
X046565Y030820D02*
X046765Y030820D01*
X046765Y030620D01*
X046765Y030020D02*
X046765Y029820D01*
X046565Y029820D01*
X046565Y029639D02*
X046765Y029639D01*
X046765Y029439D01*
X045965Y029639D02*
X045765Y029639D01*
X045765Y029439D01*
X045765Y029820D02*
X045765Y030020D01*
X045765Y029820D02*
X045965Y029820D01*
X045765Y030620D02*
X045765Y030820D01*
X045965Y030820D01*
X045965Y031001D02*
X045765Y031001D01*
X045765Y031201D01*
X045765Y031801D02*
X045765Y032001D01*
X045965Y032001D01*
X045965Y032182D02*
X045765Y032182D01*
X045765Y032382D01*
X049308Y032382D02*
X049308Y032182D01*
X049508Y032182D01*
X049508Y032001D02*
X049308Y032001D01*
X049308Y031801D01*
X049308Y031201D02*
X049308Y031001D01*
X049508Y031001D01*
X049508Y030820D02*
X049308Y030820D01*
X049308Y030620D01*
X049308Y030020D02*
X049308Y029820D01*
X049508Y029820D01*
X049508Y029639D02*
X049308Y029639D01*
X049308Y029439D01*
X050108Y029639D02*
X050308Y029639D01*
X050308Y029439D01*
X050308Y029820D02*
X050308Y030020D01*
X050308Y029820D02*
X050108Y029820D01*
X050308Y030620D02*
X050308Y030820D01*
X050108Y030820D01*
X050108Y031001D02*
X050308Y031001D01*
X050308Y031201D01*
X050308Y031801D02*
X050308Y032001D01*
X050108Y032001D01*
X050108Y032182D02*
X050308Y032182D01*
X050308Y032382D01*
X050308Y032982D02*
X050308Y033182D01*
X050108Y033182D01*
X049508Y033182D02*
X049308Y033182D01*
X049308Y032982D01*
X050232Y034287D02*
X050232Y034927D01*
X050445Y034714D01*
X050659Y034927D01*
X050659Y034287D01*
X050876Y034393D02*
X050983Y034287D01*
X051196Y034287D01*
X051303Y034393D01*
X051521Y034287D02*
X051521Y034927D01*
X051948Y034287D01*
X051948Y034927D01*
X052165Y034820D02*
X052272Y034927D01*
X052485Y034927D01*
X052592Y034820D01*
X052592Y034714D01*
X052165Y034287D01*
X052592Y034287D01*
X051303Y034820D02*
X051196Y034927D01*
X050983Y034927D01*
X050876Y034820D01*
X050876Y034393D01*
X054032Y033182D02*
X054232Y033182D01*
X054032Y033182D02*
X054032Y032982D01*
X054032Y032382D02*
X054032Y032182D01*
X054232Y032182D01*
X054232Y032001D02*
X054032Y032001D01*
X054032Y031801D01*
X054032Y031201D02*
X054032Y031001D01*
X054232Y031001D01*
X054232Y030820D02*
X054032Y030820D01*
X054032Y030620D01*
X054032Y030020D02*
X054032Y029820D01*
X054232Y029820D01*
X054232Y029639D02*
X054032Y029639D01*
X054032Y029439D01*
X054832Y029639D02*
X055032Y029639D01*
X055032Y029439D01*
X055032Y029820D02*
X055032Y030020D01*
X055032Y029820D02*
X054832Y029820D01*
X055032Y030620D02*
X055032Y030820D01*
X054832Y030820D01*
X054832Y031001D02*
X055032Y031001D01*
X055032Y031201D01*
X055032Y031801D02*
X055032Y032001D01*
X054832Y032001D01*
X054832Y032182D02*
X055032Y032182D01*
X055032Y032382D01*
X055032Y032982D02*
X055032Y033182D01*
X054832Y033182D01*
X056788Y033182D02*
X056788Y032982D01*
X056788Y033182D02*
X056988Y033182D01*
X057588Y033182D02*
X057788Y033182D01*
X057788Y032982D01*
X057788Y032382D02*
X057788Y032182D01*
X057588Y032182D01*
X057588Y032001D02*
X057788Y032001D01*
X057788Y031801D01*
X057788Y031201D02*
X057788Y031001D01*
X057588Y031001D01*
X057588Y030820D02*
X057788Y030820D01*
X057788Y030620D01*
X057788Y030020D02*
X057788Y029820D01*
X057588Y029820D01*
X057588Y029639D02*
X057788Y029639D01*
X057788Y029439D01*
X056988Y029639D02*
X056788Y029639D01*
X056788Y029439D01*
X056788Y029820D02*
X056788Y030020D01*
X056788Y029820D02*
X056988Y029820D01*
X056788Y030620D02*
X056788Y030820D01*
X056988Y030820D01*
X056988Y031001D02*
X056788Y031001D01*
X056788Y031201D01*
X056788Y031801D02*
X056788Y032001D01*
X056988Y032001D01*
X056988Y032182D02*
X056788Y032182D01*
X056788Y032382D01*
X058499Y034287D02*
X058499Y034927D01*
X058713Y034714D01*
X058926Y034927D01*
X058926Y034287D01*
X059144Y034393D02*
X059251Y034287D01*
X059464Y034287D01*
X059571Y034393D01*
X059788Y034287D02*
X059788Y034927D01*
X060215Y034287D01*
X060215Y034927D01*
X060433Y034820D02*
X060540Y034927D01*
X060753Y034927D01*
X060860Y034820D01*
X060860Y034714D01*
X060753Y034607D01*
X060860Y034500D01*
X060860Y034393D01*
X060753Y034287D01*
X060540Y034287D01*
X060433Y034393D01*
X060646Y034607D02*
X060753Y034607D01*
X059571Y034820D02*
X059464Y034927D01*
X059251Y034927D01*
X059144Y034820D01*
X059144Y034393D01*
X061906Y033182D02*
X061906Y032982D01*
X061906Y033182D02*
X062106Y033182D01*
X062706Y033182D02*
X062906Y033182D01*
X062906Y032982D01*
X062906Y032382D02*
X062906Y032182D01*
X062706Y032182D01*
X062706Y032001D02*
X062906Y032001D01*
X062906Y031801D01*
X062906Y031201D02*
X062906Y031001D01*
X062706Y031001D01*
X062706Y030820D02*
X062906Y030820D01*
X062906Y030620D01*
X062906Y030020D02*
X062906Y029820D01*
X062706Y029820D01*
X062706Y029639D02*
X062906Y029639D01*
X062906Y029439D01*
X062106Y029639D02*
X061906Y029639D01*
X061906Y029439D01*
X061906Y029820D02*
X061906Y030020D01*
X061906Y029820D02*
X062106Y029820D01*
X061906Y030620D02*
X061906Y030820D01*
X062106Y030820D01*
X062106Y031001D02*
X061906Y031001D01*
X061906Y031201D01*
X061906Y031801D02*
X061906Y032001D01*
X062106Y032001D01*
X062106Y032182D02*
X061906Y032182D01*
X061906Y032382D01*
X066434Y032382D02*
X066434Y032182D01*
X066634Y032182D01*
X066634Y032001D02*
X066434Y032001D01*
X066434Y031801D01*
X066434Y031201D02*
X066434Y031001D01*
X066634Y031001D01*
X066634Y030820D02*
X066434Y030820D01*
X066434Y030620D01*
X066434Y030020D02*
X066434Y029820D01*
X066634Y029820D01*
X066634Y029639D02*
X066434Y029639D01*
X066434Y029439D01*
X067234Y029639D02*
X067434Y029639D01*
X067434Y029439D01*
X067434Y029820D02*
X067434Y030020D01*
X067434Y029820D02*
X067234Y029820D01*
X067434Y030620D02*
X067434Y030820D01*
X067234Y030820D01*
X067234Y031001D02*
X067434Y031001D01*
X067434Y031201D01*
X067434Y031801D02*
X067434Y032001D01*
X067234Y032001D01*
X067234Y032182D02*
X067434Y032182D01*
X067434Y032382D01*
X067434Y032982D02*
X067434Y033182D01*
X067234Y033182D01*
X066634Y033182D02*
X066434Y033182D01*
X066434Y032982D01*
X066570Y034287D02*
X066570Y034927D01*
X066890Y034927D01*
X066997Y034820D01*
X066997Y034607D01*
X066890Y034500D01*
X066570Y034500D01*
X066784Y034500D02*
X066997Y034287D01*
X067215Y034393D02*
X067321Y034287D01*
X067535Y034287D01*
X067642Y034393D01*
X067215Y034393D02*
X067215Y034820D01*
X067321Y034927D01*
X067535Y034927D01*
X067642Y034820D01*
X067859Y034927D02*
X068286Y034927D01*
X068073Y034927D02*
X068073Y034287D01*
X068504Y034287D02*
X068504Y034927D01*
X068504Y034287D02*
X068931Y034287D01*
X071295Y034393D02*
X071401Y034287D01*
X071615Y034287D01*
X071722Y034393D01*
X071939Y034287D02*
X071939Y034714D01*
X072153Y034927D01*
X072366Y034714D01*
X072366Y034287D01*
X072584Y034287D02*
X072584Y034927D01*
X073011Y034287D01*
X073011Y034927D01*
X072366Y034607D02*
X071939Y034607D01*
X071722Y034820D02*
X071615Y034927D01*
X071401Y034927D01*
X071295Y034820D01*
X071295Y034393D01*
X071946Y033182D02*
X071946Y032982D01*
X071946Y033182D02*
X072146Y033182D01*
X072746Y033182D02*
X072946Y033182D01*
X072946Y032982D01*
X072946Y032382D02*
X072946Y032182D01*
X072746Y032182D01*
X072746Y032001D02*
X072946Y032001D01*
X072946Y031801D01*
X072946Y031201D02*
X072946Y031001D01*
X072746Y031001D01*
X072746Y030820D02*
X072946Y030820D01*
X072946Y030620D01*
X072946Y030020D02*
X072946Y029820D01*
X072746Y029820D01*
X072746Y029639D02*
X072946Y029639D01*
X072946Y029439D01*
X072146Y029639D02*
X071946Y029639D01*
X071946Y029439D01*
X071946Y029820D02*
X071946Y030020D01*
X071946Y029820D02*
X072146Y029820D01*
X071946Y030620D02*
X071946Y030820D01*
X072146Y030820D01*
X072146Y031001D02*
X071946Y031001D01*
X071946Y031201D01*
X071946Y031801D02*
X071946Y032001D01*
X072146Y032001D01*
X072146Y032182D02*
X071946Y032182D01*
X071946Y032382D01*
X074662Y032382D02*
X074662Y032182D01*
X074862Y032182D01*
X074862Y032001D02*
X074662Y032001D01*
X074662Y031801D01*
X074662Y031201D02*
X074662Y031001D01*
X074862Y031001D01*
X074862Y030820D02*
X074662Y030820D01*
X074662Y030620D01*
X074662Y030020D02*
X074662Y029820D01*
X074862Y029820D01*
X074862Y029639D02*
X074662Y029639D01*
X074662Y029439D01*
X075462Y029639D02*
X075662Y029639D01*
X075662Y029439D01*
X075662Y029820D02*
X075462Y029820D01*
X075662Y029820D02*
X075662Y030020D01*
X075662Y030620D02*
X075662Y030820D01*
X075462Y030820D01*
X075462Y031001D02*
X075662Y031001D01*
X075662Y031201D01*
X075662Y031801D02*
X075662Y032001D01*
X075462Y032001D01*
X075462Y032182D02*
X075662Y032182D01*
X075662Y032382D01*
X075662Y032982D02*
X075662Y033182D01*
X075462Y033182D01*
X074862Y033182D02*
X074662Y033182D01*
X074662Y032982D01*
X076808Y032982D02*
X076808Y033182D01*
X077008Y033182D01*
X077608Y033182D02*
X077808Y033182D01*
X077808Y032982D01*
X077808Y032382D02*
X077808Y032182D01*
X077608Y032182D01*
X077608Y032001D02*
X077808Y032001D01*
X077808Y031801D01*
X077808Y031201D02*
X077808Y031001D01*
X077608Y031001D01*
X077608Y030820D02*
X077808Y030820D01*
X077808Y030620D01*
X077808Y030020D02*
X077808Y029820D01*
X077608Y029820D01*
X077608Y029639D02*
X077808Y029639D01*
X077808Y029439D01*
X077008Y029639D02*
X076808Y029639D01*
X076808Y029439D01*
X076808Y029820D02*
X076808Y030020D01*
X076808Y029820D02*
X077008Y029820D01*
X076808Y030620D02*
X076808Y030820D01*
X077008Y030820D01*
X077008Y031001D02*
X076808Y031001D01*
X076808Y031201D01*
X076808Y031801D02*
X076808Y032001D01*
X077008Y032001D01*
X077008Y032182D02*
X076808Y032182D01*
X076808Y032382D01*
X076823Y034287D02*
X076823Y034927D01*
X076609Y034714D01*
X076609Y034287D02*
X077036Y034287D01*
X077254Y034287D02*
X077681Y034714D01*
X077681Y034820D01*
X077574Y034927D01*
X077361Y034927D01*
X077254Y034820D01*
X077254Y034287D02*
X077681Y034287D01*
X077898Y034500D02*
X077898Y034927D01*
X077898Y034500D02*
X078112Y034287D01*
X078325Y034500D01*
X078325Y034927D01*
X076931Y035665D02*
X076931Y036305D01*
X077144Y036305D02*
X076717Y036305D01*
X076500Y036305D02*
X076500Y035771D01*
X076393Y035665D01*
X076180Y035665D01*
X076073Y035771D01*
X076073Y036305D01*
X075855Y036198D02*
X075749Y036305D01*
X075535Y036305D01*
X075428Y036198D01*
X075428Y035771D01*
X075535Y035665D01*
X075749Y035665D01*
X075855Y035771D01*
X075855Y036198D01*
X075356Y036649D02*
X075570Y036862D01*
X075570Y037289D01*
X075143Y037289D02*
X075143Y036862D01*
X075356Y036649D01*
X074925Y036649D02*
X074498Y036649D01*
X074925Y037076D01*
X074925Y037183D01*
X074818Y037289D01*
X074605Y037289D01*
X074498Y037183D01*
X074067Y037289D02*
X074067Y036649D01*
X073854Y036649D02*
X074281Y036649D01*
X073854Y037076D02*
X074067Y037289D01*
X076432Y037289D02*
X076432Y036649D01*
X076432Y036862D02*
X076752Y036862D01*
X076859Y036969D01*
X076859Y037183D01*
X076752Y037289D01*
X076432Y037289D01*
X077076Y037183D02*
X077076Y036756D01*
X077183Y036649D01*
X077396Y036649D01*
X077503Y036756D01*
X077503Y037183D01*
X077396Y037289D01*
X077183Y037289D01*
X077076Y037183D01*
X077721Y037289D02*
X077721Y036649D01*
X077934Y036862D01*
X078148Y036649D01*
X078148Y037289D01*
X078365Y037289D02*
X078365Y036649D01*
X078792Y036649D01*
X079010Y036649D02*
X079010Y037289D01*
X079330Y037289D01*
X079437Y037183D01*
X079437Y036969D01*
X079330Y036862D01*
X079010Y036862D01*
X079223Y036862D02*
X079437Y036649D01*
X078792Y037289D02*
X078365Y037289D01*
X078365Y036969D02*
X078579Y036969D01*
X075766Y034820D02*
X075660Y034927D01*
X075339Y034927D01*
X075339Y034287D01*
X075660Y034287D01*
X075766Y034393D01*
X075766Y034820D01*
X075122Y034927D02*
X075122Y034287D01*
X074695Y034927D01*
X074695Y034287D01*
X074477Y034393D02*
X074477Y034607D01*
X074264Y034607D01*
X074477Y034820D02*
X074371Y034927D01*
X074157Y034927D01*
X074050Y034820D01*
X074050Y034393D01*
X074157Y034287D01*
X074371Y034287D01*
X074477Y034393D01*
X083302Y031761D02*
X083516Y031974D01*
X083516Y031334D01*
X083729Y031334D02*
X083302Y031334D01*
X083947Y031334D02*
X084374Y031761D01*
X084374Y031868D01*
X084267Y031974D01*
X084054Y031974D01*
X083947Y031868D01*
X084591Y031974D02*
X084591Y031547D01*
X084805Y031334D01*
X085018Y031547D01*
X085018Y031974D01*
X085880Y031974D02*
X086201Y031974D01*
X086307Y031868D01*
X086307Y031654D01*
X086201Y031547D01*
X085880Y031547D01*
X085880Y031334D02*
X085880Y031974D01*
X086525Y031868D02*
X086525Y031441D01*
X086632Y031334D01*
X086845Y031334D01*
X086952Y031441D01*
X086952Y031868D01*
X086845Y031974D01*
X086632Y031974D01*
X086525Y031868D01*
X087169Y031974D02*
X087169Y031334D01*
X087383Y031547D01*
X087596Y031334D01*
X087596Y031974D01*
X087814Y031974D02*
X087814Y031334D01*
X088241Y031334D01*
X088459Y031334D02*
X088459Y031974D01*
X088779Y031974D01*
X088886Y031868D01*
X088886Y031654D01*
X088779Y031547D01*
X088459Y031547D01*
X088672Y031547D02*
X088886Y031334D01*
X089748Y031334D02*
X089961Y031334D01*
X089854Y031334D02*
X089854Y031974D01*
X089748Y031974D02*
X089961Y031974D01*
X090177Y031974D02*
X090604Y031334D01*
X090604Y031974D01*
X090177Y031974D02*
X090177Y031334D01*
X088241Y031974D02*
X087814Y031974D01*
X087814Y031654D02*
X088027Y031654D01*
X084374Y031334D02*
X083947Y031334D01*
X077808Y028839D02*
X077808Y028639D01*
X077608Y028639D01*
X077608Y028457D02*
X077808Y028457D01*
X077808Y028257D01*
X077008Y028457D02*
X076808Y028457D01*
X076808Y028257D01*
X076808Y028639D02*
X076808Y028839D01*
X076808Y028639D02*
X077008Y028639D01*
X076808Y027657D02*
X076808Y027457D01*
X077008Y027457D01*
X077008Y027276D02*
X076808Y027276D01*
X076808Y027076D01*
X077608Y027276D02*
X077808Y027276D01*
X077808Y027076D01*
X077808Y027457D02*
X077608Y027457D01*
X077808Y027457D02*
X077808Y027657D01*
X075662Y027657D02*
X075662Y027457D01*
X075462Y027457D01*
X075462Y027276D02*
X075662Y027276D01*
X075662Y027076D01*
X074862Y027276D02*
X074662Y027276D01*
X074662Y027076D01*
X074662Y027457D02*
X074662Y027657D01*
X074662Y027457D02*
X074862Y027457D01*
X074662Y028257D02*
X074662Y028457D01*
X074862Y028457D01*
X074862Y028639D02*
X074662Y028639D01*
X074662Y028839D01*
X075462Y028639D02*
X075662Y028639D01*
X075662Y028839D01*
X075662Y028457D02*
X075462Y028457D01*
X075662Y028457D02*
X075662Y028257D01*
X072946Y028639D02*
X072746Y028639D01*
X072946Y028639D02*
X072946Y028839D01*
X072146Y028639D02*
X071946Y028639D01*
X071946Y028839D01*
X067434Y028839D02*
X067434Y028639D01*
X067234Y028639D01*
X067234Y028457D02*
X067434Y028457D01*
X067434Y028257D01*
X066634Y028457D02*
X066434Y028457D01*
X066434Y028257D01*
X066434Y028639D02*
X066634Y028639D01*
X066434Y028639D02*
X066434Y028839D01*
X066434Y027657D02*
X066434Y027457D01*
X066634Y027457D01*
X066634Y027276D02*
X066434Y027276D01*
X066434Y027076D01*
X067234Y027276D02*
X067434Y027276D01*
X067434Y027076D01*
X067434Y027457D02*
X067234Y027457D01*
X067434Y027457D02*
X067434Y027657D01*
X067434Y026476D02*
X067434Y026276D01*
X067234Y026276D01*
X066634Y026276D02*
X066434Y026276D01*
X066434Y026476D01*
X062906Y026476D02*
X062906Y026276D01*
X062706Y026276D01*
X062106Y026276D02*
X061906Y026276D01*
X061906Y026476D01*
X061906Y027076D02*
X061906Y027276D01*
X062106Y027276D01*
X062106Y027457D02*
X061906Y027457D01*
X061906Y027657D01*
X062706Y027457D02*
X062906Y027457D01*
X062906Y027657D01*
X062906Y027276D02*
X062706Y027276D01*
X062906Y027276D02*
X062906Y027076D01*
X062906Y028257D02*
X062906Y028457D01*
X062706Y028457D01*
X062706Y028639D02*
X062906Y028639D01*
X062906Y028839D01*
X062106Y028639D02*
X061906Y028639D01*
X061906Y028839D01*
X061906Y028457D02*
X061906Y028257D01*
X061906Y028457D02*
X062106Y028457D01*
X057788Y028457D02*
X057588Y028457D01*
X057588Y028639D02*
X057788Y028639D01*
X057788Y028839D01*
X057788Y028457D02*
X057788Y028257D01*
X056988Y028457D02*
X056788Y028457D01*
X056788Y028257D01*
X056788Y028639D02*
X056788Y028839D01*
X056788Y028639D02*
X056988Y028639D01*
X056788Y027657D02*
X056788Y027457D01*
X056988Y027457D01*
X056988Y027276D02*
X056788Y027276D01*
X056788Y027076D01*
X057588Y027276D02*
X057788Y027276D01*
X057788Y027076D01*
X057788Y027457D02*
X057588Y027457D01*
X057788Y027457D02*
X057788Y027657D01*
X057788Y026476D02*
X057788Y026276D01*
X057588Y026276D01*
X056988Y026276D02*
X056788Y026276D01*
X056788Y026476D01*
X055032Y026476D02*
X055032Y026276D01*
X054832Y026276D01*
X054232Y026276D02*
X054032Y026276D01*
X054032Y026476D01*
X054032Y027076D02*
X054032Y027276D01*
X054232Y027276D01*
X054232Y027457D02*
X054032Y027457D01*
X054032Y027657D01*
X054832Y027457D02*
X055032Y027457D01*
X055032Y027657D01*
X055032Y027276D02*
X055032Y027076D01*
X055032Y027276D02*
X054832Y027276D01*
X055032Y028257D02*
X055032Y028457D01*
X054832Y028457D01*
X054832Y028639D02*
X055032Y028639D01*
X055032Y028839D01*
X054232Y028639D02*
X054032Y028639D01*
X054032Y028839D01*
X054032Y028457D02*
X054232Y028457D01*
X054032Y028457D02*
X054032Y028257D01*
X050308Y028257D02*
X050308Y028457D01*
X050108Y028457D01*
X050108Y028639D02*
X050308Y028639D01*
X050308Y028839D01*
X049508Y028639D02*
X049308Y028639D01*
X049308Y028839D01*
X049308Y028457D02*
X049508Y028457D01*
X049308Y028457D02*
X049308Y028257D01*
X049308Y027657D02*
X049308Y027457D01*
X049508Y027457D01*
X049508Y027276D02*
X049308Y027276D01*
X049308Y027076D01*
X050108Y027276D02*
X050308Y027276D01*
X050308Y027076D01*
X050308Y027457D02*
X050108Y027457D01*
X050308Y027457D02*
X050308Y027657D01*
X050308Y026476D02*
X050308Y026276D01*
X050108Y026276D01*
X049508Y026276D02*
X049308Y026276D01*
X049308Y026476D01*
X046765Y026476D02*
X046765Y026276D01*
X046565Y026276D01*
X045965Y026276D02*
X045765Y026276D01*
X045765Y026476D01*
X045765Y027076D02*
X045765Y027276D01*
X045965Y027276D01*
X045965Y027457D02*
X045765Y027457D01*
X045765Y027657D01*
X046565Y027457D02*
X046765Y027457D01*
X046765Y027657D01*
X046765Y027276D02*
X046565Y027276D01*
X046765Y027276D02*
X046765Y027076D01*
X046765Y028257D02*
X046765Y028457D01*
X046565Y028457D01*
X046565Y028639D02*
X046765Y028639D01*
X046765Y028839D01*
X045965Y028639D02*
X045765Y028639D01*
X045765Y028839D01*
X045765Y028457D02*
X045765Y028257D01*
X045765Y028457D02*
X045965Y028457D01*
X031977Y032515D02*
X031550Y032515D01*
X031977Y032942D01*
X031977Y033049D01*
X031870Y033155D01*
X031657Y033155D01*
X031550Y033049D01*
X030688Y033155D02*
X030688Y032515D01*
X030261Y033155D01*
X030261Y032515D01*
X030043Y032515D02*
X030043Y032942D01*
X029830Y033155D01*
X029616Y032942D01*
X029616Y032515D01*
X029399Y032622D02*
X029292Y032515D01*
X029078Y032515D01*
X028972Y032622D01*
X028972Y033049D01*
X029078Y033155D01*
X029292Y033155D01*
X029399Y033049D01*
X029616Y032835D02*
X030043Y032835D01*
X029348Y031761D02*
X029241Y031761D01*
X029028Y031547D01*
X029028Y031334D02*
X029028Y031761D01*
X028810Y031654D02*
X028703Y031761D01*
X028490Y031761D01*
X028383Y031654D01*
X028383Y031441D01*
X028490Y031334D01*
X028703Y031334D01*
X028810Y031441D01*
X028810Y031654D01*
X028166Y031761D02*
X028060Y031761D01*
X027846Y031547D01*
X027846Y031334D02*
X027846Y031761D01*
X027629Y031761D02*
X027523Y031761D01*
X027309Y031547D01*
X027309Y031334D02*
X027309Y031761D01*
X026986Y031761D02*
X026986Y031334D01*
X026879Y031334D02*
X027093Y031334D01*
X026662Y031334D02*
X026662Y031974D01*
X026448Y031761D01*
X026235Y031974D01*
X026235Y031334D01*
X026879Y031761D02*
X026986Y031761D01*
X026986Y031974D02*
X026986Y032081D01*
X025373Y031974D02*
X025373Y031334D01*
X024946Y031974D01*
X024946Y031334D01*
X024728Y031334D02*
X024728Y031761D01*
X024515Y031974D01*
X024301Y031761D01*
X024301Y031334D01*
X024084Y031441D02*
X023977Y031334D01*
X023763Y031334D01*
X023657Y031441D01*
X023657Y031868D01*
X023763Y031974D01*
X023977Y031974D01*
X024084Y031868D01*
X024301Y031654D02*
X024728Y031654D01*
X023906Y032515D02*
X023906Y032942D01*
X023692Y033155D01*
X023479Y032942D01*
X023479Y032515D01*
X023479Y032835D02*
X023906Y032835D01*
X022617Y032515D02*
X022617Y033155D01*
X022190Y033155D02*
X022617Y032515D01*
X022190Y032515D02*
X022190Y033155D01*
X021972Y032942D02*
X021972Y032515D01*
X021972Y032835D02*
X021545Y032835D01*
X021545Y032942D02*
X021759Y033155D01*
X021972Y032942D01*
X021545Y032942D02*
X021545Y032515D01*
X021328Y032622D02*
X021221Y032515D01*
X021008Y032515D01*
X020901Y032622D01*
X020901Y033049D01*
X021008Y033155D01*
X021221Y033155D01*
X021328Y033049D01*
X016032Y032942D02*
X016032Y032515D01*
X016032Y032835D02*
X015605Y032835D01*
X015605Y032942D02*
X015818Y033155D01*
X016032Y032942D01*
X015605Y032942D02*
X015605Y032515D01*
X015137Y032171D02*
X014710Y032171D01*
X014923Y032171D02*
X014923Y031531D01*
X014492Y031637D02*
X014492Y032171D01*
X014316Y032515D02*
X014316Y033155D01*
X014743Y032515D01*
X014743Y033155D01*
X014098Y032942D02*
X014098Y032515D01*
X014098Y032835D02*
X013671Y032835D01*
X013671Y032942D02*
X013885Y033155D01*
X014098Y032942D01*
X013671Y032942D02*
X013671Y032515D01*
X013454Y032622D02*
X013347Y032515D01*
X013134Y032515D01*
X013027Y032622D01*
X013027Y033049D01*
X013134Y033155D01*
X013347Y033155D01*
X013454Y033049D01*
X013527Y032171D02*
X013421Y032064D01*
X013421Y031637D01*
X013527Y031531D01*
X013741Y031531D01*
X013848Y031637D01*
X013848Y032064D01*
X013741Y032171D01*
X013527Y032171D01*
X014065Y032171D02*
X014065Y031637D01*
X014172Y031531D01*
X014385Y031531D01*
X014492Y031637D01*
X001687Y032262D02*
X001260Y032262D01*
X001260Y032480D02*
X001260Y032693D01*
X001154Y032587D02*
X001581Y032587D01*
X001687Y032693D01*
X001687Y033554D02*
X001687Y033874D01*
X001581Y033981D01*
X001474Y033981D01*
X001367Y033874D01*
X001367Y033554D01*
X001047Y033554D02*
X001047Y033874D01*
X001154Y033981D01*
X001260Y033981D01*
X001367Y033874D01*
X001367Y034199D02*
X001581Y034199D01*
X001687Y034305D01*
X001687Y034519D01*
X001581Y034626D01*
X001367Y034626D01*
X001260Y034519D01*
X001260Y034305D01*
X001367Y034199D01*
X001687Y033554D02*
X001047Y033554D01*
X001581Y034843D02*
X001474Y034950D01*
X001474Y035270D01*
X001367Y035270D02*
X001687Y035270D01*
X001687Y034950D01*
X001581Y034843D01*
X001260Y034950D02*
X001260Y035163D01*
X001367Y035270D01*
X001260Y035488D02*
X001687Y035488D01*
X001474Y035488D02*
X001260Y035701D01*
X001260Y035808D01*
X001367Y036025D02*
X001260Y036131D01*
X001260Y036452D01*
X001047Y036452D02*
X001687Y036452D01*
X001687Y036131D01*
X001581Y036025D01*
X001367Y036025D01*
X056924Y020557D02*
X056924Y019917D01*
X057351Y019917D02*
X057351Y020557D01*
X057138Y020344D01*
X056924Y020557D01*
X057569Y020450D02*
X057569Y020023D01*
X057676Y019917D01*
X057889Y019917D01*
X057996Y020023D01*
X058214Y019917D02*
X058214Y020557D01*
X058641Y019917D01*
X058641Y020557D01*
X058858Y020450D02*
X058965Y020557D01*
X059178Y020557D01*
X059285Y020450D01*
X059285Y020344D01*
X059178Y020237D01*
X059285Y020130D01*
X059285Y020023D01*
X059178Y019917D01*
X058965Y019917D01*
X058858Y020023D01*
X059072Y020237D02*
X059178Y020237D01*
X057996Y020450D02*
X057889Y020557D01*
X057676Y020557D01*
X057569Y020450D01*
X074662Y026276D02*
X074662Y026476D01*
X074662Y026276D02*
X074862Y026276D01*
X075462Y026276D02*
X075662Y026276D01*
X075662Y026476D01*
X076808Y026476D02*
X076808Y026276D01*
X077008Y026276D01*
X077608Y026276D02*
X077808Y026276D01*
X077808Y026476D01*
X077756Y020557D02*
X077756Y019917D01*
X078183Y019917D01*
X077325Y019917D02*
X077325Y020557D01*
X077538Y020557D02*
X077111Y020557D01*
X076894Y020450D02*
X076787Y020557D01*
X076573Y020557D01*
X076467Y020450D01*
X076467Y020023D01*
X076573Y019917D01*
X076787Y019917D01*
X076894Y020023D01*
X076249Y019917D02*
X076036Y020130D01*
X076142Y020130D02*
X075822Y020130D01*
X075822Y019917D02*
X075822Y020557D01*
X076142Y020557D01*
X076249Y020450D01*
X076249Y020237D01*
X076142Y020130D01*
D12*
X003268Y024096D02*
X002961Y023789D01*
X002347Y023789D01*
X002961Y024403D02*
X003268Y024096D01*
X002961Y024403D02*
X002347Y024403D01*
X002654Y024710D02*
X002347Y025016D01*
X003268Y025016D01*
X003268Y024710D02*
X003268Y025323D01*
X003268Y025630D02*
X003268Y025784D01*
X003114Y025784D01*
X003114Y025630D01*
X003268Y025630D01*
X003114Y026091D02*
X002501Y026091D01*
X002347Y026244D01*
X002347Y026551D01*
X002501Y026704D01*
X003114Y026091D01*
X003268Y026244D01*
X003268Y026551D01*
X003114Y026704D01*
X002501Y026704D01*
D13*
X022063Y015769D02*
X022063Y015462D01*
X022139Y015386D01*
X022293Y015386D01*
X022369Y015462D01*
X022523Y015386D02*
X022830Y015386D01*
X022676Y015386D02*
X022676Y015846D01*
X022523Y015693D01*
X022369Y015769D02*
X022293Y015846D01*
X022139Y015846D01*
X022063Y015769D01*
X024622Y015769D02*
X024622Y015462D01*
X024698Y015386D01*
X024852Y015386D01*
X024928Y015462D01*
X025082Y015386D02*
X025389Y015693D01*
X025389Y015769D01*
X025312Y015846D01*
X025159Y015846D01*
X025082Y015769D01*
X024928Y015769D02*
X024852Y015846D01*
X024698Y015846D01*
X024622Y015769D01*
X025082Y015386D02*
X025389Y015386D01*
X027181Y015462D02*
X027257Y015386D01*
X027411Y015386D01*
X027488Y015462D01*
X027641Y015616D02*
X027948Y015616D01*
X027871Y015846D02*
X027641Y015616D01*
X027488Y015769D02*
X027411Y015846D01*
X027257Y015846D01*
X027181Y015769D01*
X027181Y015462D01*
X027871Y015386D02*
X027871Y015846D01*
X029543Y015769D02*
X029543Y015462D01*
X029620Y015386D01*
X029773Y015386D01*
X029850Y015462D01*
X030003Y015462D02*
X030080Y015386D01*
X030233Y015386D01*
X030310Y015462D01*
X030310Y015539D01*
X030233Y015616D01*
X030157Y015616D01*
X030233Y015616D02*
X030310Y015693D01*
X030310Y015769D01*
X030233Y015846D01*
X030080Y015846D01*
X030003Y015769D01*
X029850Y015769D02*
X029773Y015846D01*
X029620Y015846D01*
X029543Y015769D01*
X032102Y015769D02*
X032102Y015462D01*
X032179Y015386D01*
X032332Y015386D01*
X032409Y015462D01*
X032562Y015462D02*
X032639Y015386D01*
X032792Y015386D01*
X032869Y015462D01*
X032869Y015616D01*
X032792Y015693D01*
X032716Y015693D01*
X032562Y015616D01*
X032562Y015846D01*
X032869Y015846D01*
X032409Y015769D02*
X032332Y015846D01*
X032179Y015846D01*
X032102Y015769D01*
X034661Y015769D02*
X034661Y015462D01*
X034738Y015386D01*
X034891Y015386D01*
X034968Y015462D01*
X035121Y015462D02*
X035121Y015616D01*
X035351Y015616D01*
X035428Y015539D01*
X035428Y015462D01*
X035351Y015386D01*
X035198Y015386D01*
X035121Y015462D01*
X035121Y015616D02*
X035275Y015769D01*
X035428Y015846D01*
X034968Y015769D02*
X034891Y015846D01*
X034738Y015846D01*
X034661Y015769D01*
X034690Y013615D02*
X034690Y013155D01*
X034537Y013155D02*
X034844Y013155D01*
X034997Y013231D02*
X035074Y013155D01*
X035228Y013155D01*
X035304Y013231D01*
X035304Y013538D01*
X035228Y013615D01*
X035074Y013615D01*
X034997Y013538D01*
X034997Y013462D01*
X035074Y013385D01*
X035304Y013385D01*
X034690Y013615D02*
X034537Y013462D01*
X034384Y013538D02*
X034384Y013385D01*
X034307Y013308D01*
X034077Y013308D01*
X034230Y013308D02*
X034384Y013155D01*
X034077Y013155D02*
X034077Y013615D01*
X034307Y013615D01*
X034384Y013538D01*
X032745Y013538D02*
X032438Y013231D01*
X032438Y013155D01*
X032285Y013155D02*
X031978Y013155D01*
X032131Y013155D02*
X032131Y013615D01*
X031978Y013462D01*
X031824Y013538D02*
X031824Y013385D01*
X031748Y013308D01*
X031518Y013308D01*
X031671Y013308D02*
X031824Y013155D01*
X031518Y013155D02*
X031518Y013615D01*
X031748Y013615D01*
X031824Y013538D01*
X032438Y013615D02*
X032745Y013615D01*
X032745Y013538D01*
X032745Y012434D02*
X032592Y012357D01*
X032438Y012204D01*
X032668Y012204D01*
X032745Y012127D01*
X032745Y012050D01*
X032668Y011974D01*
X032515Y011974D01*
X032438Y012050D01*
X032438Y012204D01*
X032285Y011974D02*
X031978Y011974D01*
X032131Y011974D02*
X032131Y012434D01*
X031978Y012280D01*
X031824Y012204D02*
X031748Y012127D01*
X031518Y012127D01*
X031671Y012127D02*
X031824Y011974D01*
X031824Y012204D02*
X031824Y012357D01*
X031748Y012434D01*
X031518Y012434D01*
X031518Y011974D01*
X030186Y012050D02*
X030186Y012357D01*
X030109Y012434D01*
X029956Y012434D01*
X029879Y012357D01*
X029879Y012280D01*
X029956Y012204D01*
X030186Y012204D01*
X030186Y012050D02*
X030109Y011974D01*
X029956Y011974D01*
X029879Y012050D01*
X029726Y011974D02*
X029572Y012127D01*
X029649Y012127D02*
X029419Y012127D01*
X029419Y011974D02*
X029419Y012434D01*
X029649Y012434D01*
X029726Y012357D01*
X029726Y012204D01*
X029649Y012127D01*
X027824Y012280D02*
X027824Y012357D01*
X027747Y012434D01*
X027594Y012434D01*
X027517Y012357D01*
X027824Y012280D02*
X027517Y011974D01*
X027824Y011974D01*
X027364Y011974D02*
X027057Y011974D01*
X027210Y011974D02*
X027210Y012434D01*
X027057Y012280D01*
X026903Y012204D02*
X026826Y012127D01*
X026596Y012127D01*
X026596Y011974D02*
X026596Y012434D01*
X026826Y012434D01*
X026903Y012357D01*
X026903Y012204D01*
X026750Y012127D02*
X026903Y011974D01*
X025265Y011974D02*
X024958Y011974D01*
X024805Y011974D02*
X024651Y012127D01*
X024728Y012127D02*
X024498Y012127D01*
X024498Y011974D02*
X024498Y012434D01*
X024728Y012434D01*
X024805Y012357D01*
X024805Y012204D01*
X024728Y012127D01*
X024958Y012280D02*
X025111Y012434D01*
X025111Y011974D01*
X025035Y013155D02*
X024958Y013231D01*
X024958Y013308D01*
X025035Y013385D01*
X025188Y013385D01*
X025265Y013308D01*
X025265Y013231D01*
X025188Y013155D01*
X025035Y013155D01*
X025035Y013385D02*
X024958Y013462D01*
X024958Y013538D01*
X025035Y013615D01*
X025188Y013615D01*
X025265Y013538D01*
X025265Y013462D01*
X025188Y013385D01*
X024805Y013385D02*
X024728Y013308D01*
X024498Y013308D01*
X024651Y013308D02*
X024805Y013155D01*
X024805Y013385D02*
X024805Y013538D01*
X024728Y013615D01*
X024498Y013615D01*
X024498Y013155D01*
X022706Y013385D02*
X022399Y013385D01*
X022629Y013615D01*
X022629Y013155D01*
X022245Y013155D02*
X021939Y013155D01*
X022092Y013155D02*
X022092Y013615D01*
X021939Y013462D01*
X021785Y013538D02*
X021785Y013385D01*
X021708Y013308D01*
X021478Y013308D01*
X021478Y013155D02*
X021478Y013615D01*
X021708Y013615D01*
X021785Y013538D01*
X021632Y013308D02*
X021785Y013155D01*
X021708Y012434D02*
X021785Y012357D01*
X021785Y012204D01*
X021708Y012127D01*
X021478Y012127D01*
X021478Y011974D02*
X021478Y012434D01*
X021708Y012434D01*
X021939Y012280D02*
X022092Y012434D01*
X022092Y011974D01*
X021939Y011974D02*
X022245Y011974D01*
X022399Y012050D02*
X022476Y011974D01*
X022629Y011974D01*
X022706Y012050D01*
X022706Y012127D01*
X022629Y012204D01*
X022552Y012204D01*
X022629Y012204D02*
X022706Y012280D01*
X022706Y012357D01*
X022629Y012434D01*
X022476Y012434D01*
X022399Y012357D01*
X021785Y011974D02*
X021632Y012127D01*
X026596Y013155D02*
X026596Y013615D01*
X026826Y013615D01*
X026903Y013538D01*
X026903Y013385D01*
X026826Y013308D01*
X026596Y013308D01*
X026750Y013308D02*
X026903Y013155D01*
X027057Y013155D02*
X027364Y013155D01*
X027210Y013155D02*
X027210Y013615D01*
X027057Y013462D01*
X027517Y013385D02*
X027670Y013462D01*
X027747Y013462D01*
X027824Y013385D01*
X027824Y013231D01*
X027747Y013155D01*
X027594Y013155D01*
X027517Y013231D01*
X027517Y013385D02*
X027517Y013615D01*
X027824Y013615D01*
X028959Y013615D02*
X028959Y013155D01*
X028959Y013308D02*
X029189Y013308D01*
X029265Y013385D01*
X029265Y013538D01*
X029189Y013615D01*
X028959Y013615D01*
X029112Y013308D02*
X029265Y013155D01*
X029419Y013155D02*
X029726Y013155D01*
X029572Y013155D02*
X029572Y013615D01*
X029419Y013462D01*
X029879Y013538D02*
X029879Y013231D01*
X030186Y013538D01*
X030186Y013231D01*
X030109Y013155D01*
X029956Y013155D01*
X029879Y013231D01*
X029879Y013538D02*
X029956Y013615D01*
X030109Y013615D01*
X030186Y013538D01*
X034077Y012434D02*
X034077Y011974D01*
X034077Y012127D02*
X034307Y012127D01*
X034384Y012204D01*
X034384Y012357D01*
X034307Y012434D01*
X034077Y012434D01*
X034230Y012127D02*
X034384Y011974D01*
X034537Y011974D02*
X034844Y011974D01*
X034690Y011974D02*
X034690Y012434D01*
X034537Y012280D01*
X034997Y012280D02*
X034997Y012357D01*
X035074Y012434D01*
X035228Y012434D01*
X035304Y012357D01*
X035304Y012280D01*
X035228Y012204D01*
X035074Y012204D01*
X034997Y012280D01*
X035074Y012204D02*
X034997Y012127D01*
X034997Y012050D01*
X035074Y011974D01*
X035228Y011974D01*
X035304Y012050D01*
X035304Y012127D01*
X035228Y012204D01*
X040147Y012119D02*
X040377Y012119D01*
X040454Y012196D01*
X040454Y012349D01*
X040377Y012426D01*
X040147Y012426D01*
X040147Y011966D01*
X040301Y012119D02*
X040454Y011966D01*
X040608Y011966D02*
X040915Y012273D01*
X040915Y012349D01*
X040838Y012426D01*
X040684Y012426D01*
X040608Y012349D01*
X040608Y011966D02*
X040915Y011966D01*
X042903Y011966D02*
X042903Y012426D01*
X043133Y012426D01*
X043210Y012349D01*
X043210Y012196D01*
X043133Y012119D01*
X042903Y012119D01*
X043057Y012119D02*
X043210Y011966D01*
X043364Y012196D02*
X043670Y012196D01*
X043594Y012426D02*
X043364Y012196D01*
X043594Y011966D02*
X043594Y012426D01*
X043594Y013147D02*
X043440Y013147D01*
X043364Y013223D01*
X043364Y013377D02*
X043517Y013454D01*
X043594Y013454D01*
X043670Y013377D01*
X043670Y013223D01*
X043594Y013147D01*
X043364Y013377D02*
X043364Y013607D01*
X043670Y013607D01*
X043210Y013530D02*
X043210Y013377D01*
X043133Y013300D01*
X042903Y013300D01*
X042903Y013147D02*
X042903Y013607D01*
X043133Y013607D01*
X043210Y013530D01*
X043057Y013300D02*
X043210Y013147D01*
X045002Y013147D02*
X045002Y013607D01*
X045232Y013607D01*
X045309Y013530D01*
X045309Y013377D01*
X045232Y013300D01*
X045002Y013300D01*
X045155Y013300D02*
X045309Y013147D01*
X045462Y013147D02*
X045769Y013454D01*
X045769Y013530D01*
X045692Y013607D01*
X045539Y013607D01*
X045462Y013530D01*
X045462Y013147D02*
X045769Y013147D01*
X045923Y013223D02*
X045999Y013147D01*
X046153Y013147D01*
X046229Y013223D01*
X046229Y013300D01*
X046153Y013377D01*
X045923Y013377D01*
X045923Y013223D01*
X045923Y013377D02*
X046076Y013530D01*
X046229Y013607D01*
X047364Y013607D02*
X047364Y013147D01*
X047364Y013300D02*
X047594Y013300D01*
X047671Y013377D01*
X047671Y013530D01*
X047594Y013607D01*
X047364Y013607D01*
X047517Y013300D02*
X047671Y013147D01*
X047824Y013147D02*
X048131Y013454D01*
X048131Y013530D01*
X048055Y013607D01*
X047901Y013607D01*
X047824Y013530D01*
X047824Y013147D02*
X048131Y013147D01*
X048285Y013377D02*
X048592Y013377D01*
X048515Y013147D02*
X048515Y013607D01*
X048285Y013377D01*
X048055Y012426D02*
X048131Y012349D01*
X048131Y012196D01*
X048055Y012119D01*
X047824Y012119D01*
X047824Y011966D02*
X047824Y012426D01*
X048055Y012426D01*
X047978Y012119D02*
X048131Y011966D01*
X048285Y012042D02*
X048361Y011966D01*
X048515Y011966D01*
X048592Y012042D01*
X048592Y012119D01*
X048515Y012196D01*
X048285Y012196D01*
X048285Y012042D01*
X048285Y012196D02*
X048438Y012349D01*
X048592Y012426D01*
X049923Y012426D02*
X049923Y011966D01*
X049923Y012119D02*
X050153Y012119D01*
X050230Y012196D01*
X050230Y012349D01*
X050153Y012426D01*
X049923Y012426D01*
X050077Y012119D02*
X050230Y011966D01*
X050383Y011966D02*
X050690Y012273D01*
X050690Y012349D01*
X050614Y012426D01*
X050460Y012426D01*
X050383Y012349D01*
X050383Y011966D02*
X050690Y011966D01*
X050844Y011966D02*
X050844Y012042D01*
X051151Y012349D01*
X051151Y012426D01*
X050844Y012426D01*
X050921Y013147D02*
X050844Y013223D01*
X050844Y013300D01*
X050921Y013377D01*
X051074Y013377D01*
X051151Y013300D01*
X051151Y013223D01*
X051074Y013147D01*
X050921Y013147D01*
X050921Y013377D02*
X050844Y013454D01*
X050844Y013530D01*
X050921Y013607D01*
X051074Y013607D01*
X051151Y013530D01*
X051151Y013454D01*
X051074Y013377D01*
X050690Y013454D02*
X050690Y013530D01*
X050614Y013607D01*
X050460Y013607D01*
X050383Y013530D01*
X050230Y013530D02*
X050230Y013377D01*
X050153Y013300D01*
X049923Y013300D01*
X049923Y013147D02*
X049923Y013607D01*
X050153Y013607D01*
X050230Y013530D01*
X050077Y013300D02*
X050230Y013147D01*
X050383Y013147D02*
X050690Y013454D01*
X050690Y013147D02*
X050383Y013147D01*
X052482Y013147D02*
X052482Y013607D01*
X052712Y013607D01*
X052789Y013530D01*
X052789Y013377D01*
X052712Y013300D01*
X052482Y013300D01*
X052636Y013300D02*
X052789Y013147D01*
X052943Y013223D02*
X053019Y013147D01*
X053173Y013147D01*
X053249Y013223D01*
X053249Y013300D01*
X053173Y013377D01*
X053096Y013377D01*
X053173Y013377D02*
X053249Y013454D01*
X053249Y013530D01*
X053173Y013607D01*
X053019Y013607D01*
X052943Y013530D01*
X053403Y013530D02*
X053403Y013223D01*
X053710Y013530D01*
X053710Y013223D01*
X053633Y013147D01*
X053480Y013147D01*
X053403Y013223D01*
X053403Y013530D02*
X053480Y013607D01*
X053633Y013607D01*
X053710Y013530D01*
X053633Y012426D02*
X053480Y012426D01*
X053403Y012349D01*
X053403Y012273D01*
X053480Y012196D01*
X053710Y012196D01*
X053710Y012349D02*
X053710Y012042D01*
X053633Y011966D01*
X053480Y011966D01*
X053403Y012042D01*
X053249Y011966D02*
X052943Y011966D01*
X053249Y012273D01*
X053249Y012349D01*
X053173Y012426D01*
X053019Y012426D01*
X052943Y012349D01*
X052789Y012349D02*
X052789Y012196D01*
X052712Y012119D01*
X052482Y012119D01*
X052482Y011966D02*
X052482Y012426D01*
X052712Y012426D01*
X052789Y012349D01*
X052636Y012119D02*
X052789Y011966D01*
X053633Y012426D02*
X053710Y012349D01*
X058203Y012446D02*
X058203Y011985D01*
X058203Y012139D02*
X058433Y012139D01*
X058510Y012216D01*
X058510Y012369D01*
X058433Y012446D01*
X058203Y012446D01*
X058356Y012139D02*
X058510Y011985D01*
X058663Y012216D02*
X058970Y012216D01*
X059123Y012292D02*
X059277Y012446D01*
X059277Y011985D01*
X059430Y011985D02*
X059123Y011985D01*
X058893Y011985D02*
X058893Y012446D01*
X058663Y012216D01*
X058510Y013166D02*
X058356Y013320D01*
X058433Y013320D02*
X058203Y013320D01*
X058203Y013166D02*
X058203Y013627D01*
X058433Y013627D01*
X058510Y013550D01*
X058510Y013397D01*
X058433Y013320D01*
X058663Y013397D02*
X058970Y013397D01*
X059123Y013550D02*
X059200Y013627D01*
X059354Y013627D01*
X059430Y013550D01*
X059430Y013473D01*
X059123Y013166D01*
X059430Y013166D01*
X058893Y013166D02*
X058893Y013627D01*
X058663Y013397D01*
X060762Y013320D02*
X060992Y013320D01*
X061069Y013397D01*
X061069Y013550D01*
X060992Y013627D01*
X060762Y013627D01*
X060762Y013166D01*
X060915Y013320D02*
X061069Y013166D01*
X061222Y013397D02*
X061529Y013397D01*
X061682Y013397D02*
X061913Y013627D01*
X061913Y013166D01*
X061989Y013397D02*
X061682Y013397D01*
X061452Y013627D02*
X061222Y013397D01*
X061452Y013166D02*
X061452Y013627D01*
X063321Y013627D02*
X063321Y013166D01*
X063321Y013320D02*
X063551Y013320D01*
X063628Y013397D01*
X063628Y013550D01*
X063551Y013627D01*
X063321Y013627D01*
X063474Y013320D02*
X063628Y013166D01*
X063781Y013397D02*
X064088Y013397D01*
X064241Y013473D02*
X064241Y013550D01*
X064318Y013627D01*
X064472Y013627D01*
X064548Y013550D01*
X064548Y013473D01*
X064472Y013397D01*
X064318Y013397D01*
X064241Y013473D01*
X064318Y013397D02*
X064241Y013320D01*
X064241Y013243D01*
X064318Y013166D01*
X064472Y013166D01*
X064548Y013243D01*
X064548Y013320D01*
X064472Y013397D01*
X064011Y013627D02*
X063781Y013397D01*
X064011Y013166D02*
X064011Y013627D01*
X065683Y013627D02*
X065683Y013166D01*
X065683Y013320D02*
X065913Y013320D01*
X065990Y013397D01*
X065990Y013550D01*
X065913Y013627D01*
X065683Y013627D01*
X065836Y013320D02*
X065990Y013166D01*
X066143Y013397D02*
X066450Y013397D01*
X066604Y013397D02*
X066834Y013397D01*
X066911Y013320D01*
X066911Y013243D01*
X066834Y013166D01*
X066680Y013166D01*
X066604Y013243D01*
X066604Y013397D01*
X066757Y013550D01*
X066911Y013627D01*
X066373Y013627D02*
X066143Y013397D01*
X066373Y013166D02*
X066373Y013627D01*
X068242Y013627D02*
X068242Y013166D01*
X068242Y013320D02*
X068472Y013320D01*
X068549Y013397D01*
X068549Y013550D01*
X068472Y013627D01*
X068242Y013627D01*
X068395Y013320D02*
X068549Y013166D01*
X068702Y013243D02*
X068779Y013166D01*
X068933Y013166D01*
X069009Y013243D01*
X069009Y013397D01*
X068933Y013473D01*
X068856Y013473D01*
X068702Y013397D01*
X068702Y013627D01*
X069009Y013627D01*
X069163Y013550D02*
X069239Y013627D01*
X069393Y013627D01*
X069470Y013550D01*
X069163Y013243D01*
X069239Y013166D01*
X069393Y013166D01*
X069470Y013243D01*
X069470Y013550D01*
X069163Y013550D02*
X069163Y013243D01*
X069239Y012446D02*
X069163Y012369D01*
X069163Y012292D01*
X069239Y012216D01*
X069470Y012216D01*
X069470Y012369D02*
X069470Y012062D01*
X069393Y011985D01*
X069239Y011985D01*
X069163Y012062D01*
X069009Y012216D02*
X068702Y012216D01*
X068933Y012446D01*
X068933Y011985D01*
X068549Y011985D02*
X068395Y012139D01*
X068472Y012139D02*
X068242Y012139D01*
X068242Y011985D02*
X068242Y012446D01*
X068472Y012446D01*
X068549Y012369D01*
X068549Y012216D01*
X068472Y012139D01*
X069239Y012446D02*
X069393Y012446D01*
X069470Y012369D01*
X070801Y012446D02*
X070801Y011985D01*
X070801Y012139D02*
X071031Y012139D01*
X071108Y012216D01*
X071108Y012369D01*
X071031Y012446D01*
X070801Y012446D01*
X070954Y012139D02*
X071108Y011985D01*
X071261Y012062D02*
X071338Y011985D01*
X071492Y011985D01*
X071568Y012062D01*
X071568Y012216D01*
X071492Y012292D01*
X071415Y012292D01*
X071261Y012216D01*
X071261Y012446D01*
X071568Y012446D01*
X071722Y012292D02*
X071875Y012446D01*
X071875Y011985D01*
X071722Y011985D02*
X072029Y011985D01*
X072029Y013166D02*
X071722Y013166D01*
X072029Y013473D01*
X072029Y013550D01*
X071952Y013627D01*
X071798Y013627D01*
X071722Y013550D01*
X071568Y013627D02*
X071261Y013627D01*
X071261Y013397D01*
X071415Y013473D01*
X071492Y013473D01*
X071568Y013397D01*
X071568Y013243D01*
X071492Y013166D01*
X071338Y013166D01*
X071261Y013243D01*
X071108Y013166D02*
X070954Y013320D01*
X071031Y013320D02*
X070801Y013320D01*
X070801Y013166D02*
X070801Y013627D01*
X071031Y013627D01*
X071108Y013550D01*
X071108Y013397D01*
X071031Y013320D01*
X066911Y012446D02*
X066604Y012446D01*
X066604Y012216D01*
X066757Y012292D01*
X066834Y012292D01*
X066911Y012216D01*
X066911Y012062D01*
X066834Y011985D01*
X066680Y011985D01*
X066604Y012062D01*
X066450Y012216D02*
X066143Y012216D01*
X066373Y012446D01*
X066373Y011985D01*
X065990Y011985D02*
X065836Y012139D01*
X065913Y012139D02*
X065683Y012139D01*
X065683Y011985D02*
X065683Y012446D01*
X065913Y012446D01*
X065990Y012369D01*
X065990Y012216D01*
X065913Y012139D01*
X064548Y012369D02*
X064241Y012062D01*
X064241Y011985D01*
X064011Y011985D02*
X064011Y012446D01*
X063781Y012216D01*
X064088Y012216D01*
X064241Y012446D02*
X064548Y012446D01*
X064548Y012369D01*
X063628Y012369D02*
X063628Y012216D01*
X063551Y012139D01*
X063321Y012139D01*
X063474Y012139D02*
X063628Y011985D01*
X063321Y011985D02*
X063321Y012446D01*
X063551Y012446D01*
X063628Y012369D01*
X061989Y012369D02*
X061989Y012292D01*
X061913Y012216D01*
X061989Y012139D01*
X061989Y012062D01*
X061913Y011985D01*
X061759Y011985D01*
X061682Y012062D01*
X061529Y012216D02*
X061222Y012216D01*
X061452Y012446D01*
X061452Y011985D01*
X061069Y011985D02*
X060915Y012139D01*
X060992Y012139D02*
X060762Y012139D01*
X060762Y011985D02*
X060762Y012446D01*
X060992Y012446D01*
X061069Y012369D01*
X061069Y012216D01*
X060992Y012139D01*
X061682Y012369D02*
X061759Y012446D01*
X061913Y012446D01*
X061989Y012369D01*
X061913Y012216D02*
X061836Y012216D01*
X061806Y015398D02*
X062113Y015704D01*
X062113Y015781D01*
X062036Y015858D01*
X061883Y015858D01*
X061806Y015781D01*
X061653Y015781D02*
X061576Y015858D01*
X061423Y015858D01*
X061346Y015781D01*
X061346Y015474D01*
X061423Y015398D01*
X061576Y015398D01*
X061653Y015474D01*
X061806Y015398D02*
X062113Y015398D01*
X062267Y015398D02*
X062574Y015704D01*
X062574Y015781D01*
X062497Y015858D01*
X062343Y015858D01*
X062267Y015781D01*
X062267Y015398D02*
X062574Y015398D01*
X063905Y015474D02*
X063982Y015398D01*
X064135Y015398D01*
X064212Y015474D01*
X064365Y015398D02*
X064672Y015704D01*
X064672Y015781D01*
X064596Y015858D01*
X064442Y015858D01*
X064365Y015781D01*
X064212Y015781D02*
X064135Y015858D01*
X063982Y015858D01*
X063905Y015781D01*
X063905Y015474D01*
X064365Y015398D02*
X064672Y015398D01*
X064826Y015628D02*
X065133Y015628D01*
X065056Y015858D02*
X064826Y015628D01*
X065056Y015398D02*
X065056Y015858D01*
X066267Y015781D02*
X066267Y015474D01*
X066344Y015398D01*
X066497Y015398D01*
X066574Y015474D01*
X066728Y015398D02*
X067034Y015704D01*
X067034Y015781D01*
X066958Y015858D01*
X066804Y015858D01*
X066728Y015781D01*
X066574Y015781D02*
X066497Y015858D01*
X066344Y015858D01*
X066267Y015781D01*
X066728Y015398D02*
X067034Y015398D01*
X067188Y015474D02*
X067265Y015398D01*
X067418Y015398D01*
X067495Y015474D01*
X067495Y015551D01*
X067418Y015628D01*
X067341Y015628D01*
X067418Y015628D02*
X067495Y015704D01*
X067495Y015781D01*
X067418Y015858D01*
X067265Y015858D01*
X067188Y015781D01*
X068826Y015781D02*
X068826Y015474D01*
X068903Y015398D01*
X069056Y015398D01*
X069133Y015474D01*
X069287Y015398D02*
X069594Y015704D01*
X069594Y015781D01*
X069517Y015858D01*
X069363Y015858D01*
X069287Y015781D01*
X069133Y015781D02*
X069056Y015858D01*
X068903Y015858D01*
X068826Y015781D01*
X069287Y015398D02*
X069594Y015398D01*
X069747Y015474D02*
X069824Y015398D01*
X069977Y015398D01*
X070054Y015474D01*
X070054Y015628D01*
X069977Y015704D01*
X069900Y015704D01*
X069747Y015628D01*
X069747Y015858D01*
X070054Y015858D01*
X071385Y015781D02*
X071385Y015474D01*
X071462Y015398D01*
X071616Y015398D01*
X071692Y015474D01*
X071846Y015398D02*
X072153Y015704D01*
X072153Y015781D01*
X072076Y015858D01*
X071922Y015858D01*
X071846Y015781D01*
X071692Y015781D02*
X071616Y015858D01*
X071462Y015858D01*
X071385Y015781D01*
X071846Y015398D02*
X072153Y015398D01*
X072306Y015474D02*
X072383Y015398D01*
X072536Y015398D01*
X072613Y015474D01*
X072613Y015551D01*
X072536Y015628D01*
X072306Y015628D01*
X072306Y015474D01*
X072306Y015628D02*
X072459Y015781D01*
X072613Y015858D01*
X080191Y013599D02*
X080191Y013139D01*
X080191Y013292D02*
X080421Y013292D01*
X080498Y013369D01*
X080498Y013523D01*
X080421Y013599D01*
X080191Y013599D01*
X080344Y013292D02*
X080498Y013139D01*
X080651Y013216D02*
X080728Y013139D01*
X080881Y013139D01*
X080958Y013216D01*
X080958Y013292D01*
X080881Y013369D01*
X080651Y013369D01*
X080651Y013216D01*
X080651Y013369D02*
X080805Y013523D01*
X080958Y013599D01*
X081112Y013523D02*
X081188Y013599D01*
X081342Y013599D01*
X081418Y013523D01*
X081418Y013446D01*
X081112Y013139D01*
X081418Y013139D01*
X082553Y013139D02*
X082553Y013599D01*
X082783Y013599D01*
X082860Y013523D01*
X082860Y013369D01*
X082783Y013292D01*
X082553Y013292D01*
X082706Y013292D02*
X082860Y013139D01*
X083013Y013216D02*
X083090Y013139D01*
X083244Y013139D01*
X083320Y013216D01*
X083320Y013292D01*
X083244Y013369D01*
X083013Y013369D01*
X083013Y013216D01*
X083013Y013369D02*
X083167Y013523D01*
X083320Y013599D01*
X083474Y013369D02*
X083781Y013369D01*
X083704Y013139D02*
X083704Y013599D01*
X083474Y013369D01*
X083550Y012418D02*
X083474Y012341D01*
X083550Y012418D02*
X083704Y012418D01*
X083781Y012341D01*
X083781Y012265D01*
X083704Y012188D01*
X083781Y012111D01*
X083781Y012034D01*
X083704Y011958D01*
X083550Y011958D01*
X083474Y012034D01*
X083320Y012034D02*
X083320Y012111D01*
X083244Y012188D01*
X083013Y012188D01*
X083013Y012034D01*
X083090Y011958D01*
X083244Y011958D01*
X083320Y012034D01*
X083167Y012341D02*
X083013Y012188D01*
X082860Y012188D02*
X082783Y012111D01*
X082553Y012111D01*
X082553Y011958D02*
X082553Y012418D01*
X082783Y012418D01*
X082860Y012341D01*
X082860Y012188D01*
X082706Y012111D02*
X082860Y011958D01*
X083167Y012341D02*
X083320Y012418D01*
X083627Y012188D02*
X083704Y012188D01*
X081418Y011958D02*
X081112Y011958D01*
X081265Y011958D02*
X081265Y012418D01*
X081112Y012265D01*
X080958Y012418D02*
X080805Y012341D01*
X080651Y012188D01*
X080881Y012188D01*
X080958Y012111D01*
X080958Y012034D01*
X080881Y011958D01*
X080728Y011958D01*
X080651Y012034D01*
X080651Y012188D01*
X080498Y012188D02*
X080421Y012111D01*
X080191Y012111D01*
X080191Y011958D02*
X080191Y012418D01*
X080421Y012418D01*
X080498Y012341D01*
X080498Y012188D01*
X080344Y012111D02*
X080498Y011958D01*
X080852Y015370D02*
X081005Y015370D01*
X081082Y015447D01*
X081235Y015447D02*
X081312Y015370D01*
X081466Y015370D01*
X081542Y015447D01*
X081542Y015523D01*
X081466Y015600D01*
X081389Y015600D01*
X081466Y015600D02*
X081542Y015677D01*
X081542Y015754D01*
X081466Y015830D01*
X081312Y015830D01*
X081235Y015754D01*
X081082Y015754D02*
X081005Y015830D01*
X080852Y015830D01*
X080775Y015754D01*
X080775Y015447D01*
X080852Y015370D01*
X081696Y015370D02*
X082003Y015370D01*
X081849Y015370D02*
X081849Y015830D01*
X081696Y015677D01*
X083137Y015754D02*
X083137Y015447D01*
X083214Y015370D01*
X083367Y015370D01*
X083444Y015447D01*
X083598Y015447D02*
X083674Y015370D01*
X083828Y015370D01*
X083905Y015447D01*
X083905Y015523D01*
X083828Y015600D01*
X083751Y015600D01*
X083828Y015600D02*
X083905Y015677D01*
X083905Y015754D01*
X083828Y015830D01*
X083674Y015830D01*
X083598Y015754D01*
X083444Y015754D02*
X083367Y015830D01*
X083214Y015830D01*
X083137Y015754D01*
X084058Y015754D02*
X084135Y015830D01*
X084288Y015830D01*
X084365Y015754D01*
X084365Y015677D01*
X084058Y015370D01*
X084365Y015370D01*
X084777Y005656D02*
X084700Y005579D01*
X084700Y005272D01*
X084777Y005195D01*
X084930Y005195D01*
X085007Y005272D01*
X085161Y005272D02*
X085237Y005195D01*
X085391Y005195D01*
X085468Y005272D01*
X085468Y005349D01*
X085391Y005425D01*
X085314Y005425D01*
X085391Y005425D02*
X085468Y005502D01*
X085468Y005579D01*
X085391Y005656D01*
X085237Y005656D01*
X085161Y005579D01*
X085007Y005579D02*
X084930Y005656D01*
X084777Y005656D01*
X085621Y005656D02*
X085928Y005656D01*
X085928Y005579D01*
X085621Y005272D01*
X085621Y005195D01*
X085658Y004343D02*
X085351Y004343D01*
X085198Y004267D02*
X085198Y004113D01*
X085121Y004036D01*
X084891Y004036D01*
X084891Y003883D02*
X084891Y004343D01*
X085121Y004343D01*
X085198Y004267D01*
X085044Y004036D02*
X085198Y003883D01*
X085351Y003883D02*
X085351Y003960D01*
X085658Y004267D01*
X085658Y004343D01*
X085812Y004113D02*
X086118Y004113D01*
X086042Y003883D02*
X086042Y004343D01*
X085812Y004113D01*
X083678Y004056D02*
X083601Y004133D01*
X083371Y004133D01*
X083371Y003979D01*
X083447Y003903D01*
X083601Y003903D01*
X083678Y003979D01*
X083678Y004056D01*
X083524Y004286D02*
X083371Y004133D01*
X083524Y004286D02*
X083678Y004363D01*
X083217Y004363D02*
X083217Y004286D01*
X082910Y003979D01*
X082910Y003903D01*
X082757Y003903D02*
X082603Y004056D01*
X082680Y004056D02*
X082450Y004056D01*
X082450Y003903D02*
X082450Y004363D01*
X082680Y004363D01*
X082757Y004286D01*
X082757Y004133D01*
X082680Y004056D01*
X082910Y004363D02*
X083217Y004363D01*
X083257Y005215D02*
X083180Y005292D01*
X083180Y005368D01*
X083257Y005445D01*
X083410Y005445D01*
X083487Y005368D01*
X083487Y005292D01*
X083410Y005215D01*
X083257Y005215D01*
X083257Y005445D02*
X083180Y005522D01*
X083180Y005599D01*
X083257Y005675D01*
X083410Y005675D01*
X083487Y005599D01*
X083487Y005522D01*
X083410Y005445D01*
X083027Y005368D02*
X083027Y005292D01*
X082950Y005215D01*
X082796Y005215D01*
X082720Y005292D01*
X082566Y005292D02*
X082489Y005215D01*
X082336Y005215D01*
X082259Y005292D01*
X082259Y005599D01*
X082336Y005675D01*
X082489Y005675D01*
X082566Y005599D01*
X082720Y005599D02*
X082796Y005675D01*
X082950Y005675D01*
X083027Y005599D01*
X083027Y005522D01*
X082950Y005445D01*
X083027Y005368D01*
X082950Y005445D02*
X082873Y005445D01*
X082910Y003182D02*
X083217Y003182D01*
X083217Y003105D01*
X082910Y002798D01*
X082910Y002722D01*
X082757Y002722D02*
X082603Y002875D01*
X082680Y002875D02*
X082450Y002875D01*
X082450Y002722D02*
X082450Y003182D01*
X082680Y003182D01*
X082757Y003105D01*
X082757Y002952D01*
X082680Y002875D01*
X083371Y002798D02*
X083447Y002722D01*
X083601Y002722D01*
X083678Y002798D01*
X083678Y002952D01*
X083601Y003028D01*
X083524Y003028D01*
X083371Y002952D01*
X083371Y003182D01*
X083678Y003182D01*
X084891Y003162D02*
X084891Y002702D01*
X084891Y002855D02*
X085121Y002855D01*
X085198Y002932D01*
X085198Y003086D01*
X085121Y003162D01*
X084891Y003162D01*
X085044Y002855D02*
X085198Y002702D01*
X085351Y002702D02*
X085351Y002779D01*
X085658Y003086D01*
X085658Y003162D01*
X085351Y003162D01*
X085812Y003086D02*
X085888Y003162D01*
X086042Y003162D01*
X086118Y003086D01*
X086118Y003009D01*
X086042Y002932D01*
X086118Y002855D01*
X086118Y002779D01*
X086042Y002702D01*
X085888Y002702D01*
X085812Y002779D01*
X085965Y002932D02*
X086042Y002932D01*
X073185Y003054D02*
X072879Y002747D01*
X072879Y002670D01*
X072725Y002747D02*
X072648Y002670D01*
X072495Y002670D01*
X072418Y002747D01*
X072418Y002901D02*
X072572Y002977D01*
X072648Y002977D01*
X072725Y002901D01*
X072725Y002747D01*
X072418Y002901D02*
X072418Y003131D01*
X072725Y003131D01*
X072879Y003131D02*
X073185Y003131D01*
X073185Y003054D01*
X072265Y003054D02*
X072265Y002901D01*
X072188Y002824D01*
X071958Y002824D01*
X072111Y002824D02*
X072265Y002670D01*
X071958Y002670D02*
X071958Y003131D01*
X072188Y003131D01*
X072265Y003054D01*
X072265Y003851D02*
X072111Y004005D01*
X072188Y004005D02*
X071958Y004005D01*
X071958Y003851D02*
X071958Y004312D01*
X072188Y004312D01*
X072265Y004235D01*
X072265Y004082D01*
X072188Y004005D01*
X072418Y004082D02*
X072572Y004158D01*
X072648Y004158D01*
X072725Y004082D01*
X072725Y003928D01*
X072648Y003851D01*
X072495Y003851D01*
X072418Y003928D01*
X072418Y004082D02*
X072418Y004312D01*
X072725Y004312D01*
X072879Y004235D02*
X072879Y004158D01*
X072955Y004082D01*
X073109Y004082D01*
X073185Y004005D01*
X073185Y003928D01*
X073109Y003851D01*
X072955Y003851D01*
X072879Y003928D01*
X072879Y004005D01*
X072955Y004082D01*
X073109Y004082D02*
X073185Y004158D01*
X073185Y004235D01*
X073109Y004312D01*
X072955Y004312D01*
X072879Y004235D01*
X072918Y005164D02*
X072995Y005240D01*
X072995Y005547D01*
X072918Y005624D01*
X072765Y005624D01*
X072688Y005547D01*
X072688Y005471D01*
X072765Y005394D01*
X072995Y005394D01*
X072918Y005164D02*
X072765Y005164D01*
X072688Y005240D01*
X072534Y005164D02*
X072228Y005164D01*
X072534Y005471D01*
X072534Y005547D01*
X072458Y005624D01*
X072304Y005624D01*
X072228Y005547D01*
X072074Y005547D02*
X071997Y005624D01*
X071844Y005624D01*
X071767Y005547D01*
X071767Y005240D01*
X071844Y005164D01*
X071997Y005164D01*
X072074Y005240D01*
X070948Y005319D02*
X070948Y005626D01*
X070641Y005319D01*
X070717Y005242D01*
X070871Y005242D01*
X070948Y005319D01*
X070948Y005626D02*
X070871Y005703D01*
X070717Y005703D01*
X070641Y005626D01*
X070641Y005319D01*
X070487Y005319D02*
X070410Y005242D01*
X070257Y005242D01*
X070180Y005319D01*
X070027Y005319D02*
X069950Y005242D01*
X069797Y005242D01*
X069720Y005319D01*
X069720Y005626D01*
X069797Y005703D01*
X069950Y005703D01*
X070027Y005626D01*
X070180Y005626D02*
X070257Y005703D01*
X070410Y005703D01*
X070487Y005626D01*
X070487Y005549D01*
X070410Y005473D01*
X070487Y005396D01*
X070487Y005319D01*
X070410Y005473D02*
X070334Y005473D01*
X070141Y004391D02*
X070217Y004314D01*
X070217Y004160D01*
X070141Y004084D01*
X069911Y004084D01*
X070064Y004084D02*
X070217Y003930D01*
X070371Y004007D02*
X070448Y003930D01*
X070601Y003930D01*
X070678Y004007D01*
X070678Y004084D01*
X070601Y004160D01*
X070371Y004160D01*
X070371Y004007D01*
X070371Y004160D02*
X070524Y004314D01*
X070678Y004391D01*
X070831Y004314D02*
X070908Y004391D01*
X071061Y004391D01*
X071138Y004314D01*
X070831Y004007D01*
X070908Y003930D01*
X071061Y003930D01*
X071138Y004007D01*
X071138Y004314D01*
X070831Y004314D02*
X070831Y004007D01*
X070141Y004391D02*
X069911Y004391D01*
X069911Y003930D01*
X069911Y003209D02*
X070141Y003209D01*
X070217Y003133D01*
X070217Y002979D01*
X070141Y002903D01*
X069911Y002903D01*
X070064Y002903D02*
X070217Y002749D01*
X070371Y002826D02*
X070448Y002749D01*
X070601Y002749D01*
X070678Y002826D01*
X070678Y002979D01*
X070601Y003056D01*
X070524Y003056D01*
X070371Y002979D01*
X070371Y003209D01*
X070678Y003209D01*
X070831Y003133D02*
X070908Y003209D01*
X071061Y003209D01*
X071138Y003133D01*
X071138Y002826D01*
X071061Y002749D01*
X070908Y002749D01*
X070831Y002826D01*
X070908Y002979D02*
X071138Y002979D01*
X070908Y002979D02*
X070831Y003056D01*
X070831Y003133D01*
X069911Y003209D02*
X069911Y002749D01*
X067674Y002806D02*
X067597Y002729D01*
X067443Y002729D01*
X067367Y002806D01*
X067213Y002806D02*
X067136Y002729D01*
X066983Y002729D01*
X066906Y002806D01*
X066906Y002960D02*
X067060Y003036D01*
X067136Y003036D01*
X067213Y002960D01*
X067213Y002806D01*
X066906Y002960D02*
X066906Y003190D01*
X067213Y003190D01*
X067367Y003113D02*
X067443Y003190D01*
X067597Y003190D01*
X067674Y003113D01*
X067674Y003036D01*
X067597Y002960D01*
X067674Y002883D01*
X067674Y002806D01*
X067597Y002960D02*
X067520Y002960D01*
X066753Y002960D02*
X066676Y002883D01*
X066446Y002883D01*
X066599Y002883D02*
X066753Y002729D01*
X066753Y002960D02*
X066753Y003113D01*
X066676Y003190D01*
X066446Y003190D01*
X066446Y002729D01*
X065233Y002826D02*
X065156Y002749D01*
X065002Y002749D01*
X064926Y002826D01*
X064926Y002979D02*
X065079Y003056D01*
X065156Y003056D01*
X065233Y002979D01*
X065233Y002826D01*
X064926Y002979D02*
X064926Y003209D01*
X065233Y003209D01*
X064772Y003209D02*
X064465Y003209D01*
X064465Y002979D01*
X064619Y003056D01*
X064696Y003056D01*
X064772Y002979D01*
X064772Y002826D01*
X064696Y002749D01*
X064542Y002749D01*
X064465Y002826D01*
X064312Y002749D02*
X064158Y002903D01*
X064235Y002903D02*
X064005Y002903D01*
X064005Y002749D02*
X064005Y003209D01*
X064235Y003209D01*
X064312Y003133D01*
X064312Y002979D01*
X064235Y002903D01*
X064312Y003930D02*
X064158Y004084D01*
X064235Y004084D02*
X064005Y004084D01*
X064005Y003930D02*
X064005Y004391D01*
X064235Y004391D01*
X064312Y004314D01*
X064312Y004160D01*
X064235Y004084D01*
X064465Y004160D02*
X064619Y004237D01*
X064696Y004237D01*
X064772Y004160D01*
X064772Y004007D01*
X064696Y003930D01*
X064542Y003930D01*
X064465Y004007D01*
X064465Y004160D02*
X064465Y004391D01*
X064772Y004391D01*
X064926Y004160D02*
X065156Y004160D01*
X065233Y004084D01*
X065233Y004007D01*
X065156Y003930D01*
X065002Y003930D01*
X064926Y004007D01*
X064926Y004160D01*
X065079Y004314D01*
X065233Y004391D01*
X064965Y005242D02*
X064812Y005242D01*
X064735Y005319D01*
X064735Y005396D01*
X064812Y005473D01*
X064965Y005473D01*
X065042Y005396D01*
X065042Y005319D01*
X064965Y005242D01*
X064965Y005473D02*
X065042Y005549D01*
X065042Y005626D01*
X064965Y005703D01*
X064812Y005703D01*
X064735Y005626D01*
X064735Y005549D01*
X064812Y005473D01*
X064582Y005549D02*
X064582Y005626D01*
X064505Y005703D01*
X064351Y005703D01*
X064275Y005626D01*
X064121Y005626D02*
X064045Y005703D01*
X063891Y005703D01*
X063814Y005626D01*
X063814Y005319D01*
X063891Y005242D01*
X064045Y005242D01*
X064121Y005319D01*
X064275Y005242D02*
X064582Y005549D01*
X064582Y005242D02*
X064275Y005242D01*
X066255Y005299D02*
X066332Y005223D01*
X066486Y005223D01*
X066562Y005299D01*
X066716Y005223D02*
X067023Y005530D01*
X067023Y005606D01*
X066946Y005683D01*
X066792Y005683D01*
X066716Y005606D01*
X066562Y005606D02*
X066486Y005683D01*
X066332Y005683D01*
X066255Y005606D01*
X066255Y005299D01*
X066716Y005223D02*
X067023Y005223D01*
X067176Y005223D02*
X067176Y005299D01*
X067483Y005606D01*
X067483Y005683D01*
X067176Y005683D01*
X067213Y004371D02*
X066906Y004371D01*
X066906Y004141D01*
X067060Y004217D01*
X067136Y004217D01*
X067213Y004141D01*
X067213Y003987D01*
X067136Y003911D01*
X066983Y003911D01*
X066906Y003987D01*
X066753Y003911D02*
X066599Y004064D01*
X066676Y004064D02*
X066446Y004064D01*
X066446Y003911D02*
X066446Y004371D01*
X066676Y004371D01*
X066753Y004294D01*
X066753Y004141D01*
X066676Y004064D01*
X067367Y004141D02*
X067674Y004141D01*
X067597Y004371D02*
X067367Y004141D01*
X067597Y003911D02*
X067597Y004371D01*
X054866Y004215D02*
X054866Y004139D01*
X054790Y004062D01*
X054636Y004062D01*
X054560Y004139D01*
X054560Y004215D01*
X054636Y004292D01*
X054790Y004292D01*
X054866Y004215D01*
X054790Y004062D02*
X054866Y003985D01*
X054866Y003909D01*
X054790Y003832D01*
X054636Y003832D01*
X054560Y003909D01*
X054560Y003985D01*
X054636Y004062D01*
X054406Y004139D02*
X054329Y004062D01*
X054406Y003985D01*
X054406Y003909D01*
X054329Y003832D01*
X054176Y003832D01*
X054099Y003909D01*
X053946Y003832D02*
X053792Y003985D01*
X053869Y003985D02*
X053639Y003985D01*
X053639Y003832D02*
X053639Y004292D01*
X053869Y004292D01*
X053946Y004215D01*
X053946Y004062D01*
X053869Y003985D01*
X054099Y004215D02*
X054176Y004292D01*
X054329Y004292D01*
X054406Y004215D01*
X054406Y004139D01*
X054329Y004062D02*
X054253Y004062D01*
X054216Y005144D02*
X053909Y005144D01*
X054062Y005144D02*
X054062Y005604D01*
X053909Y005451D01*
X053755Y005528D02*
X053678Y005604D01*
X053525Y005604D01*
X053448Y005528D01*
X053448Y005221D01*
X053525Y005144D01*
X053678Y005144D01*
X053755Y005221D01*
X054369Y005221D02*
X054446Y005144D01*
X054599Y005144D01*
X054676Y005221D01*
X054676Y005528D01*
X054599Y005604D01*
X054446Y005604D01*
X054369Y005528D01*
X054369Y005451D01*
X054446Y005374D01*
X054676Y005374D01*
X052629Y005299D02*
X052552Y005223D01*
X052398Y005223D01*
X052322Y005299D01*
X052629Y005606D01*
X052629Y005299D01*
X052322Y005299D02*
X052322Y005606D01*
X052398Y005683D01*
X052552Y005683D01*
X052629Y005606D01*
X052168Y005606D02*
X052168Y005530D01*
X051861Y005223D01*
X052168Y005223D01*
X052168Y005606D02*
X052092Y005683D01*
X051938Y005683D01*
X051861Y005606D01*
X051708Y005606D02*
X051631Y005683D01*
X051478Y005683D01*
X051401Y005606D01*
X051401Y005299D01*
X051478Y005223D01*
X051631Y005223D01*
X051708Y005299D01*
X051822Y004371D02*
X051899Y004294D01*
X051899Y004141D01*
X051822Y004064D01*
X051592Y004064D01*
X051745Y004064D02*
X051899Y003911D01*
X052052Y004141D02*
X052359Y004141D01*
X052512Y004294D02*
X052589Y004371D01*
X052743Y004371D01*
X052819Y004294D01*
X052512Y003987D01*
X052589Y003911D01*
X052743Y003911D01*
X052819Y003987D01*
X052819Y004294D01*
X052512Y004294D02*
X052512Y003987D01*
X052282Y003911D02*
X052282Y004371D01*
X052052Y004141D01*
X051822Y004371D02*
X051592Y004371D01*
X051592Y003911D01*
X051592Y003190D02*
X051822Y003190D01*
X051899Y003113D01*
X051899Y002960D01*
X051822Y002883D01*
X051592Y002883D01*
X051745Y002883D02*
X051899Y002729D01*
X052052Y002806D02*
X052129Y002729D01*
X052282Y002729D01*
X052359Y002806D01*
X052359Y002883D01*
X052282Y002960D01*
X052205Y002960D01*
X052282Y002960D02*
X052359Y003036D01*
X052359Y003113D01*
X052282Y003190D01*
X052129Y003190D01*
X052052Y003113D01*
X052512Y003113D02*
X052589Y003190D01*
X052743Y003190D01*
X052819Y003113D01*
X052819Y002806D01*
X052743Y002729D01*
X052589Y002729D01*
X052512Y002806D01*
X052589Y002960D02*
X052819Y002960D01*
X052589Y002960D02*
X052512Y003036D01*
X052512Y003113D01*
X051592Y003190D02*
X051592Y002729D01*
X053639Y002804D02*
X053869Y002804D01*
X053946Y002881D01*
X053946Y003034D01*
X053869Y003111D01*
X053639Y003111D01*
X053639Y002651D01*
X053792Y002804D02*
X053946Y002651D01*
X054099Y002727D02*
X054176Y002651D01*
X054329Y002651D01*
X054406Y002727D01*
X054406Y002804D01*
X054329Y002881D01*
X054253Y002881D01*
X054329Y002881D02*
X054406Y002958D01*
X054406Y003034D01*
X054329Y003111D01*
X054176Y003111D01*
X054099Y003034D01*
X054560Y003111D02*
X054866Y003111D01*
X054866Y003034D01*
X054560Y002727D01*
X054560Y002651D01*
X049355Y002710D02*
X049048Y002710D01*
X049201Y002710D02*
X049201Y003170D01*
X049048Y003017D01*
X048894Y003017D02*
X048818Y002940D01*
X048894Y002863D01*
X048894Y002786D01*
X048818Y002710D01*
X048664Y002710D01*
X048587Y002786D01*
X048434Y002710D02*
X048281Y002863D01*
X048357Y002863D02*
X048127Y002863D01*
X048127Y002710D02*
X048127Y003170D01*
X048357Y003170D01*
X048434Y003093D01*
X048434Y002940D01*
X048357Y002863D01*
X048587Y003093D02*
X048664Y003170D01*
X048818Y003170D01*
X048894Y003093D01*
X048894Y003017D01*
X048818Y002940D02*
X048741Y002940D01*
X048664Y003891D02*
X048587Y003968D01*
X048664Y003891D02*
X048818Y003891D01*
X048894Y003968D01*
X048894Y004044D01*
X048818Y004121D01*
X048741Y004121D01*
X048818Y004121D02*
X048894Y004198D01*
X048894Y004274D01*
X048818Y004351D01*
X048664Y004351D01*
X048587Y004274D01*
X048434Y004274D02*
X048434Y004121D01*
X048357Y004044D01*
X048127Y004044D01*
X048127Y003891D02*
X048127Y004351D01*
X048357Y004351D01*
X048434Y004274D01*
X048281Y004044D02*
X048434Y003891D01*
X049048Y004121D02*
X049355Y004121D01*
X049278Y003891D02*
X049278Y004351D01*
X049048Y004121D01*
X046914Y004064D02*
X046837Y004141D01*
X046607Y004141D01*
X046607Y003987D01*
X046684Y003911D01*
X046837Y003911D01*
X046914Y003987D01*
X046914Y004064D01*
X046760Y004294D02*
X046607Y004141D01*
X046453Y004217D02*
X046377Y004141D01*
X046453Y004064D01*
X046453Y003987D01*
X046377Y003911D01*
X046223Y003911D01*
X046146Y003987D01*
X045993Y003911D02*
X045840Y004064D01*
X045916Y004064D02*
X045686Y004064D01*
X045686Y003911D02*
X045686Y004371D01*
X045916Y004371D01*
X045993Y004294D01*
X045993Y004141D01*
X045916Y004064D01*
X046146Y004294D02*
X046223Y004371D01*
X046377Y004371D01*
X046453Y004294D01*
X046453Y004217D01*
X046377Y004141D02*
X046300Y004141D01*
X046760Y004294D02*
X046914Y004371D01*
X046914Y003190D02*
X046607Y003190D01*
X046607Y002960D01*
X046760Y003036D01*
X046837Y003036D01*
X046914Y002960D01*
X046914Y002806D01*
X046837Y002729D01*
X046684Y002729D01*
X046607Y002806D01*
X046453Y002806D02*
X046377Y002729D01*
X046223Y002729D01*
X046146Y002806D01*
X045993Y002729D02*
X045840Y002883D01*
X045916Y002883D02*
X045686Y002883D01*
X045686Y002729D02*
X045686Y003190D01*
X045916Y003190D01*
X045993Y003113D01*
X045993Y002960D01*
X045916Y002883D01*
X046146Y003113D02*
X046223Y003190D01*
X046377Y003190D01*
X046453Y003113D01*
X046453Y003036D01*
X046377Y002960D01*
X046453Y002883D01*
X046453Y002806D01*
X046377Y002960D02*
X046300Y002960D01*
X046263Y005223D02*
X045956Y005223D01*
X046109Y005223D02*
X046109Y005683D01*
X045956Y005530D01*
X045802Y005606D02*
X045726Y005683D01*
X045572Y005683D01*
X045496Y005606D01*
X045496Y005299D01*
X045572Y005223D01*
X045726Y005223D01*
X045802Y005299D01*
X046416Y005299D02*
X046416Y005376D01*
X046493Y005453D01*
X046646Y005453D01*
X046723Y005376D01*
X046723Y005299D01*
X046646Y005223D01*
X046493Y005223D01*
X046416Y005299D01*
X046493Y005453D02*
X046416Y005530D01*
X046416Y005606D01*
X046493Y005683D01*
X046646Y005683D01*
X046723Y005606D01*
X046723Y005530D01*
X046646Y005453D01*
X047936Y005587D02*
X047936Y005280D01*
X048013Y005203D01*
X048167Y005203D01*
X048243Y005280D01*
X048397Y005203D02*
X048704Y005203D01*
X048857Y005203D02*
X048857Y005280D01*
X049164Y005587D01*
X049164Y005663D01*
X048857Y005663D01*
X048550Y005663D02*
X048550Y005203D01*
X048397Y005510D02*
X048550Y005663D01*
X048243Y005587D02*
X048167Y005663D01*
X048013Y005663D01*
X047936Y005587D01*
X036461Y003840D02*
X036154Y003840D01*
X036001Y003840D02*
X035694Y003840D01*
X035847Y003840D02*
X035847Y004300D01*
X035694Y004147D01*
X035540Y004223D02*
X035540Y004070D01*
X035464Y003993D01*
X035233Y003993D01*
X035233Y003840D02*
X035233Y004300D01*
X035464Y004300D01*
X035540Y004223D01*
X035387Y003993D02*
X035540Y003840D01*
X036154Y004147D02*
X036308Y004300D01*
X036308Y003840D01*
X036001Y003119D02*
X036001Y003042D01*
X035694Y002735D01*
X035694Y002659D01*
X035540Y002659D02*
X035387Y002812D01*
X035464Y002812D02*
X035233Y002812D01*
X035233Y002659D02*
X035233Y003119D01*
X035464Y003119D01*
X035540Y003042D01*
X035540Y002889D01*
X035464Y002812D01*
X035694Y003119D02*
X036001Y003119D01*
X034414Y003121D02*
X034337Y003198D01*
X034184Y003198D01*
X034107Y003121D01*
X033953Y003121D02*
X033953Y003044D01*
X033877Y002967D01*
X033953Y002891D01*
X033953Y002814D01*
X033877Y002737D01*
X033723Y002737D01*
X033646Y002814D01*
X033493Y002737D02*
X033340Y002891D01*
X033416Y002891D02*
X033186Y002891D01*
X033186Y002737D02*
X033186Y003198D01*
X033416Y003198D01*
X033493Y003121D01*
X033493Y002967D01*
X033416Y002891D01*
X033646Y003121D02*
X033723Y003198D01*
X033877Y003198D01*
X033953Y003121D01*
X033877Y002967D02*
X033800Y002967D01*
X034107Y002737D02*
X034414Y003044D01*
X034414Y003121D01*
X034414Y002737D02*
X034107Y002737D01*
X034184Y003918D02*
X034107Y003995D01*
X034184Y003918D02*
X034337Y003918D01*
X034414Y003995D01*
X034414Y004072D01*
X034337Y004149D01*
X034260Y004149D01*
X034337Y004149D02*
X034414Y004225D01*
X034414Y004302D01*
X034337Y004379D01*
X034184Y004379D01*
X034107Y004302D01*
X033953Y004302D02*
X033953Y004225D01*
X033877Y004149D01*
X033953Y004072D01*
X033953Y003995D01*
X033877Y003918D01*
X033723Y003918D01*
X033646Y003995D01*
X033493Y003918D02*
X033340Y004072D01*
X033416Y004072D02*
X033186Y004072D01*
X033186Y003918D02*
X033186Y004379D01*
X033416Y004379D01*
X033493Y004302D01*
X033493Y004149D01*
X033416Y004072D01*
X033646Y004302D02*
X033723Y004379D01*
X033877Y004379D01*
X033953Y004302D01*
X033877Y004149D02*
X033800Y004149D01*
X035043Y005229D02*
X035119Y005152D01*
X035273Y005152D01*
X035350Y005229D01*
X035503Y005152D02*
X035810Y005152D01*
X035657Y005152D02*
X035657Y005612D01*
X035503Y005459D01*
X035350Y005536D02*
X035273Y005612D01*
X035119Y005612D01*
X035043Y005536D01*
X035043Y005229D01*
X034223Y005461D02*
X033916Y005461D01*
X034146Y005691D01*
X034146Y005231D01*
X033763Y005231D02*
X033456Y005231D01*
X033609Y005231D02*
X033609Y005691D01*
X033456Y005538D01*
X033302Y005614D02*
X033226Y005691D01*
X033072Y005691D01*
X032996Y005614D01*
X032996Y005307D01*
X033072Y005231D01*
X033226Y005231D01*
X033302Y005307D01*
X035964Y005229D02*
X036040Y005152D01*
X036194Y005152D01*
X036270Y005229D01*
X036270Y005305D01*
X036194Y005382D01*
X036117Y005382D01*
X036194Y005382D02*
X036270Y005459D01*
X036270Y005536D01*
X036194Y005612D01*
X036040Y005612D01*
X035964Y005536D01*
X030759Y005595D02*
X030452Y005288D01*
X030452Y005211D01*
X030298Y005288D02*
X030222Y005211D01*
X030068Y005211D01*
X029991Y005288D01*
X029991Y005595D01*
X030068Y005671D01*
X030222Y005671D01*
X030298Y005595D01*
X030452Y005671D02*
X030759Y005671D01*
X030759Y005595D01*
X028318Y005614D02*
X028318Y005538D01*
X028241Y005461D01*
X028087Y005461D01*
X028011Y005538D01*
X028011Y005614D01*
X028087Y005691D01*
X028241Y005691D01*
X028318Y005614D01*
X028241Y005461D02*
X028318Y005384D01*
X028318Y005307D01*
X028241Y005231D01*
X028087Y005231D01*
X028011Y005307D01*
X028011Y005384D01*
X028087Y005461D01*
X027857Y005614D02*
X027781Y005691D01*
X027627Y005691D01*
X027550Y005614D01*
X027550Y005307D01*
X027627Y005231D01*
X027781Y005231D01*
X027857Y005307D01*
X027818Y004379D02*
X027741Y004302D01*
X027818Y004379D02*
X027971Y004379D01*
X028048Y004302D01*
X028048Y004225D01*
X027741Y003918D01*
X028048Y003918D01*
X028201Y003995D02*
X028278Y003918D01*
X028431Y003918D01*
X028508Y003995D01*
X028508Y004072D01*
X028431Y004149D01*
X028355Y004149D01*
X028431Y004149D02*
X028508Y004225D01*
X028508Y004302D01*
X028431Y004379D01*
X028278Y004379D01*
X028201Y004302D01*
X027588Y004302D02*
X027588Y004149D01*
X027511Y004072D01*
X027281Y004072D01*
X027434Y004072D02*
X027588Y003918D01*
X027281Y003918D02*
X027281Y004379D01*
X027511Y004379D01*
X027588Y004302D01*
X027511Y003198D02*
X027588Y003121D01*
X027588Y002967D01*
X027511Y002891D01*
X027281Y002891D01*
X027434Y002891D02*
X027588Y002737D01*
X027741Y002737D02*
X028048Y003044D01*
X028048Y003121D01*
X027971Y003198D01*
X027818Y003198D01*
X027741Y003121D01*
X027511Y003198D02*
X027281Y003198D01*
X027281Y002737D01*
X027741Y002737D02*
X028048Y002737D01*
X028201Y002737D02*
X028508Y003044D01*
X028508Y003121D01*
X028431Y003198D01*
X028278Y003198D01*
X028201Y003121D01*
X028201Y002737D02*
X028508Y002737D01*
X029722Y002718D02*
X029722Y003178D01*
X029952Y003178D01*
X030028Y003101D01*
X030028Y002948D01*
X029952Y002871D01*
X029722Y002871D01*
X029875Y002871D02*
X030028Y002718D01*
X030182Y002718D02*
X030489Y003025D01*
X030489Y003101D01*
X030412Y003178D01*
X030259Y003178D01*
X030182Y003101D01*
X030182Y002718D02*
X030489Y002718D01*
X030642Y002794D02*
X030719Y002718D01*
X030872Y002718D01*
X030949Y002794D01*
X030949Y003101D01*
X030642Y002794D01*
X030642Y003101D01*
X030719Y003178D01*
X030872Y003178D01*
X030949Y003101D01*
X030949Y003899D02*
X030642Y003899D01*
X030489Y003899D02*
X030182Y003899D01*
X030489Y004206D01*
X030489Y004282D01*
X030412Y004359D01*
X030259Y004359D01*
X030182Y004282D01*
X030028Y004282D02*
X030028Y004129D01*
X029952Y004052D01*
X029722Y004052D01*
X029875Y004052D02*
X030028Y003899D01*
X029722Y003899D02*
X029722Y004359D01*
X029952Y004359D01*
X030028Y004282D01*
X030642Y004206D02*
X030796Y004359D01*
X030796Y003899D01*
X045002Y011966D02*
X045002Y012426D01*
X045232Y012426D01*
X045309Y012349D01*
X045309Y012196D01*
X045232Y012119D01*
X045002Y012119D01*
X045155Y012119D02*
X045309Y011966D01*
X045462Y011966D02*
X045769Y012273D01*
X045769Y012349D01*
X045692Y012426D01*
X045539Y012426D01*
X045462Y012349D01*
X045462Y011966D02*
X045769Y011966D01*
X045923Y012042D02*
X045999Y011966D01*
X046153Y011966D01*
X046229Y012042D01*
X046229Y012196D01*
X046153Y012273D01*
X046076Y012273D01*
X045923Y012196D01*
X045923Y012426D01*
X046229Y012426D01*
X040915Y013223D02*
X040838Y013147D01*
X040684Y013147D01*
X040608Y013223D01*
X040454Y013147D02*
X040301Y013300D01*
X040377Y013300D02*
X040147Y013300D01*
X040147Y013147D02*
X040147Y013607D01*
X040377Y013607D01*
X040454Y013530D01*
X040454Y013377D01*
X040377Y013300D01*
X040608Y013530D02*
X040684Y013607D01*
X040838Y013607D01*
X040915Y013530D01*
X040915Y013454D01*
X040838Y013377D01*
X040915Y013300D01*
X040915Y013223D01*
X040838Y013377D02*
X040761Y013377D01*
X040808Y015378D02*
X040732Y015455D01*
X040808Y015378D02*
X040962Y015378D01*
X041038Y015455D01*
X041038Y015761D01*
X040962Y015838D01*
X040808Y015838D01*
X040732Y015761D01*
X040732Y015685D01*
X040808Y015608D01*
X041038Y015608D01*
X040578Y015455D02*
X040501Y015378D01*
X040348Y015378D01*
X040271Y015455D01*
X040271Y015761D01*
X040348Y015838D01*
X040501Y015838D01*
X040578Y015761D01*
X043027Y015761D02*
X043027Y015455D01*
X043104Y015378D01*
X043257Y015378D01*
X043334Y015455D01*
X043487Y015378D02*
X043794Y015378D01*
X043641Y015378D02*
X043641Y015838D01*
X043487Y015685D01*
X043334Y015761D02*
X043257Y015838D01*
X043104Y015838D01*
X043027Y015761D01*
X043948Y015761D02*
X043948Y015455D01*
X044255Y015761D01*
X044255Y015455D01*
X044178Y015378D01*
X044024Y015378D01*
X043948Y015455D01*
X043948Y015761D02*
X044024Y015838D01*
X044178Y015838D01*
X044255Y015761D01*
X045586Y015761D02*
X045586Y015455D01*
X045663Y015378D01*
X045816Y015378D01*
X045893Y015455D01*
X046046Y015378D02*
X046353Y015378D01*
X046200Y015378D02*
X046200Y015838D01*
X046046Y015685D01*
X045893Y015761D02*
X045816Y015838D01*
X045663Y015838D01*
X045586Y015761D01*
X046507Y015761D02*
X046584Y015838D01*
X046737Y015838D01*
X046814Y015761D01*
X046814Y015685D01*
X046507Y015378D01*
X046814Y015378D01*
X047948Y015455D02*
X047948Y015761D01*
X048025Y015838D01*
X048179Y015838D01*
X048255Y015761D01*
X048409Y015685D02*
X048562Y015838D01*
X048562Y015378D01*
X048409Y015378D02*
X048716Y015378D01*
X048869Y015378D02*
X049176Y015378D01*
X049022Y015378D02*
X049022Y015838D01*
X048869Y015685D01*
X048255Y015455D02*
X048179Y015378D01*
X048025Y015378D01*
X047948Y015455D01*
X050507Y015455D02*
X050584Y015378D01*
X050738Y015378D01*
X050814Y015455D01*
X050968Y015378D02*
X051275Y015378D01*
X051121Y015378D02*
X051121Y015838D01*
X050968Y015685D01*
X050814Y015761D02*
X050738Y015838D01*
X050584Y015838D01*
X050507Y015761D01*
X050507Y015455D01*
X051428Y015455D02*
X051505Y015378D01*
X051658Y015378D01*
X051735Y015455D01*
X051735Y015608D01*
X051658Y015685D01*
X051582Y015685D01*
X051428Y015608D01*
X051428Y015838D01*
X051735Y015838D01*
X053066Y015761D02*
X053066Y015455D01*
X053143Y015378D01*
X053297Y015378D01*
X053373Y015455D01*
X053527Y015378D02*
X053834Y015378D01*
X053680Y015378D02*
X053680Y015838D01*
X053527Y015685D01*
X053373Y015761D02*
X053297Y015838D01*
X053143Y015838D01*
X053066Y015761D01*
X053987Y015608D02*
X053987Y015455D01*
X054064Y015378D01*
X054217Y015378D01*
X054294Y015455D01*
X054294Y015531D01*
X054217Y015608D01*
X053987Y015608D01*
X054141Y015761D01*
X054294Y015838D01*
X058787Y015781D02*
X058787Y015474D01*
X058864Y015398D01*
X059017Y015398D01*
X059094Y015474D01*
X059247Y015398D02*
X059554Y015704D01*
X059554Y015781D01*
X059477Y015858D01*
X059324Y015858D01*
X059247Y015781D01*
X059094Y015781D02*
X059017Y015858D01*
X058864Y015858D01*
X058787Y015781D01*
X059247Y015398D02*
X059554Y015398D01*
X059708Y015398D02*
X060015Y015398D01*
X059861Y015398D02*
X059861Y015858D01*
X059708Y015704D01*
D14*
X085013Y035513D02*
X085013Y036143D01*
X085113Y036143D01*
X085113Y038548D01*
X085831Y039414D01*
X087013Y039414D01*
X087731Y038587D01*
X087731Y036143D01*
X087831Y036143D01*
X087831Y035513D01*
X087209Y035513D01*
X087209Y036225D01*
X085635Y036225D01*
X085635Y035513D01*
X085013Y035513D01*
X085635Y035513D02*
X087209Y035513D01*
X086658Y038548D02*
X086186Y038548D01*
X086186Y038784D01*
X086658Y038784D01*
X086658Y038548D01*
X086658Y038784D02*
X086658Y039178D01*
X086186Y039178D01*
X086186Y038784D01*
D15*
X003446Y022646D02*
X003446Y021623D01*
X003032Y021209D01*
X001359Y021209D01*
X000946Y021623D01*
X000946Y022646D01*
X001910Y022646D01*
X001911Y022648D02*
X000948Y022648D01*
X000946Y022646D02*
X001359Y023060D01*
X001851Y023060D01*
X001969Y022784D01*
X001851Y022509D01*
X001654Y022509D01*
X001556Y022410D01*
X001556Y021859D01*
X001654Y021761D01*
X002757Y021761D01*
X002855Y021859D01*
X002855Y022391D01*
X002737Y022509D01*
X002481Y022509D01*
X002599Y022784D01*
X002481Y023060D01*
X003032Y023060D01*
X003446Y022646D01*
X002540Y022646D01*
X002541Y022648D02*
X003444Y022648D01*
X003441Y022651D02*
X002542Y022651D01*
X002543Y022653D02*
X003439Y022653D01*
X003436Y022656D02*
X002544Y022656D01*
X002545Y022658D02*
X003434Y022658D01*
X003431Y022661D02*
X002546Y022661D01*
X002547Y022663D02*
X003429Y022663D01*
X003426Y022666D02*
X002548Y022666D01*
X002550Y022668D02*
X003424Y022668D01*
X003421Y022671D02*
X002551Y022671D01*
X002552Y022673D02*
X003419Y022673D01*
X003416Y022676D02*
X002553Y022676D01*
X002554Y022678D02*
X003414Y022678D01*
X003411Y022681D02*
X002555Y022681D01*
X002556Y022683D02*
X003409Y022683D01*
X003406Y022686D02*
X002557Y022686D01*
X002558Y022688D02*
X003404Y022688D01*
X003402Y022691D02*
X002559Y022691D01*
X002560Y022693D02*
X003399Y022693D01*
X003397Y022696D02*
X002561Y022696D01*
X002562Y022698D02*
X003394Y022698D01*
X003392Y022701D02*
X002563Y022701D01*
X002564Y022703D02*
X003389Y022703D01*
X003387Y022705D02*
X002565Y022705D01*
X002567Y022708D02*
X003384Y022708D01*
X003382Y022710D02*
X002568Y022710D01*
X002569Y022713D02*
X003379Y022713D01*
X003377Y022715D02*
X002570Y022715D01*
X002571Y022718D02*
X003374Y022718D01*
X003372Y022720D02*
X002572Y022720D01*
X002573Y022723D02*
X003369Y022723D01*
X003367Y022725D02*
X002574Y022725D01*
X002575Y022728D02*
X003364Y022728D01*
X003362Y022730D02*
X002576Y022730D01*
X002577Y022733D02*
X003359Y022733D01*
X003357Y022735D02*
X002578Y022735D01*
X002579Y022738D02*
X003354Y022738D01*
X003352Y022740D02*
X002580Y022740D01*
X002581Y022743D02*
X003349Y022743D01*
X003347Y022745D02*
X002582Y022745D01*
X002584Y022748D02*
X003344Y022748D01*
X003342Y022750D02*
X002585Y022750D01*
X002586Y022753D02*
X003340Y022753D01*
X003337Y022755D02*
X002587Y022755D01*
X002588Y022758D02*
X003335Y022758D01*
X003332Y022760D02*
X002589Y022760D01*
X002590Y022763D02*
X003330Y022763D01*
X003327Y022765D02*
X002591Y022765D01*
X002592Y022767D02*
X003325Y022767D01*
X003322Y022770D02*
X002593Y022770D01*
X002594Y022772D02*
X003320Y022772D01*
X003317Y022775D02*
X002595Y022775D01*
X002596Y022777D02*
X003315Y022777D01*
X003312Y022780D02*
X002597Y022780D01*
X002598Y022782D02*
X003310Y022782D01*
X003307Y022785D02*
X002599Y022785D01*
X002598Y022787D02*
X003305Y022787D01*
X003302Y022790D02*
X002597Y022790D01*
X002596Y022792D02*
X003300Y022792D01*
X003297Y022795D02*
X002595Y022795D01*
X002594Y022797D02*
X003295Y022797D01*
X003292Y022800D02*
X002593Y022800D01*
X002591Y022802D02*
X003290Y022802D01*
X003287Y022805D02*
X002590Y022805D01*
X002589Y022807D02*
X003285Y022807D01*
X003282Y022810D02*
X002588Y022810D01*
X002587Y022812D02*
X003280Y022812D01*
X003278Y022815D02*
X002586Y022815D01*
X002585Y022817D02*
X003275Y022817D01*
X003273Y022820D02*
X002584Y022820D01*
X002583Y022822D02*
X003270Y022822D01*
X003268Y022825D02*
X002582Y022825D01*
X002581Y022827D02*
X003265Y022827D01*
X003263Y022829D02*
X002580Y022829D01*
X002579Y022832D02*
X003260Y022832D01*
X003258Y022834D02*
X002578Y022834D01*
X002577Y022837D02*
X003255Y022837D01*
X003253Y022839D02*
X002576Y022839D01*
X002574Y022842D02*
X003250Y022842D01*
X003248Y022844D02*
X002573Y022844D01*
X002572Y022847D02*
X003245Y022847D01*
X003243Y022849D02*
X002571Y022849D01*
X002570Y022852D02*
X003240Y022852D01*
X003238Y022854D02*
X002569Y022854D01*
X002568Y022857D02*
X003235Y022857D01*
X003233Y022859D02*
X002567Y022859D01*
X002566Y022862D02*
X003230Y022862D01*
X003228Y022864D02*
X002565Y022864D01*
X002564Y022867D02*
X003225Y022867D01*
X003223Y022869D02*
X002563Y022869D01*
X002562Y022872D02*
X003220Y022872D01*
X003218Y022874D02*
X002561Y022874D01*
X002560Y022877D02*
X003216Y022877D01*
X003213Y022879D02*
X002559Y022879D01*
X002557Y022882D02*
X003211Y022882D01*
X003208Y022884D02*
X002556Y022884D01*
X002555Y022887D02*
X003206Y022887D01*
X003203Y022889D02*
X002554Y022889D01*
X002553Y022891D02*
X003201Y022891D01*
X003198Y022894D02*
X002552Y022894D01*
X002551Y022896D02*
X003196Y022896D01*
X003193Y022899D02*
X002550Y022899D01*
X002549Y022901D02*
X003191Y022901D01*
X003188Y022904D02*
X002548Y022904D01*
X002547Y022906D02*
X003186Y022906D01*
X003183Y022909D02*
X002546Y022909D01*
X002545Y022911D02*
X003181Y022911D01*
X003178Y022914D02*
X002544Y022914D01*
X002543Y022916D02*
X003176Y022916D01*
X003173Y022919D02*
X002542Y022919D01*
X002540Y022921D02*
X003171Y022921D01*
X003168Y022924D02*
X002539Y022924D01*
X002538Y022926D02*
X003166Y022926D01*
X003163Y022929D02*
X002537Y022929D01*
X002536Y022931D02*
X003161Y022931D01*
X003158Y022934D02*
X002535Y022934D01*
X002534Y022936D02*
X003156Y022936D01*
X003154Y022939D02*
X002533Y022939D01*
X002532Y022941D02*
X003151Y022941D01*
X003149Y022944D02*
X002531Y022944D01*
X002530Y022946D02*
X003146Y022946D01*
X003144Y022949D02*
X002529Y022949D01*
X002528Y022951D02*
X003141Y022951D01*
X003139Y022954D02*
X002527Y022954D01*
X002526Y022956D02*
X003136Y022956D01*
X003134Y022958D02*
X002525Y022958D01*
X002523Y022961D02*
X003131Y022961D01*
X003129Y022963D02*
X002522Y022963D01*
X002521Y022966D02*
X003126Y022966D01*
X003124Y022968D02*
X002520Y022968D01*
X002519Y022971D02*
X003121Y022971D01*
X003119Y022973D02*
X002518Y022973D01*
X002517Y022976D02*
X003116Y022976D01*
X003114Y022978D02*
X002516Y022978D01*
X002515Y022981D02*
X003111Y022981D01*
X003109Y022983D02*
X002514Y022983D01*
X002513Y022986D02*
X003106Y022986D01*
X003104Y022988D02*
X002512Y022988D01*
X002511Y022991D02*
X003101Y022991D01*
X003099Y022993D02*
X002510Y022993D01*
X002509Y022996D02*
X003096Y022996D01*
X003094Y022998D02*
X002508Y022998D01*
X002506Y023001D02*
X003091Y023001D01*
X003089Y023003D02*
X002505Y023003D01*
X002504Y023006D02*
X003087Y023006D01*
X003084Y023008D02*
X002503Y023008D01*
X002502Y023011D02*
X003082Y023011D01*
X003079Y023013D02*
X002501Y023013D01*
X002500Y023016D02*
X003077Y023016D01*
X003074Y023018D02*
X002499Y023018D01*
X002498Y023020D02*
X003072Y023020D01*
X003069Y023023D02*
X002497Y023023D01*
X002496Y023025D02*
X003067Y023025D01*
X003064Y023028D02*
X002495Y023028D01*
X002494Y023030D02*
X003062Y023030D01*
X003059Y023033D02*
X002493Y023033D01*
X002492Y023035D02*
X003057Y023035D01*
X003054Y023038D02*
X002491Y023038D01*
X002489Y023040D02*
X003052Y023040D01*
X003049Y023043D02*
X002488Y023043D01*
X002487Y023045D02*
X003047Y023045D01*
X003044Y023048D02*
X002486Y023048D01*
X002485Y023050D02*
X003042Y023050D01*
X003039Y023053D02*
X002484Y023053D01*
X002483Y023055D02*
X003037Y023055D01*
X003034Y023058D02*
X002482Y023058D01*
X002539Y022643D02*
X003446Y022643D01*
X003446Y022641D02*
X002538Y022641D01*
X002537Y022639D02*
X003446Y022639D01*
X003446Y022636D02*
X002536Y022636D01*
X002535Y022634D02*
X003446Y022634D01*
X003446Y022631D02*
X002534Y022631D01*
X002533Y022629D02*
X003446Y022629D01*
X003446Y022626D02*
X002531Y022626D01*
X002530Y022624D02*
X003446Y022624D01*
X003446Y022621D02*
X002529Y022621D01*
X002528Y022619D02*
X003446Y022619D01*
X003446Y022616D02*
X002527Y022616D01*
X002526Y022614D02*
X003446Y022614D01*
X003446Y022611D02*
X002525Y022611D01*
X002524Y022609D02*
X003446Y022609D01*
X003446Y022606D02*
X002523Y022606D01*
X002522Y022604D02*
X003446Y022604D01*
X003446Y022601D02*
X002521Y022601D01*
X002520Y022599D02*
X003446Y022599D01*
X003446Y022596D02*
X002519Y022596D01*
X002518Y022594D02*
X003446Y022594D01*
X003446Y022591D02*
X002517Y022591D01*
X002516Y022589D02*
X003446Y022589D01*
X003446Y022586D02*
X002514Y022586D01*
X002513Y022584D02*
X003446Y022584D01*
X003446Y022581D02*
X002512Y022581D01*
X002511Y022579D02*
X003446Y022579D01*
X003446Y022576D02*
X002510Y022576D01*
X002509Y022574D02*
X003446Y022574D01*
X003446Y022572D02*
X002508Y022572D01*
X002507Y022569D02*
X003446Y022569D01*
X003446Y022567D02*
X002506Y022567D01*
X002505Y022564D02*
X003446Y022564D01*
X003446Y022562D02*
X002504Y022562D01*
X002503Y022559D02*
X003446Y022559D01*
X003446Y022557D02*
X002502Y022557D01*
X002501Y022554D02*
X003446Y022554D01*
X003446Y022552D02*
X002500Y022552D01*
X002499Y022549D02*
X003446Y022549D01*
X003446Y022547D02*
X002497Y022547D01*
X002496Y022544D02*
X003446Y022544D01*
X003446Y022542D02*
X002495Y022542D01*
X002494Y022539D02*
X003446Y022539D01*
X003446Y022537D02*
X002493Y022537D01*
X002492Y022534D02*
X003446Y022534D01*
X003446Y022532D02*
X002491Y022532D01*
X002490Y022529D02*
X003446Y022529D01*
X003446Y022527D02*
X002489Y022527D01*
X002488Y022524D02*
X003446Y022524D01*
X003446Y022522D02*
X002487Y022522D01*
X002486Y022519D02*
X003446Y022519D01*
X003446Y022517D02*
X002485Y022517D01*
X002484Y022514D02*
X003446Y022514D01*
X003446Y022512D02*
X002483Y022512D01*
X002481Y022510D02*
X003446Y022510D01*
X003446Y022507D02*
X002739Y022507D01*
X002741Y022505D02*
X003446Y022505D01*
X003446Y022502D02*
X002744Y022502D01*
X002746Y022500D02*
X003446Y022500D01*
X003446Y022497D02*
X002749Y022497D01*
X002751Y022495D02*
X003446Y022495D01*
X003446Y022492D02*
X002754Y022492D01*
X002756Y022490D02*
X003446Y022490D01*
X003446Y022487D02*
X002758Y022487D01*
X002761Y022485D02*
X003446Y022485D01*
X003446Y022482D02*
X002763Y022482D01*
X002766Y022480D02*
X003446Y022480D01*
X003446Y022477D02*
X002768Y022477D01*
X002771Y022475D02*
X003446Y022475D01*
X003446Y022472D02*
X002773Y022472D01*
X002776Y022470D02*
X003446Y022470D01*
X003446Y022467D02*
X002778Y022467D01*
X002781Y022465D02*
X003446Y022465D01*
X003446Y022462D02*
X002783Y022462D01*
X002786Y022460D02*
X003446Y022460D01*
X003446Y022457D02*
X002788Y022457D01*
X002791Y022455D02*
X003446Y022455D01*
X003446Y022452D02*
X002793Y022452D01*
X002796Y022450D02*
X003446Y022450D01*
X003446Y022448D02*
X002798Y022448D01*
X002801Y022445D02*
X003446Y022445D01*
X003446Y022443D02*
X002803Y022443D01*
X002806Y022440D02*
X003446Y022440D01*
X003446Y022438D02*
X002808Y022438D01*
X002811Y022435D02*
X003446Y022435D01*
X003446Y022433D02*
X002813Y022433D01*
X002816Y022430D02*
X003446Y022430D01*
X003446Y022428D02*
X002818Y022428D01*
X002820Y022425D02*
X003446Y022425D01*
X003446Y022423D02*
X002823Y022423D01*
X002825Y022420D02*
X003446Y022420D01*
X003446Y022418D02*
X002828Y022418D01*
X002830Y022415D02*
X003446Y022415D01*
X003446Y022413D02*
X002833Y022413D01*
X002835Y022410D02*
X003446Y022410D01*
X003446Y022408D02*
X002838Y022408D01*
X002840Y022405D02*
X003446Y022405D01*
X003446Y022403D02*
X002843Y022403D01*
X002845Y022400D02*
X003446Y022400D01*
X003446Y022398D02*
X002848Y022398D01*
X002850Y022395D02*
X003446Y022395D01*
X003446Y022393D02*
X002853Y022393D01*
X002855Y022390D02*
X003446Y022390D01*
X003446Y022388D02*
X002855Y022388D01*
X002855Y022386D02*
X003446Y022386D01*
X003446Y022383D02*
X002855Y022383D01*
X002855Y022381D02*
X003446Y022381D01*
X003446Y022378D02*
X002855Y022378D01*
X002855Y022376D02*
X003446Y022376D01*
X003446Y022373D02*
X002855Y022373D01*
X002855Y022371D02*
X003446Y022371D01*
X003446Y022368D02*
X002855Y022368D01*
X002855Y022366D02*
X003446Y022366D01*
X003446Y022363D02*
X002855Y022363D01*
X002855Y022361D02*
X003446Y022361D01*
X003446Y022358D02*
X002855Y022358D01*
X002855Y022356D02*
X003446Y022356D01*
X003446Y022353D02*
X002855Y022353D01*
X002855Y022351D02*
X003446Y022351D01*
X003446Y022348D02*
X002855Y022348D01*
X002855Y022346D02*
X003446Y022346D01*
X003446Y022343D02*
X002855Y022343D01*
X002855Y022341D02*
X003446Y022341D01*
X003446Y022338D02*
X002855Y022338D01*
X002855Y022336D02*
X003446Y022336D01*
X003446Y022333D02*
X002855Y022333D01*
X002855Y022331D02*
X003446Y022331D01*
X003446Y022328D02*
X002855Y022328D01*
X002855Y022326D02*
X003446Y022326D01*
X003446Y022324D02*
X002855Y022324D01*
X002855Y022321D02*
X003446Y022321D01*
X003446Y022319D02*
X002855Y022319D01*
X002855Y022316D02*
X003446Y022316D01*
X003446Y022314D02*
X002855Y022314D01*
X002855Y022311D02*
X003446Y022311D01*
X003446Y022309D02*
X002855Y022309D01*
X002855Y022306D02*
X003446Y022306D01*
X003446Y022304D02*
X002855Y022304D01*
X002855Y022301D02*
X003446Y022301D01*
X003446Y022299D02*
X002855Y022299D01*
X002855Y022296D02*
X003446Y022296D01*
X003446Y022294D02*
X002855Y022294D01*
X002855Y022291D02*
X003446Y022291D01*
X003446Y022289D02*
X002855Y022289D01*
X002855Y022286D02*
X003446Y022286D01*
X003446Y022284D02*
X002855Y022284D01*
X002855Y022281D02*
X003446Y022281D01*
X003446Y022279D02*
X002855Y022279D01*
X002855Y022276D02*
X003446Y022276D01*
X003446Y022274D02*
X002855Y022274D01*
X002855Y022271D02*
X003446Y022271D01*
X003446Y022269D02*
X002855Y022269D01*
X002855Y022266D02*
X003446Y022266D01*
X003446Y022264D02*
X002855Y022264D01*
X002855Y022261D02*
X003446Y022261D01*
X003446Y022259D02*
X002855Y022259D01*
X002855Y022257D02*
X003446Y022257D01*
X003446Y022254D02*
X002855Y022254D01*
X002855Y022252D02*
X003446Y022252D01*
X003446Y022249D02*
X002855Y022249D01*
X002855Y022247D02*
X003446Y022247D01*
X003446Y022244D02*
X002855Y022244D01*
X002855Y022242D02*
X003446Y022242D01*
X003446Y022239D02*
X002855Y022239D01*
X002855Y022237D02*
X003446Y022237D01*
X003446Y022234D02*
X002855Y022234D01*
X002855Y022232D02*
X003446Y022232D01*
X003446Y022229D02*
X002855Y022229D01*
X002855Y022227D02*
X003446Y022227D01*
X003446Y022224D02*
X002855Y022224D01*
X002855Y022222D02*
X003446Y022222D01*
X003446Y022219D02*
X002855Y022219D01*
X002855Y022217D02*
X003446Y022217D01*
X003446Y022214D02*
X002855Y022214D01*
X002855Y022212D02*
X003446Y022212D01*
X003446Y022209D02*
X002855Y022209D01*
X002855Y022207D02*
X003446Y022207D01*
X003446Y022204D02*
X002855Y022204D01*
X002855Y022202D02*
X003446Y022202D01*
X003446Y022199D02*
X002855Y022199D01*
X002855Y022197D02*
X003446Y022197D01*
X003446Y022195D02*
X002855Y022195D01*
X002855Y022192D02*
X003446Y022192D01*
X003446Y022190D02*
X002855Y022190D01*
X002855Y022187D02*
X003446Y022187D01*
X003446Y022185D02*
X002855Y022185D01*
X002855Y022182D02*
X003446Y022182D01*
X003446Y022180D02*
X002855Y022180D01*
X002855Y022177D02*
X003446Y022177D01*
X003446Y022175D02*
X002855Y022175D01*
X002855Y022172D02*
X003446Y022172D01*
X003446Y022170D02*
X002855Y022170D01*
X002855Y022167D02*
X003446Y022167D01*
X003446Y022165D02*
X002855Y022165D01*
X002855Y022162D02*
X003446Y022162D01*
X003446Y022160D02*
X002855Y022160D01*
X002855Y022157D02*
X003446Y022157D01*
X003446Y022155D02*
X002855Y022155D01*
X002855Y022152D02*
X003446Y022152D01*
X003446Y022150D02*
X002855Y022150D01*
X002855Y022147D02*
X003446Y022147D01*
X003446Y022145D02*
X002855Y022145D01*
X002855Y022142D02*
X003446Y022142D01*
X003446Y022140D02*
X002855Y022140D01*
X002855Y022137D02*
X003446Y022137D01*
X003446Y022135D02*
X002855Y022135D01*
X002855Y022133D02*
X003446Y022133D01*
X003446Y022130D02*
X002855Y022130D01*
X002855Y022128D02*
X003446Y022128D01*
X003446Y022125D02*
X002855Y022125D01*
X002855Y022123D02*
X003446Y022123D01*
X003446Y022120D02*
X002855Y022120D01*
X002855Y022118D02*
X003446Y022118D01*
X003446Y022115D02*
X002855Y022115D01*
X002855Y022113D02*
X003446Y022113D01*
X003446Y022110D02*
X002855Y022110D01*
X002855Y022108D02*
X003446Y022108D01*
X003446Y022105D02*
X002855Y022105D01*
X002855Y022103D02*
X003446Y022103D01*
X003446Y022100D02*
X002855Y022100D01*
X002855Y022098D02*
X003446Y022098D01*
X003446Y022095D02*
X002855Y022095D01*
X002855Y022093D02*
X003446Y022093D01*
X003446Y022090D02*
X002855Y022090D01*
X002855Y022088D02*
X003446Y022088D01*
X003446Y022085D02*
X002855Y022085D01*
X002855Y022083D02*
X003446Y022083D01*
X003446Y022080D02*
X002855Y022080D01*
X002855Y022078D02*
X003446Y022078D01*
X003446Y022075D02*
X002855Y022075D01*
X002855Y022073D02*
X003446Y022073D01*
X003446Y022071D02*
X002855Y022071D01*
X002855Y022068D02*
X003446Y022068D01*
X003446Y022066D02*
X002855Y022066D01*
X002855Y022063D02*
X003446Y022063D01*
X003446Y022061D02*
X002855Y022061D01*
X002855Y022058D02*
X003446Y022058D01*
X003446Y022056D02*
X002855Y022056D01*
X002855Y022053D02*
X003446Y022053D01*
X003446Y022051D02*
X002855Y022051D01*
X002855Y022048D02*
X003446Y022048D01*
X003446Y022046D02*
X002855Y022046D01*
X002855Y022043D02*
X003446Y022043D01*
X003446Y022041D02*
X002855Y022041D01*
X002855Y022038D02*
X003446Y022038D01*
X003446Y022036D02*
X002855Y022036D01*
X002855Y022033D02*
X003446Y022033D01*
X003446Y022031D02*
X002855Y022031D01*
X002855Y022028D02*
X003446Y022028D01*
X003446Y022026D02*
X002855Y022026D01*
X002855Y022023D02*
X003446Y022023D01*
X003446Y022021D02*
X002855Y022021D01*
X002855Y022018D02*
X003446Y022018D01*
X003446Y022016D02*
X002855Y022016D01*
X002855Y022013D02*
X003446Y022013D01*
X003446Y022011D02*
X002855Y022011D01*
X002855Y022009D02*
X003446Y022009D01*
X003446Y022006D02*
X002855Y022006D01*
X002855Y022004D02*
X003446Y022004D01*
X003446Y022001D02*
X002855Y022001D01*
X002855Y021999D02*
X003446Y021999D01*
X003446Y021996D02*
X002855Y021996D01*
X002855Y021994D02*
X003446Y021994D01*
X003446Y021991D02*
X002855Y021991D01*
X002855Y021989D02*
X003446Y021989D01*
X003446Y021986D02*
X002855Y021986D01*
X002855Y021984D02*
X003446Y021984D01*
X003446Y021981D02*
X002855Y021981D01*
X002855Y021979D02*
X003446Y021979D01*
X003446Y021976D02*
X002855Y021976D01*
X002855Y021974D02*
X003446Y021974D01*
X003446Y021971D02*
X002855Y021971D01*
X002855Y021969D02*
X003446Y021969D01*
X003446Y021966D02*
X002855Y021966D01*
X002855Y021964D02*
X003446Y021964D01*
X003446Y021961D02*
X002855Y021961D01*
X002855Y021959D02*
X003446Y021959D01*
X003446Y021956D02*
X002855Y021956D01*
X002855Y021954D02*
X003446Y021954D01*
X003446Y021951D02*
X002855Y021951D01*
X002855Y021949D02*
X003446Y021949D01*
X003446Y021946D02*
X002855Y021946D01*
X002855Y021944D02*
X003446Y021944D01*
X003446Y021942D02*
X002855Y021942D01*
X002855Y021939D02*
X003446Y021939D01*
X003446Y021937D02*
X002855Y021937D01*
X002855Y021934D02*
X003446Y021934D01*
X003446Y021932D02*
X002855Y021932D01*
X002855Y021929D02*
X003446Y021929D01*
X003446Y021927D02*
X002855Y021927D01*
X002855Y021924D02*
X003446Y021924D01*
X003446Y021922D02*
X002855Y021922D01*
X002855Y021919D02*
X003446Y021919D01*
X003446Y021917D02*
X002855Y021917D01*
X002855Y021914D02*
X003446Y021914D01*
X003446Y021912D02*
X002855Y021912D01*
X002855Y021909D02*
X003446Y021909D01*
X003446Y021907D02*
X002855Y021907D01*
X002855Y021904D02*
X003446Y021904D01*
X003446Y021902D02*
X002855Y021902D01*
X002855Y021899D02*
X003446Y021899D01*
X003446Y021897D02*
X002855Y021897D01*
X002855Y021894D02*
X003446Y021894D01*
X003446Y021892D02*
X002855Y021892D01*
X002855Y021889D02*
X003446Y021889D01*
X003446Y021887D02*
X002855Y021887D01*
X002855Y021884D02*
X003446Y021884D01*
X003446Y021882D02*
X002855Y021882D01*
X002855Y021880D02*
X003446Y021880D01*
X003446Y021877D02*
X002855Y021877D01*
X002855Y021875D02*
X003446Y021875D01*
X003446Y021872D02*
X002855Y021872D01*
X002855Y021870D02*
X003446Y021870D01*
X003446Y021867D02*
X002855Y021867D01*
X002855Y021865D02*
X003446Y021865D01*
X003446Y021862D02*
X002855Y021862D01*
X002855Y021860D02*
X003446Y021860D01*
X003446Y021857D02*
X002853Y021857D01*
X002851Y021855D02*
X003446Y021855D01*
X003446Y021852D02*
X002848Y021852D01*
X002846Y021850D02*
X003446Y021850D01*
X003446Y021847D02*
X002843Y021847D01*
X002841Y021845D02*
X003446Y021845D01*
X003446Y021842D02*
X002838Y021842D01*
X002836Y021840D02*
X003446Y021840D01*
X003446Y021837D02*
X002833Y021837D01*
X002831Y021835D02*
X003446Y021835D01*
X003446Y021832D02*
X002828Y021832D01*
X002826Y021830D02*
X003446Y021830D01*
X003446Y021827D02*
X002824Y021827D01*
X002821Y021825D02*
X003446Y021825D01*
X003446Y021822D02*
X002819Y021822D01*
X002816Y021820D02*
X003446Y021820D01*
X003446Y021818D02*
X002814Y021818D01*
X002811Y021815D02*
X003446Y021815D01*
X003446Y021813D02*
X002809Y021813D01*
X002806Y021810D02*
X003446Y021810D01*
X003446Y021808D02*
X002804Y021808D01*
X002801Y021805D02*
X003446Y021805D01*
X003446Y021803D02*
X002799Y021803D01*
X002796Y021800D02*
X003446Y021800D01*
X003446Y021798D02*
X002794Y021798D01*
X002791Y021795D02*
X003446Y021795D01*
X003446Y021793D02*
X002789Y021793D01*
X002786Y021790D02*
X003446Y021790D01*
X003446Y021788D02*
X002784Y021788D01*
X002781Y021785D02*
X003446Y021785D01*
X003446Y021783D02*
X002779Y021783D01*
X002776Y021780D02*
X003446Y021780D01*
X003446Y021778D02*
X002774Y021778D01*
X002771Y021775D02*
X003446Y021775D01*
X003446Y021773D02*
X002769Y021773D01*
X002766Y021770D02*
X003446Y021770D01*
X003446Y021768D02*
X002764Y021768D01*
X002761Y021765D02*
X003446Y021765D01*
X003446Y021763D02*
X002759Y021763D01*
X003172Y021349D02*
X001220Y021349D01*
X001217Y021351D02*
X003174Y021351D01*
X003177Y021354D02*
X001215Y021354D01*
X001212Y021356D02*
X003179Y021356D01*
X003181Y021359D02*
X001210Y021359D01*
X001207Y021361D02*
X003184Y021361D01*
X003186Y021364D02*
X001205Y021364D01*
X001202Y021366D02*
X003189Y021366D01*
X003191Y021369D02*
X001200Y021369D01*
X001197Y021371D02*
X003194Y021371D01*
X003196Y021374D02*
X001195Y021374D01*
X001192Y021376D02*
X003199Y021376D01*
X003201Y021379D02*
X001190Y021379D01*
X001188Y021381D02*
X003204Y021381D01*
X003206Y021383D02*
X001185Y021383D01*
X001183Y021386D02*
X003209Y021386D01*
X003211Y021388D02*
X001180Y021388D01*
X001178Y021391D02*
X003214Y021391D01*
X003216Y021393D02*
X001175Y021393D01*
X001173Y021396D02*
X003219Y021396D01*
X003221Y021398D02*
X001170Y021398D01*
X001168Y021401D02*
X003224Y021401D01*
X003226Y021403D02*
X001165Y021403D01*
X001163Y021406D02*
X003229Y021406D01*
X003231Y021408D02*
X001160Y021408D01*
X001158Y021411D02*
X003234Y021411D01*
X003236Y021413D02*
X001155Y021413D01*
X001153Y021416D02*
X003239Y021416D01*
X003241Y021418D02*
X001150Y021418D01*
X001148Y021421D02*
X003244Y021421D01*
X003246Y021423D02*
X001145Y021423D01*
X001143Y021426D02*
X003248Y021426D01*
X003251Y021428D02*
X001140Y021428D01*
X001138Y021431D02*
X003253Y021431D01*
X003256Y021433D02*
X001135Y021433D01*
X001133Y021436D02*
X003258Y021436D01*
X003261Y021438D02*
X001130Y021438D01*
X001128Y021441D02*
X003263Y021441D01*
X003266Y021443D02*
X001126Y021443D01*
X001123Y021445D02*
X003268Y021445D01*
X003271Y021448D02*
X001121Y021448D01*
X001118Y021450D02*
X003273Y021450D01*
X003276Y021453D02*
X001116Y021453D01*
X001113Y021455D02*
X003278Y021455D01*
X003281Y021458D02*
X001111Y021458D01*
X001108Y021460D02*
X003283Y021460D01*
X003286Y021463D02*
X001106Y021463D01*
X001103Y021465D02*
X003288Y021465D01*
X003291Y021468D02*
X001101Y021468D01*
X001098Y021470D02*
X003293Y021470D01*
X003296Y021473D02*
X001096Y021473D01*
X001093Y021475D02*
X003298Y021475D01*
X003301Y021478D02*
X001091Y021478D01*
X001088Y021480D02*
X003303Y021480D01*
X003306Y021483D02*
X001086Y021483D01*
X001083Y021485D02*
X003308Y021485D01*
X003310Y021488D02*
X001081Y021488D01*
X001078Y021490D02*
X003313Y021490D01*
X003315Y021493D02*
X001076Y021493D01*
X001073Y021495D02*
X003318Y021495D01*
X003320Y021498D02*
X001071Y021498D01*
X001068Y021500D02*
X003323Y021500D01*
X003325Y021503D02*
X001066Y021503D01*
X001064Y021505D02*
X003328Y021505D01*
X003330Y021507D02*
X001061Y021507D01*
X001059Y021510D02*
X003333Y021510D01*
X003335Y021512D02*
X001056Y021512D01*
X001054Y021515D02*
X003338Y021515D01*
X003340Y021517D02*
X001051Y021517D01*
X001049Y021520D02*
X003343Y021520D01*
X003345Y021522D02*
X001046Y021522D01*
X001044Y021525D02*
X003348Y021525D01*
X003350Y021527D02*
X001041Y021527D01*
X001039Y021530D02*
X003353Y021530D01*
X003355Y021532D02*
X001036Y021532D01*
X001034Y021535D02*
X003358Y021535D01*
X003360Y021537D02*
X001031Y021537D01*
X001029Y021540D02*
X003363Y021540D01*
X003365Y021542D02*
X001026Y021542D01*
X001024Y021545D02*
X003368Y021545D01*
X003370Y021547D02*
X001021Y021547D01*
X001019Y021550D02*
X003372Y021550D01*
X003375Y021552D02*
X001016Y021552D01*
X001014Y021555D02*
X003377Y021555D01*
X003380Y021557D02*
X001011Y021557D01*
X001009Y021560D02*
X003382Y021560D01*
X003385Y021562D02*
X001006Y021562D01*
X001004Y021565D02*
X003387Y021565D01*
X003390Y021567D02*
X001001Y021567D01*
X000999Y021569D02*
X003392Y021569D01*
X003395Y021572D02*
X000997Y021572D01*
X000994Y021574D02*
X003397Y021574D01*
X003400Y021577D02*
X000992Y021577D01*
X000989Y021579D02*
X003402Y021579D01*
X003405Y021582D02*
X000987Y021582D01*
X000984Y021584D02*
X003407Y021584D01*
X003410Y021587D02*
X000982Y021587D01*
X000979Y021589D02*
X003412Y021589D01*
X003415Y021592D02*
X000977Y021592D01*
X000974Y021594D02*
X003417Y021594D01*
X003420Y021597D02*
X000972Y021597D01*
X000969Y021599D02*
X003422Y021599D01*
X003425Y021602D02*
X000967Y021602D01*
X000964Y021604D02*
X003427Y021604D01*
X003430Y021607D02*
X000962Y021607D01*
X000959Y021609D02*
X003432Y021609D01*
X003434Y021612D02*
X000957Y021612D01*
X000954Y021614D02*
X003437Y021614D01*
X003439Y021617D02*
X000952Y021617D01*
X000949Y021619D02*
X003442Y021619D01*
X003444Y021622D02*
X000947Y021622D01*
X000946Y021624D02*
X003446Y021624D01*
X003446Y021627D02*
X000946Y021627D01*
X000946Y021629D02*
X003446Y021629D01*
X003446Y021631D02*
X000946Y021631D01*
X000946Y021634D02*
X003446Y021634D01*
X003446Y021636D02*
X000946Y021636D01*
X000946Y021639D02*
X003446Y021639D01*
X003446Y021641D02*
X000946Y021641D01*
X000946Y021644D02*
X003446Y021644D01*
X003446Y021646D02*
X000946Y021646D01*
X000946Y021649D02*
X003446Y021649D01*
X003446Y021651D02*
X000946Y021651D01*
X000946Y021654D02*
X003446Y021654D01*
X003446Y021656D02*
X000946Y021656D01*
X000946Y021659D02*
X003446Y021659D01*
X003446Y021661D02*
X000946Y021661D01*
X000946Y021664D02*
X003446Y021664D01*
X003446Y021666D02*
X000946Y021666D01*
X000946Y021669D02*
X003446Y021669D01*
X003446Y021671D02*
X000946Y021671D01*
X000946Y021674D02*
X003446Y021674D01*
X003446Y021676D02*
X000946Y021676D01*
X000946Y021679D02*
X003446Y021679D01*
X003446Y021681D02*
X000946Y021681D01*
X000946Y021684D02*
X003446Y021684D01*
X003446Y021686D02*
X000946Y021686D01*
X000946Y021689D02*
X003446Y021689D01*
X003446Y021691D02*
X000946Y021691D01*
X000946Y021694D02*
X003446Y021694D01*
X003446Y021696D02*
X000946Y021696D01*
X000946Y021698D02*
X003446Y021698D01*
X003446Y021701D02*
X000946Y021701D01*
X000946Y021703D02*
X003446Y021703D01*
X003446Y021706D02*
X000946Y021706D01*
X000946Y021708D02*
X003446Y021708D01*
X003446Y021711D02*
X000946Y021711D01*
X000946Y021713D02*
X003446Y021713D01*
X003446Y021716D02*
X000946Y021716D01*
X000946Y021718D02*
X003446Y021718D01*
X003446Y021721D02*
X000946Y021721D01*
X000946Y021723D02*
X003446Y021723D01*
X003446Y021726D02*
X000946Y021726D01*
X000946Y021728D02*
X003446Y021728D01*
X003446Y021731D02*
X000946Y021731D01*
X000946Y021733D02*
X003446Y021733D01*
X003446Y021736D02*
X000946Y021736D01*
X000946Y021738D02*
X003446Y021738D01*
X003446Y021741D02*
X000946Y021741D01*
X000946Y021743D02*
X003446Y021743D01*
X003446Y021746D02*
X000946Y021746D01*
X000946Y021748D02*
X003446Y021748D01*
X003446Y021751D02*
X000946Y021751D01*
X000946Y021753D02*
X003446Y021753D01*
X003446Y021756D02*
X000946Y021756D01*
X000946Y021758D02*
X003446Y021758D01*
X003446Y021760D02*
X000946Y021760D01*
X000946Y021763D02*
X001652Y021763D01*
X001650Y021765D02*
X000946Y021765D01*
X000946Y021768D02*
X001647Y021768D01*
X001645Y021770D02*
X000946Y021770D01*
X000946Y021773D02*
X001642Y021773D01*
X001640Y021775D02*
X000946Y021775D01*
X000946Y021778D02*
X001637Y021778D01*
X001635Y021780D02*
X000946Y021780D01*
X000946Y021783D02*
X001632Y021783D01*
X001630Y021785D02*
X000946Y021785D01*
X000946Y021788D02*
X001627Y021788D01*
X001625Y021790D02*
X000946Y021790D01*
X000946Y021793D02*
X001622Y021793D01*
X001620Y021795D02*
X000946Y021795D01*
X000946Y021798D02*
X001617Y021798D01*
X001615Y021800D02*
X000946Y021800D01*
X000946Y021803D02*
X001612Y021803D01*
X001610Y021805D02*
X000946Y021805D01*
X000946Y021808D02*
X001607Y021808D01*
X001605Y021810D02*
X000946Y021810D01*
X000946Y021813D02*
X001602Y021813D01*
X001600Y021815D02*
X000946Y021815D01*
X000946Y021818D02*
X001597Y021818D01*
X001595Y021820D02*
X000946Y021820D01*
X000946Y021822D02*
X001592Y021822D01*
X001590Y021825D02*
X000946Y021825D01*
X000946Y021827D02*
X001588Y021827D01*
X001585Y021830D02*
X000946Y021830D01*
X000946Y021832D02*
X001583Y021832D01*
X001580Y021835D02*
X000946Y021835D01*
X000946Y021837D02*
X001578Y021837D01*
X001575Y021840D02*
X000946Y021840D01*
X000946Y021842D02*
X001573Y021842D01*
X001570Y021845D02*
X000946Y021845D01*
X000946Y021847D02*
X001568Y021847D01*
X001565Y021850D02*
X000946Y021850D01*
X000946Y021852D02*
X001563Y021852D01*
X001560Y021855D02*
X000946Y021855D01*
X000946Y021857D02*
X001558Y021857D01*
X001556Y021860D02*
X000946Y021860D01*
X000946Y021862D02*
X001556Y021862D01*
X001556Y021865D02*
X000946Y021865D01*
X000946Y021867D02*
X001556Y021867D01*
X001556Y021870D02*
X000946Y021870D01*
X000946Y021872D02*
X001556Y021872D01*
X001556Y021875D02*
X000946Y021875D01*
X000946Y021877D02*
X001556Y021877D01*
X001556Y021880D02*
X000946Y021880D01*
X000946Y021882D02*
X001556Y021882D01*
X001556Y021884D02*
X000946Y021884D01*
X000946Y021887D02*
X001556Y021887D01*
X001556Y021889D02*
X000946Y021889D01*
X000946Y021892D02*
X001556Y021892D01*
X001556Y021894D02*
X000946Y021894D01*
X000946Y021897D02*
X001556Y021897D01*
X001556Y021899D02*
X000946Y021899D01*
X000946Y021902D02*
X001556Y021902D01*
X001556Y021904D02*
X000946Y021904D01*
X000946Y021907D02*
X001556Y021907D01*
X001556Y021909D02*
X000946Y021909D01*
X000946Y021912D02*
X001556Y021912D01*
X001556Y021914D02*
X000946Y021914D01*
X000946Y021917D02*
X001556Y021917D01*
X001556Y021919D02*
X000946Y021919D01*
X000946Y021922D02*
X001556Y021922D01*
X001556Y021924D02*
X000946Y021924D01*
X000946Y021927D02*
X001556Y021927D01*
X001556Y021929D02*
X000946Y021929D01*
X000946Y021932D02*
X001556Y021932D01*
X001556Y021934D02*
X000946Y021934D01*
X000946Y021937D02*
X001556Y021937D01*
X001556Y021939D02*
X000946Y021939D01*
X000946Y021942D02*
X001556Y021942D01*
X001556Y021944D02*
X000946Y021944D01*
X000946Y021946D02*
X001556Y021946D01*
X001556Y021949D02*
X000946Y021949D01*
X000946Y021951D02*
X001556Y021951D01*
X001556Y021954D02*
X000946Y021954D01*
X000946Y021956D02*
X001556Y021956D01*
X001556Y021959D02*
X000946Y021959D01*
X000946Y021961D02*
X001556Y021961D01*
X001556Y021964D02*
X000946Y021964D01*
X000946Y021966D02*
X001556Y021966D01*
X001556Y021969D02*
X000946Y021969D01*
X000946Y021971D02*
X001556Y021971D01*
X001556Y021974D02*
X000946Y021974D01*
X000946Y021976D02*
X001556Y021976D01*
X001556Y021979D02*
X000946Y021979D01*
X000946Y021981D02*
X001556Y021981D01*
X001556Y021984D02*
X000946Y021984D01*
X000946Y021986D02*
X001556Y021986D01*
X001556Y021989D02*
X000946Y021989D01*
X000946Y021991D02*
X001556Y021991D01*
X001556Y021994D02*
X000946Y021994D01*
X000946Y021996D02*
X001556Y021996D01*
X001556Y021999D02*
X000946Y021999D01*
X000946Y022001D02*
X001556Y022001D01*
X001556Y022004D02*
X000946Y022004D01*
X000946Y022006D02*
X001556Y022006D01*
X001556Y022009D02*
X000946Y022009D01*
X000946Y022011D02*
X001556Y022011D01*
X001556Y022013D02*
X000946Y022013D01*
X000946Y022016D02*
X001556Y022016D01*
X001556Y022018D02*
X000946Y022018D01*
X000946Y022021D02*
X001556Y022021D01*
X001556Y022023D02*
X000946Y022023D01*
X000946Y022026D02*
X001556Y022026D01*
X001556Y022028D02*
X000946Y022028D01*
X000946Y022031D02*
X001556Y022031D01*
X001556Y022033D02*
X000946Y022033D01*
X000946Y022036D02*
X001556Y022036D01*
X001556Y022038D02*
X000946Y022038D01*
X000946Y022041D02*
X001556Y022041D01*
X001556Y022043D02*
X000946Y022043D01*
X000946Y022046D02*
X001556Y022046D01*
X001556Y022048D02*
X000946Y022048D01*
X000946Y022051D02*
X001556Y022051D01*
X001556Y022053D02*
X000946Y022053D01*
X000946Y022056D02*
X001556Y022056D01*
X001556Y022058D02*
X000946Y022058D01*
X000946Y022061D02*
X001556Y022061D01*
X001556Y022063D02*
X000946Y022063D01*
X000946Y022066D02*
X001556Y022066D01*
X001556Y022068D02*
X000946Y022068D01*
X000946Y022071D02*
X001556Y022071D01*
X001556Y022073D02*
X000946Y022073D01*
X000946Y022075D02*
X001556Y022075D01*
X001556Y022078D02*
X000946Y022078D01*
X000946Y022080D02*
X001556Y022080D01*
X001556Y022083D02*
X000946Y022083D01*
X000946Y022085D02*
X001556Y022085D01*
X001556Y022088D02*
X000946Y022088D01*
X000946Y022090D02*
X001556Y022090D01*
X001556Y022093D02*
X000946Y022093D01*
X000946Y022095D02*
X001556Y022095D01*
X001556Y022098D02*
X000946Y022098D01*
X000946Y022100D02*
X001556Y022100D01*
X001556Y022103D02*
X000946Y022103D01*
X000946Y022105D02*
X001556Y022105D01*
X001556Y022108D02*
X000946Y022108D01*
X000946Y022110D02*
X001556Y022110D01*
X001556Y022113D02*
X000946Y022113D01*
X000946Y022115D02*
X001556Y022115D01*
X001556Y022118D02*
X000946Y022118D01*
X000946Y022120D02*
X001556Y022120D01*
X001556Y022123D02*
X000946Y022123D01*
X000946Y022125D02*
X001556Y022125D01*
X001556Y022128D02*
X000946Y022128D01*
X000946Y022130D02*
X001556Y022130D01*
X001556Y022133D02*
X000946Y022133D01*
X000946Y022135D02*
X001556Y022135D01*
X001556Y022137D02*
X000946Y022137D01*
X000946Y022140D02*
X001556Y022140D01*
X001556Y022142D02*
X000946Y022142D01*
X000946Y022145D02*
X001556Y022145D01*
X001556Y022147D02*
X000946Y022147D01*
X000946Y022150D02*
X001556Y022150D01*
X001556Y022152D02*
X000946Y022152D01*
X000946Y022155D02*
X001556Y022155D01*
X001556Y022157D02*
X000946Y022157D01*
X000946Y022160D02*
X001556Y022160D01*
X001556Y022162D02*
X000946Y022162D01*
X000946Y022165D02*
X001556Y022165D01*
X001556Y022167D02*
X000946Y022167D01*
X000946Y022170D02*
X001556Y022170D01*
X001556Y022172D02*
X000946Y022172D01*
X000946Y022175D02*
X001556Y022175D01*
X001556Y022177D02*
X000946Y022177D01*
X000946Y022180D02*
X001556Y022180D01*
X001556Y022182D02*
X000946Y022182D01*
X000946Y022185D02*
X001556Y022185D01*
X001556Y022187D02*
X000946Y022187D01*
X000946Y022190D02*
X001556Y022190D01*
X001556Y022192D02*
X000946Y022192D01*
X000946Y022195D02*
X001556Y022195D01*
X001556Y022197D02*
X000946Y022197D01*
X000946Y022199D02*
X001556Y022199D01*
X001556Y022202D02*
X000946Y022202D01*
X000946Y022204D02*
X001556Y022204D01*
X001556Y022207D02*
X000946Y022207D01*
X000946Y022209D02*
X001556Y022209D01*
X001556Y022212D02*
X000946Y022212D01*
X000946Y022214D02*
X001556Y022214D01*
X001556Y022217D02*
X000946Y022217D01*
X000946Y022219D02*
X001556Y022219D01*
X001556Y022222D02*
X000946Y022222D01*
X000946Y022224D02*
X001556Y022224D01*
X001556Y022227D02*
X000946Y022227D01*
X000946Y022229D02*
X001556Y022229D01*
X001556Y022232D02*
X000946Y022232D01*
X000946Y022234D02*
X001556Y022234D01*
X001556Y022237D02*
X000946Y022237D01*
X000946Y022239D02*
X001556Y022239D01*
X001556Y022242D02*
X000946Y022242D01*
X000946Y022244D02*
X001556Y022244D01*
X001556Y022247D02*
X000946Y022247D01*
X000946Y022249D02*
X001556Y022249D01*
X001556Y022252D02*
X000946Y022252D01*
X000946Y022254D02*
X001556Y022254D01*
X001556Y022257D02*
X000946Y022257D01*
X000946Y022259D02*
X001556Y022259D01*
X001556Y022261D02*
X000946Y022261D01*
X000946Y022264D02*
X001556Y022264D01*
X001556Y022266D02*
X000946Y022266D01*
X000946Y022269D02*
X001556Y022269D01*
X001556Y022271D02*
X000946Y022271D01*
X000946Y022274D02*
X001556Y022274D01*
X001556Y022276D02*
X000946Y022276D01*
X000946Y022279D02*
X001556Y022279D01*
X001556Y022281D02*
X000946Y022281D01*
X000946Y022284D02*
X001556Y022284D01*
X001556Y022286D02*
X000946Y022286D01*
X000946Y022289D02*
X001556Y022289D01*
X001556Y022291D02*
X000946Y022291D01*
X000946Y022294D02*
X001556Y022294D01*
X001556Y022296D02*
X000946Y022296D01*
X000946Y022299D02*
X001556Y022299D01*
X001556Y022301D02*
X000946Y022301D01*
X000946Y022304D02*
X001556Y022304D01*
X001556Y022306D02*
X000946Y022306D01*
X000946Y022309D02*
X001556Y022309D01*
X001556Y022311D02*
X000946Y022311D01*
X000946Y022314D02*
X001556Y022314D01*
X001556Y022316D02*
X000946Y022316D01*
X000946Y022319D02*
X001556Y022319D01*
X001556Y022321D02*
X000946Y022321D01*
X000946Y022324D02*
X001556Y022324D01*
X001556Y022326D02*
X000946Y022326D01*
X000946Y022328D02*
X001556Y022328D01*
X001556Y022331D02*
X000946Y022331D01*
X000946Y022333D02*
X001556Y022333D01*
X001556Y022336D02*
X000946Y022336D01*
X000946Y022338D02*
X001556Y022338D01*
X001556Y022341D02*
X000946Y022341D01*
X000946Y022343D02*
X001556Y022343D01*
X001556Y022346D02*
X000946Y022346D01*
X000946Y022348D02*
X001556Y022348D01*
X001556Y022351D02*
X000946Y022351D01*
X000946Y022353D02*
X001556Y022353D01*
X001556Y022356D02*
X000946Y022356D01*
X000946Y022358D02*
X001556Y022358D01*
X001556Y022361D02*
X000946Y022361D01*
X000946Y022363D02*
X001556Y022363D01*
X001556Y022366D02*
X000946Y022366D01*
X000946Y022368D02*
X001556Y022368D01*
X001556Y022371D02*
X000946Y022371D01*
X000946Y022373D02*
X001556Y022373D01*
X001556Y022376D02*
X000946Y022376D01*
X000946Y022378D02*
X001556Y022378D01*
X001556Y022381D02*
X000946Y022381D01*
X000946Y022383D02*
X001556Y022383D01*
X001556Y022386D02*
X000946Y022386D01*
X000946Y022388D02*
X001556Y022388D01*
X001556Y022390D02*
X000946Y022390D01*
X000946Y022393D02*
X001556Y022393D01*
X001556Y022395D02*
X000946Y022395D01*
X000946Y022398D02*
X001556Y022398D01*
X001556Y022400D02*
X000946Y022400D01*
X000946Y022403D02*
X001556Y022403D01*
X001556Y022405D02*
X000946Y022405D01*
X000946Y022408D02*
X001556Y022408D01*
X001556Y022410D02*
X000946Y022410D01*
X000946Y022413D02*
X001558Y022413D01*
X001561Y022415D02*
X000946Y022415D01*
X000946Y022418D02*
X001563Y022418D01*
X001566Y022420D02*
X000946Y022420D01*
X000946Y022423D02*
X001568Y022423D01*
X001571Y022425D02*
X000946Y022425D01*
X000946Y022428D02*
X001573Y022428D01*
X001576Y022430D02*
X000946Y022430D01*
X000946Y022433D02*
X001578Y022433D01*
X001581Y022435D02*
X000946Y022435D01*
X000946Y022438D02*
X001583Y022438D01*
X001586Y022440D02*
X000946Y022440D01*
X000946Y022443D02*
X001588Y022443D01*
X001591Y022445D02*
X000946Y022445D01*
X000946Y022448D02*
X001593Y022448D01*
X001596Y022450D02*
X000946Y022450D01*
X000946Y022452D02*
X001598Y022452D01*
X001601Y022455D02*
X000946Y022455D01*
X000946Y022457D02*
X001603Y022457D01*
X001606Y022460D02*
X000946Y022460D01*
X000946Y022462D02*
X001608Y022462D01*
X001611Y022465D02*
X000946Y022465D01*
X000946Y022467D02*
X001613Y022467D01*
X001616Y022470D02*
X000946Y022470D01*
X000946Y022472D02*
X001618Y022472D01*
X001620Y022475D02*
X000946Y022475D01*
X000946Y022477D02*
X001623Y022477D01*
X001625Y022480D02*
X000946Y022480D01*
X000946Y022482D02*
X001628Y022482D01*
X001630Y022485D02*
X000946Y022485D01*
X000946Y022487D02*
X001633Y022487D01*
X001635Y022490D02*
X000946Y022490D01*
X000946Y022492D02*
X001638Y022492D01*
X001640Y022495D02*
X000946Y022495D01*
X000946Y022497D02*
X001643Y022497D01*
X001645Y022500D02*
X000946Y022500D01*
X000946Y022502D02*
X001648Y022502D01*
X001650Y022505D02*
X000946Y022505D01*
X000946Y022507D02*
X001653Y022507D01*
X001852Y022510D02*
X000946Y022510D01*
X000946Y022512D02*
X001853Y022512D01*
X001854Y022514D02*
X000946Y022514D01*
X000946Y022517D02*
X001855Y022517D01*
X001856Y022519D02*
X000946Y022519D01*
X000946Y022522D02*
X001857Y022522D01*
X001858Y022524D02*
X000946Y022524D01*
X000946Y022527D02*
X001859Y022527D01*
X001860Y022529D02*
X000946Y022529D01*
X000946Y022532D02*
X001861Y022532D01*
X001862Y022534D02*
X000946Y022534D01*
X000946Y022537D02*
X001863Y022537D01*
X001864Y022539D02*
X000946Y022539D01*
X000946Y022542D02*
X001865Y022542D01*
X001866Y022544D02*
X000946Y022544D01*
X000946Y022547D02*
X001867Y022547D01*
X001869Y022549D02*
X000946Y022549D01*
X000946Y022552D02*
X001870Y022552D01*
X001871Y022554D02*
X000946Y022554D01*
X000946Y022557D02*
X001872Y022557D01*
X001873Y022559D02*
X000946Y022559D01*
X000946Y022562D02*
X001874Y022562D01*
X001875Y022564D02*
X000946Y022564D01*
X000946Y022567D02*
X001876Y022567D01*
X001877Y022569D02*
X000946Y022569D01*
X000946Y022572D02*
X001878Y022572D01*
X001879Y022574D02*
X000946Y022574D01*
X000946Y022576D02*
X001880Y022576D01*
X001881Y022579D02*
X000946Y022579D01*
X000946Y022581D02*
X001882Y022581D01*
X001883Y022584D02*
X000946Y022584D01*
X000946Y022586D02*
X001884Y022586D01*
X001886Y022589D02*
X000946Y022589D01*
X000946Y022591D02*
X001887Y022591D01*
X001888Y022594D02*
X000946Y022594D01*
X000946Y022596D02*
X001889Y022596D01*
X001890Y022599D02*
X000946Y022599D01*
X000946Y022601D02*
X001891Y022601D01*
X001892Y022604D02*
X000946Y022604D01*
X000946Y022606D02*
X001893Y022606D01*
X001894Y022609D02*
X000946Y022609D01*
X000946Y022611D02*
X001895Y022611D01*
X001896Y022614D02*
X000946Y022614D01*
X000946Y022616D02*
X001897Y022616D01*
X001898Y022619D02*
X000946Y022619D01*
X000946Y022621D02*
X001899Y022621D01*
X001900Y022624D02*
X000946Y022624D01*
X000946Y022626D02*
X001901Y022626D01*
X001903Y022629D02*
X000946Y022629D01*
X000946Y022631D02*
X001904Y022631D01*
X001905Y022634D02*
X000946Y022634D01*
X000946Y022636D02*
X001906Y022636D01*
X001907Y022639D02*
X000946Y022639D01*
X000946Y022641D02*
X001908Y022641D01*
X001909Y022643D02*
X000946Y022643D01*
X000950Y022651D02*
X001912Y022651D01*
X001913Y022653D02*
X000953Y022653D01*
X000955Y022656D02*
X001914Y022656D01*
X001915Y022658D02*
X000958Y022658D01*
X000960Y022661D02*
X001916Y022661D01*
X001917Y022663D02*
X000963Y022663D01*
X000965Y022666D02*
X001919Y022666D01*
X001920Y022668D02*
X000967Y022668D01*
X000970Y022671D02*
X001921Y022671D01*
X001922Y022673D02*
X000972Y022673D01*
X000975Y022676D02*
X001923Y022676D01*
X001924Y022678D02*
X000977Y022678D01*
X000980Y022681D02*
X001925Y022681D01*
X001926Y022683D02*
X000982Y022683D01*
X000985Y022686D02*
X001927Y022686D01*
X001928Y022688D02*
X000987Y022688D01*
X000990Y022691D02*
X001929Y022691D01*
X001930Y022693D02*
X000992Y022693D01*
X000995Y022696D02*
X001931Y022696D01*
X001932Y022698D02*
X000997Y022698D01*
X001000Y022701D02*
X001933Y022701D01*
X001934Y022703D02*
X001002Y022703D01*
X001005Y022705D02*
X001936Y022705D01*
X001937Y022708D02*
X001007Y022708D01*
X001010Y022710D02*
X001938Y022710D01*
X001939Y022713D02*
X001012Y022713D01*
X001015Y022715D02*
X001940Y022715D01*
X001941Y022718D02*
X001017Y022718D01*
X001020Y022720D02*
X001942Y022720D01*
X001943Y022723D02*
X001022Y022723D01*
X001025Y022725D02*
X001944Y022725D01*
X001945Y022728D02*
X001027Y022728D01*
X001029Y022730D02*
X001946Y022730D01*
X001947Y022733D02*
X001032Y022733D01*
X001034Y022735D02*
X001948Y022735D01*
X001949Y022738D02*
X001037Y022738D01*
X001039Y022740D02*
X001950Y022740D01*
X001951Y022743D02*
X001042Y022743D01*
X001044Y022745D02*
X001953Y022745D01*
X001954Y022748D02*
X001047Y022748D01*
X001049Y022750D02*
X001955Y022750D01*
X001956Y022753D02*
X001052Y022753D01*
X001054Y022755D02*
X001957Y022755D01*
X001958Y022758D02*
X001057Y022758D01*
X001059Y022760D02*
X001959Y022760D01*
X001960Y022763D02*
X001062Y022763D01*
X001064Y022765D02*
X001961Y022765D01*
X001962Y022767D02*
X001067Y022767D01*
X001069Y022770D02*
X001963Y022770D01*
X001964Y022772D02*
X001072Y022772D01*
X001074Y022775D02*
X001965Y022775D01*
X001966Y022777D02*
X001077Y022777D01*
X001079Y022780D02*
X001967Y022780D01*
X001968Y022782D02*
X001082Y022782D01*
X001084Y022785D02*
X001969Y022785D01*
X001968Y022787D02*
X001087Y022787D01*
X001089Y022790D02*
X001967Y022790D01*
X001966Y022792D02*
X001091Y022792D01*
X001094Y022795D02*
X001965Y022795D01*
X001964Y022797D02*
X001096Y022797D01*
X001099Y022800D02*
X001963Y022800D01*
X001962Y022802D02*
X001101Y022802D01*
X001104Y022805D02*
X001961Y022805D01*
X001959Y022807D02*
X001106Y022807D01*
X001109Y022810D02*
X001958Y022810D01*
X001957Y022812D02*
X001111Y022812D01*
X001114Y022815D02*
X001956Y022815D01*
X001955Y022817D02*
X001116Y022817D01*
X001119Y022820D02*
X001954Y022820D01*
X001953Y022822D02*
X001121Y022822D01*
X001124Y022825D02*
X001952Y022825D01*
X001951Y022827D02*
X001126Y022827D01*
X001129Y022829D02*
X001950Y022829D01*
X001949Y022832D02*
X001131Y022832D01*
X001134Y022834D02*
X001948Y022834D01*
X001947Y022837D02*
X001136Y022837D01*
X001139Y022839D02*
X001946Y022839D01*
X001945Y022842D02*
X001141Y022842D01*
X001144Y022844D02*
X001944Y022844D01*
X001942Y022847D02*
X001146Y022847D01*
X001149Y022849D02*
X001941Y022849D01*
X001940Y022852D02*
X001151Y022852D01*
X001154Y022854D02*
X001939Y022854D01*
X001938Y022857D02*
X001156Y022857D01*
X001158Y022859D02*
X001937Y022859D01*
X001936Y022862D02*
X001161Y022862D01*
X001163Y022864D02*
X001935Y022864D01*
X001934Y022867D02*
X001166Y022867D01*
X001168Y022869D02*
X001933Y022869D01*
X001932Y022872D02*
X001171Y022872D01*
X001173Y022874D02*
X001931Y022874D01*
X001930Y022877D02*
X001176Y022877D01*
X001178Y022879D02*
X001929Y022879D01*
X001928Y022882D02*
X001181Y022882D01*
X001183Y022884D02*
X001927Y022884D01*
X001925Y022887D02*
X001186Y022887D01*
X001188Y022889D02*
X001924Y022889D01*
X001923Y022891D02*
X001191Y022891D01*
X001193Y022894D02*
X001922Y022894D01*
X001921Y022896D02*
X001196Y022896D01*
X001198Y022899D02*
X001920Y022899D01*
X001919Y022901D02*
X001201Y022901D01*
X001203Y022904D02*
X001918Y022904D01*
X001917Y022906D02*
X001206Y022906D01*
X001208Y022909D02*
X001916Y022909D01*
X001915Y022911D02*
X001211Y022911D01*
X001213Y022914D02*
X001914Y022914D01*
X001913Y022916D02*
X001216Y022916D01*
X001218Y022919D02*
X001912Y022919D01*
X001911Y022921D02*
X001220Y022921D01*
X001223Y022924D02*
X001910Y022924D01*
X001908Y022926D02*
X001225Y022926D01*
X001228Y022929D02*
X001907Y022929D01*
X001906Y022931D02*
X001230Y022931D01*
X001233Y022934D02*
X001905Y022934D01*
X001904Y022936D02*
X001235Y022936D01*
X001238Y022939D02*
X001903Y022939D01*
X001902Y022941D02*
X001240Y022941D01*
X001243Y022944D02*
X001901Y022944D01*
X001900Y022946D02*
X001245Y022946D01*
X001248Y022949D02*
X001899Y022949D01*
X001898Y022951D02*
X001250Y022951D01*
X001253Y022954D02*
X001897Y022954D01*
X001896Y022956D02*
X001255Y022956D01*
X001258Y022958D02*
X001895Y022958D01*
X001894Y022961D02*
X001260Y022961D01*
X001263Y022963D02*
X001893Y022963D01*
X001891Y022966D02*
X001265Y022966D01*
X001268Y022968D02*
X001890Y022968D01*
X001889Y022971D02*
X001270Y022971D01*
X001273Y022973D02*
X001888Y022973D01*
X001887Y022976D02*
X001275Y022976D01*
X001278Y022978D02*
X001886Y022978D01*
X001885Y022981D02*
X001280Y022981D01*
X001282Y022983D02*
X001884Y022983D01*
X001883Y022986D02*
X001285Y022986D01*
X001287Y022988D02*
X001882Y022988D01*
X001881Y022991D02*
X001290Y022991D01*
X001292Y022993D02*
X001880Y022993D01*
X001879Y022996D02*
X001295Y022996D01*
X001297Y022998D02*
X001878Y022998D01*
X001877Y023001D02*
X001300Y023001D01*
X001302Y023003D02*
X001876Y023003D01*
X001874Y023006D02*
X001305Y023006D01*
X001307Y023008D02*
X001873Y023008D01*
X001872Y023011D02*
X001310Y023011D01*
X001312Y023013D02*
X001871Y023013D01*
X001870Y023016D02*
X001315Y023016D01*
X001317Y023018D02*
X001869Y023018D01*
X001868Y023020D02*
X001320Y023020D01*
X001322Y023023D02*
X001867Y023023D01*
X001866Y023025D02*
X001325Y023025D01*
X001327Y023028D02*
X001865Y023028D01*
X001864Y023030D02*
X001330Y023030D01*
X001332Y023033D02*
X001863Y023033D01*
X001862Y023035D02*
X001335Y023035D01*
X001337Y023038D02*
X001861Y023038D01*
X001860Y023040D02*
X001340Y023040D01*
X001342Y023043D02*
X001859Y023043D01*
X001857Y023045D02*
X001344Y023045D01*
X001347Y023048D02*
X001856Y023048D01*
X001855Y023050D02*
X001349Y023050D01*
X001352Y023053D02*
X001854Y023053D01*
X001853Y023055D02*
X001354Y023055D01*
X001357Y023058D02*
X001852Y023058D01*
X001222Y021346D02*
X003169Y021346D01*
X003167Y021344D02*
X001225Y021344D01*
X001227Y021341D02*
X003164Y021341D01*
X003162Y021339D02*
X001230Y021339D01*
X001232Y021336D02*
X003159Y021336D01*
X003157Y021334D02*
X001235Y021334D01*
X001237Y021331D02*
X003154Y021331D01*
X003152Y021329D02*
X001240Y021329D01*
X001242Y021326D02*
X003149Y021326D01*
X003147Y021324D02*
X001245Y021324D01*
X001247Y021321D02*
X003144Y021321D01*
X003142Y021319D02*
X001250Y021319D01*
X001252Y021316D02*
X003139Y021316D01*
X003137Y021314D02*
X001254Y021314D01*
X001257Y021312D02*
X003134Y021312D01*
X003132Y021309D02*
X001259Y021309D01*
X001262Y021307D02*
X003129Y021307D01*
X003127Y021304D02*
X001264Y021304D01*
X001267Y021302D02*
X003124Y021302D01*
X003122Y021299D02*
X001269Y021299D01*
X001272Y021297D02*
X003119Y021297D01*
X003117Y021294D02*
X001274Y021294D01*
X001277Y021292D02*
X003115Y021292D01*
X003112Y021289D02*
X001279Y021289D01*
X001282Y021287D02*
X003110Y021287D01*
X003107Y021284D02*
X001284Y021284D01*
X001287Y021282D02*
X003105Y021282D01*
X003102Y021279D02*
X001289Y021279D01*
X001292Y021277D02*
X003100Y021277D01*
X003097Y021274D02*
X001294Y021274D01*
X001297Y021272D02*
X003095Y021272D01*
X003092Y021269D02*
X001299Y021269D01*
X001302Y021267D02*
X003090Y021267D01*
X003087Y021264D02*
X001304Y021264D01*
X001307Y021262D02*
X003085Y021262D01*
X003082Y021259D02*
X001309Y021259D01*
X001312Y021257D02*
X003080Y021257D01*
X003077Y021254D02*
X001314Y021254D01*
X001316Y021252D02*
X003075Y021252D01*
X003072Y021250D02*
X001319Y021250D01*
X001321Y021247D02*
X003070Y021247D01*
X003067Y021245D02*
X001324Y021245D01*
X001326Y021242D02*
X003065Y021242D01*
X003062Y021240D02*
X001329Y021240D01*
X001331Y021237D02*
X003060Y021237D01*
X003057Y021235D02*
X001334Y021235D01*
X001336Y021232D02*
X003055Y021232D01*
X003053Y021230D02*
X001339Y021230D01*
X001341Y021227D02*
X003050Y021227D01*
X003048Y021225D02*
X001344Y021225D01*
X001346Y021222D02*
X003045Y021222D01*
X003043Y021220D02*
X001349Y021220D01*
X001351Y021217D02*
X003040Y021217D01*
X003038Y021215D02*
X001354Y021215D01*
X001356Y021212D02*
X003035Y021212D01*
X003033Y021210D02*
X001359Y021210D01*
M02*
