G75*
G70*
%OFA0B0*%
%FSLAX24Y24*%
%IPPOS*%
%LPD*%
%AMOC8*
5,1,8,0,0,1.08239X$1,22.5*
%
%ADD10C,0.0000*%
D10*
X000210Y000202D02*
X000210Y039572D01*
X095486Y039572D01*
X095486Y000202D01*
X000210Y000202D01*
X002356Y002957D02*
X002358Y003006D01*
X002364Y003055D01*
X002374Y003103D01*
X002387Y003150D01*
X002405Y003196D01*
X002426Y003240D01*
X002450Y003283D01*
X002478Y003323D01*
X002509Y003362D01*
X002543Y003397D01*
X002580Y003430D01*
X002619Y003459D01*
X002661Y003485D01*
X002704Y003508D01*
X002750Y003527D01*
X002796Y003543D01*
X002844Y003555D01*
X002892Y003563D01*
X002941Y003567D01*
X002991Y003567D01*
X003040Y003563D01*
X003088Y003555D01*
X003136Y003543D01*
X003182Y003527D01*
X003228Y003508D01*
X003271Y003485D01*
X003313Y003459D01*
X003352Y003430D01*
X003389Y003397D01*
X003423Y003362D01*
X003454Y003323D01*
X003482Y003283D01*
X003506Y003240D01*
X003527Y003196D01*
X003545Y003150D01*
X003558Y003103D01*
X003568Y003055D01*
X003574Y003006D01*
X003576Y002957D01*
X003574Y002908D01*
X003568Y002859D01*
X003558Y002811D01*
X003545Y002764D01*
X003527Y002718D01*
X003506Y002674D01*
X003482Y002631D01*
X003454Y002591D01*
X003423Y002552D01*
X003389Y002517D01*
X003352Y002484D01*
X003313Y002455D01*
X003271Y002429D01*
X003228Y002406D01*
X003182Y002387D01*
X003136Y002371D01*
X003088Y002359D01*
X003040Y002351D01*
X002991Y002347D01*
X002941Y002347D01*
X002892Y002351D01*
X002844Y002359D01*
X002796Y002371D01*
X002750Y002387D01*
X002704Y002406D01*
X002661Y002429D01*
X002619Y002455D01*
X002580Y002484D01*
X002543Y002517D01*
X002509Y002552D01*
X002478Y002591D01*
X002450Y002631D01*
X002426Y002674D01*
X002405Y002718D01*
X002387Y002764D01*
X002374Y002811D01*
X002364Y002859D01*
X002358Y002908D01*
X002356Y002957D01*
X002898Y010763D02*
X002900Y010803D01*
X002906Y010844D01*
X002916Y010883D01*
X002929Y010921D01*
X002947Y010958D01*
X002968Y010992D01*
X002992Y011025D01*
X003019Y011055D01*
X003049Y011082D01*
X003082Y011106D01*
X003116Y011127D01*
X003153Y011145D01*
X003191Y011158D01*
X003230Y011168D01*
X003271Y011174D01*
X003311Y011176D01*
X003351Y011174D01*
X003392Y011168D01*
X003431Y011158D01*
X003469Y011145D01*
X003506Y011127D01*
X003540Y011106D01*
X003573Y011082D01*
X003603Y011055D01*
X003630Y011025D01*
X003654Y010992D01*
X003675Y010958D01*
X003693Y010921D01*
X003706Y010883D01*
X003716Y010844D01*
X003722Y010803D01*
X003724Y010763D01*
X003722Y010723D01*
X003716Y010682D01*
X003706Y010643D01*
X003693Y010605D01*
X003675Y010568D01*
X003654Y010534D01*
X003630Y010501D01*
X003603Y010471D01*
X003573Y010444D01*
X003540Y010420D01*
X003506Y010399D01*
X003469Y010381D01*
X003431Y010368D01*
X003392Y010358D01*
X003351Y010352D01*
X003311Y010350D01*
X003271Y010352D01*
X003230Y010358D01*
X003191Y010368D01*
X003153Y010381D01*
X003116Y010399D01*
X003082Y010420D01*
X003049Y010444D01*
X003019Y010471D01*
X002992Y010501D01*
X002968Y010534D01*
X002947Y010568D01*
X002929Y010605D01*
X002916Y010643D01*
X002906Y010682D01*
X002900Y010723D01*
X002898Y010763D01*
X018646Y010763D02*
X018648Y010803D01*
X018654Y010844D01*
X018664Y010883D01*
X018677Y010921D01*
X018695Y010958D01*
X018716Y010992D01*
X018740Y011025D01*
X018767Y011055D01*
X018797Y011082D01*
X018830Y011106D01*
X018864Y011127D01*
X018901Y011145D01*
X018939Y011158D01*
X018978Y011168D01*
X019019Y011174D01*
X019059Y011176D01*
X019099Y011174D01*
X019140Y011168D01*
X019179Y011158D01*
X019217Y011145D01*
X019254Y011127D01*
X019288Y011106D01*
X019321Y011082D01*
X019351Y011055D01*
X019378Y011025D01*
X019402Y010992D01*
X019423Y010958D01*
X019441Y010921D01*
X019454Y010883D01*
X019464Y010844D01*
X019470Y010803D01*
X019472Y010763D01*
X019470Y010723D01*
X019464Y010682D01*
X019454Y010643D01*
X019441Y010605D01*
X019423Y010568D01*
X019402Y010534D01*
X019378Y010501D01*
X019351Y010471D01*
X019321Y010444D01*
X019288Y010420D01*
X019254Y010399D01*
X019217Y010381D01*
X019179Y010368D01*
X019140Y010358D01*
X019099Y010352D01*
X019059Y010350D01*
X019019Y010352D01*
X018978Y010358D01*
X018939Y010368D01*
X018901Y010381D01*
X018864Y010399D01*
X018830Y010420D01*
X018797Y010444D01*
X018767Y010471D01*
X018740Y010501D01*
X018716Y010534D01*
X018695Y010568D01*
X018677Y010605D01*
X018664Y010643D01*
X018654Y010682D01*
X018648Y010723D01*
X018646Y010763D01*
X021398Y010735D02*
X021400Y010775D01*
X021406Y010816D01*
X021416Y010855D01*
X021429Y010893D01*
X021447Y010930D01*
X021468Y010964D01*
X021492Y010997D01*
X021519Y011027D01*
X021549Y011054D01*
X021582Y011078D01*
X021616Y011099D01*
X021653Y011117D01*
X021691Y011130D01*
X021730Y011140D01*
X021771Y011146D01*
X021811Y011148D01*
X021851Y011146D01*
X021892Y011140D01*
X021931Y011130D01*
X021969Y011117D01*
X022006Y011099D01*
X022040Y011078D01*
X022073Y011054D01*
X022103Y011027D01*
X022130Y010997D01*
X022154Y010964D01*
X022175Y010930D01*
X022193Y010893D01*
X022206Y010855D01*
X022216Y010816D01*
X022222Y010775D01*
X022224Y010735D01*
X022222Y010695D01*
X022216Y010654D01*
X022206Y010615D01*
X022193Y010577D01*
X022175Y010540D01*
X022154Y010506D01*
X022130Y010473D01*
X022103Y010443D01*
X022073Y010416D01*
X022040Y010392D01*
X022006Y010371D01*
X021969Y010353D01*
X021931Y010340D01*
X021892Y010330D01*
X021851Y010324D01*
X021811Y010322D01*
X021771Y010324D01*
X021730Y010330D01*
X021691Y010340D01*
X021653Y010353D01*
X021616Y010371D01*
X021582Y010392D01*
X021549Y010416D01*
X021519Y010443D01*
X021492Y010473D01*
X021468Y010506D01*
X021447Y010540D01*
X021429Y010577D01*
X021416Y010615D01*
X021406Y010654D01*
X021400Y010695D01*
X021398Y010735D01*
X037146Y010735D02*
X037148Y010775D01*
X037154Y010816D01*
X037164Y010855D01*
X037177Y010893D01*
X037195Y010930D01*
X037216Y010964D01*
X037240Y010997D01*
X037267Y011027D01*
X037297Y011054D01*
X037330Y011078D01*
X037364Y011099D01*
X037401Y011117D01*
X037439Y011130D01*
X037478Y011140D01*
X037519Y011146D01*
X037559Y011148D01*
X037599Y011146D01*
X037640Y011140D01*
X037679Y011130D01*
X037717Y011117D01*
X037754Y011099D01*
X037788Y011078D01*
X037821Y011054D01*
X037851Y011027D01*
X037878Y010997D01*
X037902Y010964D01*
X037923Y010930D01*
X037941Y010893D01*
X037954Y010855D01*
X037964Y010816D01*
X037970Y010775D01*
X037972Y010735D01*
X037970Y010695D01*
X037964Y010654D01*
X037954Y010615D01*
X037941Y010577D01*
X037923Y010540D01*
X037902Y010506D01*
X037878Y010473D01*
X037851Y010443D01*
X037821Y010416D01*
X037788Y010392D01*
X037754Y010371D01*
X037717Y010353D01*
X037679Y010340D01*
X037640Y010330D01*
X037599Y010324D01*
X037559Y010322D01*
X037519Y010324D01*
X037478Y010330D01*
X037439Y010340D01*
X037401Y010353D01*
X037364Y010371D01*
X037330Y010392D01*
X037297Y010416D01*
X037267Y010443D01*
X037240Y010473D01*
X037216Y010506D01*
X037195Y010540D01*
X037177Y010577D01*
X037164Y010615D01*
X037154Y010654D01*
X037148Y010695D01*
X037146Y010735D01*
X039803Y010727D02*
X039805Y010767D01*
X039811Y010808D01*
X039821Y010847D01*
X039834Y010885D01*
X039852Y010922D01*
X039873Y010956D01*
X039897Y010989D01*
X039924Y011019D01*
X039954Y011046D01*
X039987Y011070D01*
X040021Y011091D01*
X040058Y011109D01*
X040096Y011122D01*
X040135Y011132D01*
X040176Y011138D01*
X040216Y011140D01*
X040256Y011138D01*
X040297Y011132D01*
X040336Y011122D01*
X040374Y011109D01*
X040411Y011091D01*
X040445Y011070D01*
X040478Y011046D01*
X040508Y011019D01*
X040535Y010989D01*
X040559Y010956D01*
X040580Y010922D01*
X040598Y010885D01*
X040611Y010847D01*
X040621Y010808D01*
X040627Y010767D01*
X040629Y010727D01*
X040627Y010687D01*
X040621Y010646D01*
X040611Y010607D01*
X040598Y010569D01*
X040580Y010532D01*
X040559Y010498D01*
X040535Y010465D01*
X040508Y010435D01*
X040478Y010408D01*
X040445Y010384D01*
X040411Y010363D01*
X040374Y010345D01*
X040336Y010332D01*
X040297Y010322D01*
X040256Y010316D01*
X040216Y010314D01*
X040176Y010316D01*
X040135Y010322D01*
X040096Y010332D01*
X040058Y010345D01*
X040021Y010363D01*
X039987Y010384D01*
X039954Y010408D01*
X039924Y010435D01*
X039897Y010465D01*
X039873Y010498D01*
X039852Y010532D01*
X039834Y010569D01*
X039821Y010607D01*
X039811Y010646D01*
X039805Y010687D01*
X039803Y010727D01*
X055551Y010727D02*
X055553Y010767D01*
X055559Y010808D01*
X055569Y010847D01*
X055582Y010885D01*
X055600Y010922D01*
X055621Y010956D01*
X055645Y010989D01*
X055672Y011019D01*
X055702Y011046D01*
X055735Y011070D01*
X055769Y011091D01*
X055806Y011109D01*
X055844Y011122D01*
X055883Y011132D01*
X055924Y011138D01*
X055964Y011140D01*
X056004Y011138D01*
X056045Y011132D01*
X056084Y011122D01*
X056122Y011109D01*
X056159Y011091D01*
X056193Y011070D01*
X056226Y011046D01*
X056256Y011019D01*
X056283Y010989D01*
X056307Y010956D01*
X056328Y010922D01*
X056346Y010885D01*
X056359Y010847D01*
X056369Y010808D01*
X056375Y010767D01*
X056377Y010727D01*
X056375Y010687D01*
X056369Y010646D01*
X056359Y010607D01*
X056346Y010569D01*
X056328Y010532D01*
X056307Y010498D01*
X056283Y010465D01*
X056256Y010435D01*
X056226Y010408D01*
X056193Y010384D01*
X056159Y010363D01*
X056122Y010345D01*
X056084Y010332D01*
X056045Y010322D01*
X056004Y010316D01*
X055964Y010314D01*
X055924Y010316D01*
X055883Y010322D01*
X055844Y010332D01*
X055806Y010345D01*
X055769Y010363D01*
X055735Y010384D01*
X055702Y010408D01*
X055672Y010435D01*
X055645Y010465D01*
X055621Y010498D01*
X055600Y010532D01*
X055582Y010569D01*
X055569Y010607D01*
X055559Y010646D01*
X055553Y010687D01*
X055551Y010727D01*
X058122Y010747D02*
X058124Y010787D01*
X058130Y010828D01*
X058140Y010867D01*
X058153Y010905D01*
X058171Y010942D01*
X058192Y010976D01*
X058216Y011009D01*
X058243Y011039D01*
X058273Y011066D01*
X058306Y011090D01*
X058340Y011111D01*
X058377Y011129D01*
X058415Y011142D01*
X058454Y011152D01*
X058495Y011158D01*
X058535Y011160D01*
X058575Y011158D01*
X058616Y011152D01*
X058655Y011142D01*
X058693Y011129D01*
X058730Y011111D01*
X058764Y011090D01*
X058797Y011066D01*
X058827Y011039D01*
X058854Y011009D01*
X058878Y010976D01*
X058899Y010942D01*
X058917Y010905D01*
X058930Y010867D01*
X058940Y010828D01*
X058946Y010787D01*
X058948Y010747D01*
X058946Y010707D01*
X058940Y010666D01*
X058930Y010627D01*
X058917Y010589D01*
X058899Y010552D01*
X058878Y010518D01*
X058854Y010485D01*
X058827Y010455D01*
X058797Y010428D01*
X058764Y010404D01*
X058730Y010383D01*
X058693Y010365D01*
X058655Y010352D01*
X058616Y010342D01*
X058575Y010336D01*
X058535Y010334D01*
X058495Y010336D01*
X058454Y010342D01*
X058415Y010352D01*
X058377Y010365D01*
X058340Y010383D01*
X058306Y010404D01*
X058273Y010428D01*
X058243Y010455D01*
X058216Y010485D01*
X058192Y010518D01*
X058171Y010552D01*
X058153Y010589D01*
X058140Y010627D01*
X058130Y010666D01*
X058124Y010707D01*
X058122Y010747D01*
X073870Y010747D02*
X073872Y010787D01*
X073878Y010828D01*
X073888Y010867D01*
X073901Y010905D01*
X073919Y010942D01*
X073940Y010976D01*
X073964Y011009D01*
X073991Y011039D01*
X074021Y011066D01*
X074054Y011090D01*
X074088Y011111D01*
X074125Y011129D01*
X074163Y011142D01*
X074202Y011152D01*
X074243Y011158D01*
X074283Y011160D01*
X074323Y011158D01*
X074364Y011152D01*
X074403Y011142D01*
X074441Y011129D01*
X074478Y011111D01*
X074512Y011090D01*
X074545Y011066D01*
X074575Y011039D01*
X074602Y011009D01*
X074626Y010976D01*
X074647Y010942D01*
X074665Y010905D01*
X074678Y010867D01*
X074688Y010828D01*
X074694Y010787D01*
X074696Y010747D01*
X074694Y010707D01*
X074688Y010666D01*
X074678Y010627D01*
X074665Y010589D01*
X074647Y010552D01*
X074626Y010518D01*
X074602Y010485D01*
X074575Y010455D01*
X074545Y010428D01*
X074512Y010404D01*
X074478Y010383D01*
X074441Y010365D01*
X074403Y010352D01*
X074364Y010342D01*
X074323Y010336D01*
X074283Y010334D01*
X074243Y010336D01*
X074202Y010342D01*
X074163Y010352D01*
X074125Y010365D01*
X074088Y010383D01*
X074054Y010404D01*
X074021Y010428D01*
X073991Y010455D01*
X073964Y010485D01*
X073940Y010518D01*
X073919Y010552D01*
X073901Y010589D01*
X073888Y010627D01*
X073878Y010666D01*
X073872Y010707D01*
X073870Y010747D01*
X076567Y010719D02*
X076569Y010759D01*
X076575Y010800D01*
X076585Y010839D01*
X076598Y010877D01*
X076616Y010914D01*
X076637Y010948D01*
X076661Y010981D01*
X076688Y011011D01*
X076718Y011038D01*
X076751Y011062D01*
X076785Y011083D01*
X076822Y011101D01*
X076860Y011114D01*
X076899Y011124D01*
X076940Y011130D01*
X076980Y011132D01*
X077020Y011130D01*
X077061Y011124D01*
X077100Y011114D01*
X077138Y011101D01*
X077175Y011083D01*
X077209Y011062D01*
X077242Y011038D01*
X077272Y011011D01*
X077299Y010981D01*
X077323Y010948D01*
X077344Y010914D01*
X077362Y010877D01*
X077375Y010839D01*
X077385Y010800D01*
X077391Y010759D01*
X077393Y010719D01*
X077391Y010679D01*
X077385Y010638D01*
X077375Y010599D01*
X077362Y010561D01*
X077344Y010524D01*
X077323Y010490D01*
X077299Y010457D01*
X077272Y010427D01*
X077242Y010400D01*
X077209Y010376D01*
X077175Y010355D01*
X077138Y010337D01*
X077100Y010324D01*
X077061Y010314D01*
X077020Y010308D01*
X076980Y010306D01*
X076940Y010308D01*
X076899Y010314D01*
X076860Y010324D01*
X076822Y010337D01*
X076785Y010355D01*
X076751Y010376D01*
X076718Y010400D01*
X076688Y010427D01*
X076661Y010457D01*
X076637Y010490D01*
X076616Y010524D01*
X076598Y010561D01*
X076585Y010599D01*
X076575Y010638D01*
X076569Y010679D01*
X076567Y010719D01*
X092315Y010719D02*
X092317Y010759D01*
X092323Y010800D01*
X092333Y010839D01*
X092346Y010877D01*
X092364Y010914D01*
X092385Y010948D01*
X092409Y010981D01*
X092436Y011011D01*
X092466Y011038D01*
X092499Y011062D01*
X092533Y011083D01*
X092570Y011101D01*
X092608Y011114D01*
X092647Y011124D01*
X092688Y011130D01*
X092728Y011132D01*
X092768Y011130D01*
X092809Y011124D01*
X092848Y011114D01*
X092886Y011101D01*
X092923Y011083D01*
X092957Y011062D01*
X092990Y011038D01*
X093020Y011011D01*
X093047Y010981D01*
X093071Y010948D01*
X093092Y010914D01*
X093110Y010877D01*
X093123Y010839D01*
X093133Y010800D01*
X093139Y010759D01*
X093141Y010719D01*
X093139Y010679D01*
X093133Y010638D01*
X093123Y010599D01*
X093110Y010561D01*
X093092Y010524D01*
X093071Y010490D01*
X093047Y010457D01*
X093020Y010427D01*
X092990Y010400D01*
X092957Y010376D01*
X092923Y010355D01*
X092886Y010337D01*
X092848Y010324D01*
X092809Y010314D01*
X092768Y010308D01*
X092728Y010306D01*
X092688Y010308D01*
X092647Y010314D01*
X092608Y010324D01*
X092570Y010337D01*
X092533Y010355D01*
X092499Y010376D01*
X092466Y010400D01*
X092436Y010427D01*
X092409Y010457D01*
X092385Y010490D01*
X092364Y010524D01*
X092346Y010561D01*
X092333Y010599D01*
X092323Y010638D01*
X092317Y010679D01*
X092315Y010719D01*
X092120Y002957D02*
X092122Y003006D01*
X092128Y003055D01*
X092138Y003103D01*
X092151Y003150D01*
X092169Y003196D01*
X092190Y003240D01*
X092214Y003283D01*
X092242Y003323D01*
X092273Y003362D01*
X092307Y003397D01*
X092344Y003430D01*
X092383Y003459D01*
X092425Y003485D01*
X092468Y003508D01*
X092514Y003527D01*
X092560Y003543D01*
X092608Y003555D01*
X092656Y003563D01*
X092705Y003567D01*
X092755Y003567D01*
X092804Y003563D01*
X092852Y003555D01*
X092900Y003543D01*
X092946Y003527D01*
X092992Y003508D01*
X093035Y003485D01*
X093077Y003459D01*
X093116Y003430D01*
X093153Y003397D01*
X093187Y003362D01*
X093218Y003323D01*
X093246Y003283D01*
X093270Y003240D01*
X093291Y003196D01*
X093309Y003150D01*
X093322Y003103D01*
X093332Y003055D01*
X093338Y003006D01*
X093340Y002957D01*
X093338Y002908D01*
X093332Y002859D01*
X093322Y002811D01*
X093309Y002764D01*
X093291Y002718D01*
X093270Y002674D01*
X093246Y002631D01*
X093218Y002591D01*
X093187Y002552D01*
X093153Y002517D01*
X093116Y002484D01*
X093077Y002455D01*
X093035Y002429D01*
X092992Y002406D01*
X092946Y002387D01*
X092900Y002371D01*
X092852Y002359D01*
X092804Y002351D01*
X092755Y002347D01*
X092705Y002347D01*
X092656Y002351D01*
X092608Y002359D01*
X092560Y002371D01*
X092514Y002387D01*
X092468Y002406D01*
X092425Y002429D01*
X092383Y002455D01*
X092344Y002484D01*
X092307Y002517D01*
X092273Y002552D01*
X092242Y002591D01*
X092214Y002631D01*
X092190Y002674D01*
X092169Y002718D01*
X092151Y002764D01*
X092138Y002811D01*
X092128Y002859D01*
X092122Y002908D01*
X092120Y002957D01*
X092315Y018593D02*
X092317Y018633D01*
X092323Y018674D01*
X092333Y018713D01*
X092346Y018751D01*
X092364Y018788D01*
X092385Y018822D01*
X092409Y018855D01*
X092436Y018885D01*
X092466Y018912D01*
X092499Y018936D01*
X092533Y018957D01*
X092570Y018975D01*
X092608Y018988D01*
X092647Y018998D01*
X092688Y019004D01*
X092728Y019006D01*
X092768Y019004D01*
X092809Y018998D01*
X092848Y018988D01*
X092886Y018975D01*
X092923Y018957D01*
X092957Y018936D01*
X092990Y018912D01*
X093020Y018885D01*
X093047Y018855D01*
X093071Y018822D01*
X093092Y018788D01*
X093110Y018751D01*
X093123Y018713D01*
X093133Y018674D01*
X093139Y018633D01*
X093141Y018593D01*
X093139Y018553D01*
X093133Y018512D01*
X093123Y018473D01*
X093110Y018435D01*
X093092Y018398D01*
X093071Y018364D01*
X093047Y018331D01*
X093020Y018301D01*
X092990Y018274D01*
X092957Y018250D01*
X092923Y018229D01*
X092886Y018211D01*
X092848Y018198D01*
X092809Y018188D01*
X092768Y018182D01*
X092728Y018180D01*
X092688Y018182D01*
X092647Y018188D01*
X092608Y018198D01*
X092570Y018211D01*
X092533Y018229D01*
X092499Y018250D01*
X092466Y018274D01*
X092436Y018301D01*
X092409Y018331D01*
X092385Y018364D01*
X092364Y018398D01*
X092346Y018435D01*
X092333Y018473D01*
X092323Y018512D01*
X092317Y018553D01*
X092315Y018593D01*
X076567Y018593D02*
X076569Y018633D01*
X076575Y018674D01*
X076585Y018713D01*
X076598Y018751D01*
X076616Y018788D01*
X076637Y018822D01*
X076661Y018855D01*
X076688Y018885D01*
X076718Y018912D01*
X076751Y018936D01*
X076785Y018957D01*
X076822Y018975D01*
X076860Y018988D01*
X076899Y018998D01*
X076940Y019004D01*
X076980Y019006D01*
X077020Y019004D01*
X077061Y018998D01*
X077100Y018988D01*
X077138Y018975D01*
X077175Y018957D01*
X077209Y018936D01*
X077242Y018912D01*
X077272Y018885D01*
X077299Y018855D01*
X077323Y018822D01*
X077344Y018788D01*
X077362Y018751D01*
X077375Y018713D01*
X077385Y018674D01*
X077391Y018633D01*
X077393Y018593D01*
X077391Y018553D01*
X077385Y018512D01*
X077375Y018473D01*
X077362Y018435D01*
X077344Y018398D01*
X077323Y018364D01*
X077299Y018331D01*
X077272Y018301D01*
X077242Y018274D01*
X077209Y018250D01*
X077175Y018229D01*
X077138Y018211D01*
X077100Y018198D01*
X077061Y018188D01*
X077020Y018182D01*
X076980Y018180D01*
X076940Y018182D01*
X076899Y018188D01*
X076860Y018198D01*
X076822Y018211D01*
X076785Y018229D01*
X076751Y018250D01*
X076718Y018274D01*
X076688Y018301D01*
X076661Y018331D01*
X076637Y018364D01*
X076616Y018398D01*
X076598Y018435D01*
X076585Y018473D01*
X076575Y018512D01*
X076569Y018553D01*
X076567Y018593D01*
X073870Y018621D02*
X073872Y018661D01*
X073878Y018702D01*
X073888Y018741D01*
X073901Y018779D01*
X073919Y018816D01*
X073940Y018850D01*
X073964Y018883D01*
X073991Y018913D01*
X074021Y018940D01*
X074054Y018964D01*
X074088Y018985D01*
X074125Y019003D01*
X074163Y019016D01*
X074202Y019026D01*
X074243Y019032D01*
X074283Y019034D01*
X074323Y019032D01*
X074364Y019026D01*
X074403Y019016D01*
X074441Y019003D01*
X074478Y018985D01*
X074512Y018964D01*
X074545Y018940D01*
X074575Y018913D01*
X074602Y018883D01*
X074626Y018850D01*
X074647Y018816D01*
X074665Y018779D01*
X074678Y018741D01*
X074688Y018702D01*
X074694Y018661D01*
X074696Y018621D01*
X074694Y018581D01*
X074688Y018540D01*
X074678Y018501D01*
X074665Y018463D01*
X074647Y018426D01*
X074626Y018392D01*
X074602Y018359D01*
X074575Y018329D01*
X074545Y018302D01*
X074512Y018278D01*
X074478Y018257D01*
X074441Y018239D01*
X074403Y018226D01*
X074364Y018216D01*
X074323Y018210D01*
X074283Y018208D01*
X074243Y018210D01*
X074202Y018216D01*
X074163Y018226D01*
X074125Y018239D01*
X074088Y018257D01*
X074054Y018278D01*
X074021Y018302D01*
X073991Y018329D01*
X073964Y018359D01*
X073940Y018392D01*
X073919Y018426D01*
X073901Y018463D01*
X073888Y018501D01*
X073878Y018540D01*
X073872Y018581D01*
X073870Y018621D01*
X058122Y018621D02*
X058124Y018661D01*
X058130Y018702D01*
X058140Y018741D01*
X058153Y018779D01*
X058171Y018816D01*
X058192Y018850D01*
X058216Y018883D01*
X058243Y018913D01*
X058273Y018940D01*
X058306Y018964D01*
X058340Y018985D01*
X058377Y019003D01*
X058415Y019016D01*
X058454Y019026D01*
X058495Y019032D01*
X058535Y019034D01*
X058575Y019032D01*
X058616Y019026D01*
X058655Y019016D01*
X058693Y019003D01*
X058730Y018985D01*
X058764Y018964D01*
X058797Y018940D01*
X058827Y018913D01*
X058854Y018883D01*
X058878Y018850D01*
X058899Y018816D01*
X058917Y018779D01*
X058930Y018741D01*
X058940Y018702D01*
X058946Y018661D01*
X058948Y018621D01*
X058946Y018581D01*
X058940Y018540D01*
X058930Y018501D01*
X058917Y018463D01*
X058899Y018426D01*
X058878Y018392D01*
X058854Y018359D01*
X058827Y018329D01*
X058797Y018302D01*
X058764Y018278D01*
X058730Y018257D01*
X058693Y018239D01*
X058655Y018226D01*
X058616Y018216D01*
X058575Y018210D01*
X058535Y018208D01*
X058495Y018210D01*
X058454Y018216D01*
X058415Y018226D01*
X058377Y018239D01*
X058340Y018257D01*
X058306Y018278D01*
X058273Y018302D01*
X058243Y018329D01*
X058216Y018359D01*
X058192Y018392D01*
X058171Y018426D01*
X058153Y018463D01*
X058140Y018501D01*
X058130Y018540D01*
X058124Y018581D01*
X058122Y018621D01*
X055551Y018601D02*
X055553Y018641D01*
X055559Y018682D01*
X055569Y018721D01*
X055582Y018759D01*
X055600Y018796D01*
X055621Y018830D01*
X055645Y018863D01*
X055672Y018893D01*
X055702Y018920D01*
X055735Y018944D01*
X055769Y018965D01*
X055806Y018983D01*
X055844Y018996D01*
X055883Y019006D01*
X055924Y019012D01*
X055964Y019014D01*
X056004Y019012D01*
X056045Y019006D01*
X056084Y018996D01*
X056122Y018983D01*
X056159Y018965D01*
X056193Y018944D01*
X056226Y018920D01*
X056256Y018893D01*
X056283Y018863D01*
X056307Y018830D01*
X056328Y018796D01*
X056346Y018759D01*
X056359Y018721D01*
X056369Y018682D01*
X056375Y018641D01*
X056377Y018601D01*
X056375Y018561D01*
X056369Y018520D01*
X056359Y018481D01*
X056346Y018443D01*
X056328Y018406D01*
X056307Y018372D01*
X056283Y018339D01*
X056256Y018309D01*
X056226Y018282D01*
X056193Y018258D01*
X056159Y018237D01*
X056122Y018219D01*
X056084Y018206D01*
X056045Y018196D01*
X056004Y018190D01*
X055964Y018188D01*
X055924Y018190D01*
X055883Y018196D01*
X055844Y018206D01*
X055806Y018219D01*
X055769Y018237D01*
X055735Y018258D01*
X055702Y018282D01*
X055672Y018309D01*
X055645Y018339D01*
X055621Y018372D01*
X055600Y018406D01*
X055582Y018443D01*
X055569Y018481D01*
X055559Y018520D01*
X055553Y018561D01*
X055551Y018601D01*
X047238Y020674D02*
X047240Y020723D01*
X047246Y020772D01*
X047256Y020820D01*
X047269Y020867D01*
X047287Y020913D01*
X047308Y020957D01*
X047332Y021000D01*
X047360Y021040D01*
X047391Y021079D01*
X047425Y021114D01*
X047462Y021147D01*
X047501Y021176D01*
X047543Y021202D01*
X047586Y021225D01*
X047632Y021244D01*
X047678Y021260D01*
X047726Y021272D01*
X047774Y021280D01*
X047823Y021284D01*
X047873Y021284D01*
X047922Y021280D01*
X047970Y021272D01*
X048018Y021260D01*
X048064Y021244D01*
X048110Y021225D01*
X048153Y021202D01*
X048195Y021176D01*
X048234Y021147D01*
X048271Y021114D01*
X048305Y021079D01*
X048336Y021040D01*
X048364Y021000D01*
X048388Y020957D01*
X048409Y020913D01*
X048427Y020867D01*
X048440Y020820D01*
X048450Y020772D01*
X048456Y020723D01*
X048458Y020674D01*
X048456Y020625D01*
X048450Y020576D01*
X048440Y020528D01*
X048427Y020481D01*
X048409Y020435D01*
X048388Y020391D01*
X048364Y020348D01*
X048336Y020308D01*
X048305Y020269D01*
X048271Y020234D01*
X048234Y020201D01*
X048195Y020172D01*
X048153Y020146D01*
X048110Y020123D01*
X048064Y020104D01*
X048018Y020088D01*
X047970Y020076D01*
X047922Y020068D01*
X047873Y020064D01*
X047823Y020064D01*
X047774Y020068D01*
X047726Y020076D01*
X047678Y020088D01*
X047632Y020104D01*
X047586Y020123D01*
X047543Y020146D01*
X047501Y020172D01*
X047462Y020201D01*
X047425Y020234D01*
X047391Y020269D01*
X047360Y020308D01*
X047332Y020348D01*
X047308Y020391D01*
X047287Y020435D01*
X047269Y020481D01*
X047256Y020528D01*
X047246Y020576D01*
X047240Y020625D01*
X047238Y020674D01*
X039803Y018601D02*
X039805Y018641D01*
X039811Y018682D01*
X039821Y018721D01*
X039834Y018759D01*
X039852Y018796D01*
X039873Y018830D01*
X039897Y018863D01*
X039924Y018893D01*
X039954Y018920D01*
X039987Y018944D01*
X040021Y018965D01*
X040058Y018983D01*
X040096Y018996D01*
X040135Y019006D01*
X040176Y019012D01*
X040216Y019014D01*
X040256Y019012D01*
X040297Y019006D01*
X040336Y018996D01*
X040374Y018983D01*
X040411Y018965D01*
X040445Y018944D01*
X040478Y018920D01*
X040508Y018893D01*
X040535Y018863D01*
X040559Y018830D01*
X040580Y018796D01*
X040598Y018759D01*
X040611Y018721D01*
X040621Y018682D01*
X040627Y018641D01*
X040629Y018601D01*
X040627Y018561D01*
X040621Y018520D01*
X040611Y018481D01*
X040598Y018443D01*
X040580Y018406D01*
X040559Y018372D01*
X040535Y018339D01*
X040508Y018309D01*
X040478Y018282D01*
X040445Y018258D01*
X040411Y018237D01*
X040374Y018219D01*
X040336Y018206D01*
X040297Y018196D01*
X040256Y018190D01*
X040216Y018188D01*
X040176Y018190D01*
X040135Y018196D01*
X040096Y018206D01*
X040058Y018219D01*
X040021Y018237D01*
X039987Y018258D01*
X039954Y018282D01*
X039924Y018309D01*
X039897Y018339D01*
X039873Y018372D01*
X039852Y018406D01*
X039834Y018443D01*
X039821Y018481D01*
X039811Y018520D01*
X039805Y018561D01*
X039803Y018601D01*
X037146Y018609D02*
X037148Y018649D01*
X037154Y018690D01*
X037164Y018729D01*
X037177Y018767D01*
X037195Y018804D01*
X037216Y018838D01*
X037240Y018871D01*
X037267Y018901D01*
X037297Y018928D01*
X037330Y018952D01*
X037364Y018973D01*
X037401Y018991D01*
X037439Y019004D01*
X037478Y019014D01*
X037519Y019020D01*
X037559Y019022D01*
X037599Y019020D01*
X037640Y019014D01*
X037679Y019004D01*
X037717Y018991D01*
X037754Y018973D01*
X037788Y018952D01*
X037821Y018928D01*
X037851Y018901D01*
X037878Y018871D01*
X037902Y018838D01*
X037923Y018804D01*
X037941Y018767D01*
X037954Y018729D01*
X037964Y018690D01*
X037970Y018649D01*
X037972Y018609D01*
X037970Y018569D01*
X037964Y018528D01*
X037954Y018489D01*
X037941Y018451D01*
X037923Y018414D01*
X037902Y018380D01*
X037878Y018347D01*
X037851Y018317D01*
X037821Y018290D01*
X037788Y018266D01*
X037754Y018245D01*
X037717Y018227D01*
X037679Y018214D01*
X037640Y018204D01*
X037599Y018198D01*
X037559Y018196D01*
X037519Y018198D01*
X037478Y018204D01*
X037439Y018214D01*
X037401Y018227D01*
X037364Y018245D01*
X037330Y018266D01*
X037297Y018290D01*
X037267Y018317D01*
X037240Y018347D01*
X037216Y018380D01*
X037195Y018414D01*
X037177Y018451D01*
X037164Y018489D01*
X037154Y018528D01*
X037148Y018569D01*
X037146Y018609D01*
X021398Y018609D02*
X021400Y018649D01*
X021406Y018690D01*
X021416Y018729D01*
X021429Y018767D01*
X021447Y018804D01*
X021468Y018838D01*
X021492Y018871D01*
X021519Y018901D01*
X021549Y018928D01*
X021582Y018952D01*
X021616Y018973D01*
X021653Y018991D01*
X021691Y019004D01*
X021730Y019014D01*
X021771Y019020D01*
X021811Y019022D01*
X021851Y019020D01*
X021892Y019014D01*
X021931Y019004D01*
X021969Y018991D01*
X022006Y018973D01*
X022040Y018952D01*
X022073Y018928D01*
X022103Y018901D01*
X022130Y018871D01*
X022154Y018838D01*
X022175Y018804D01*
X022193Y018767D01*
X022206Y018729D01*
X022216Y018690D01*
X022222Y018649D01*
X022224Y018609D01*
X022222Y018569D01*
X022216Y018528D01*
X022206Y018489D01*
X022193Y018451D01*
X022175Y018414D01*
X022154Y018380D01*
X022130Y018347D01*
X022103Y018317D01*
X022073Y018290D01*
X022040Y018266D01*
X022006Y018245D01*
X021969Y018227D01*
X021931Y018214D01*
X021892Y018204D01*
X021851Y018198D01*
X021811Y018196D01*
X021771Y018198D01*
X021730Y018204D01*
X021691Y018214D01*
X021653Y018227D01*
X021616Y018245D01*
X021582Y018266D01*
X021549Y018290D01*
X021519Y018317D01*
X021492Y018347D01*
X021468Y018380D01*
X021447Y018414D01*
X021429Y018451D01*
X021416Y018489D01*
X021406Y018528D01*
X021400Y018569D01*
X021398Y018609D01*
X018646Y018637D02*
X018648Y018677D01*
X018654Y018718D01*
X018664Y018757D01*
X018677Y018795D01*
X018695Y018832D01*
X018716Y018866D01*
X018740Y018899D01*
X018767Y018929D01*
X018797Y018956D01*
X018830Y018980D01*
X018864Y019001D01*
X018901Y019019D01*
X018939Y019032D01*
X018978Y019042D01*
X019019Y019048D01*
X019059Y019050D01*
X019099Y019048D01*
X019140Y019042D01*
X019179Y019032D01*
X019217Y019019D01*
X019254Y019001D01*
X019288Y018980D01*
X019321Y018956D01*
X019351Y018929D01*
X019378Y018899D01*
X019402Y018866D01*
X019423Y018832D01*
X019441Y018795D01*
X019454Y018757D01*
X019464Y018718D01*
X019470Y018677D01*
X019472Y018637D01*
X019470Y018597D01*
X019464Y018556D01*
X019454Y018517D01*
X019441Y018479D01*
X019423Y018442D01*
X019402Y018408D01*
X019378Y018375D01*
X019351Y018345D01*
X019321Y018318D01*
X019288Y018294D01*
X019254Y018273D01*
X019217Y018255D01*
X019179Y018242D01*
X019140Y018232D01*
X019099Y018226D01*
X019059Y018224D01*
X019019Y018226D01*
X018978Y018232D01*
X018939Y018242D01*
X018901Y018255D01*
X018864Y018273D01*
X018830Y018294D01*
X018797Y018318D01*
X018767Y018345D01*
X018740Y018375D01*
X018716Y018408D01*
X018695Y018442D01*
X018677Y018479D01*
X018664Y018517D01*
X018654Y018556D01*
X018648Y018597D01*
X018646Y018637D01*
X002898Y018637D02*
X002900Y018677D01*
X002906Y018718D01*
X002916Y018757D01*
X002929Y018795D01*
X002947Y018832D01*
X002968Y018866D01*
X002992Y018899D01*
X003019Y018929D01*
X003049Y018956D01*
X003082Y018980D01*
X003116Y019001D01*
X003153Y019019D01*
X003191Y019032D01*
X003230Y019042D01*
X003271Y019048D01*
X003311Y019050D01*
X003351Y019048D01*
X003392Y019042D01*
X003431Y019032D01*
X003469Y019019D01*
X003506Y019001D01*
X003540Y018980D01*
X003573Y018956D01*
X003603Y018929D01*
X003630Y018899D01*
X003654Y018866D01*
X003675Y018832D01*
X003693Y018795D01*
X003706Y018757D01*
X003716Y018718D01*
X003722Y018677D01*
X003724Y018637D01*
X003722Y018597D01*
X003716Y018556D01*
X003706Y018517D01*
X003693Y018479D01*
X003675Y018442D01*
X003654Y018408D01*
X003630Y018375D01*
X003603Y018345D01*
X003573Y018318D01*
X003540Y018294D01*
X003506Y018273D01*
X003469Y018255D01*
X003431Y018242D01*
X003392Y018232D01*
X003351Y018226D01*
X003311Y018224D01*
X003271Y018226D01*
X003230Y018232D01*
X003191Y018242D01*
X003153Y018255D01*
X003116Y018273D01*
X003082Y018294D01*
X003049Y018318D01*
X003019Y018345D01*
X002992Y018375D01*
X002968Y018408D01*
X002947Y018442D01*
X002929Y018479D01*
X002916Y018517D01*
X002906Y018556D01*
X002900Y018597D01*
X002898Y018637D01*
X002356Y036816D02*
X002358Y036865D01*
X002364Y036914D01*
X002374Y036962D01*
X002387Y037009D01*
X002405Y037055D01*
X002426Y037099D01*
X002450Y037142D01*
X002478Y037182D01*
X002509Y037221D01*
X002543Y037256D01*
X002580Y037289D01*
X002619Y037318D01*
X002661Y037344D01*
X002704Y037367D01*
X002750Y037386D01*
X002796Y037402D01*
X002844Y037414D01*
X002892Y037422D01*
X002941Y037426D01*
X002991Y037426D01*
X003040Y037422D01*
X003088Y037414D01*
X003136Y037402D01*
X003182Y037386D01*
X003228Y037367D01*
X003271Y037344D01*
X003313Y037318D01*
X003352Y037289D01*
X003389Y037256D01*
X003423Y037221D01*
X003454Y037182D01*
X003482Y037142D01*
X003506Y037099D01*
X003527Y037055D01*
X003545Y037009D01*
X003558Y036962D01*
X003568Y036914D01*
X003574Y036865D01*
X003576Y036816D01*
X003574Y036767D01*
X003568Y036718D01*
X003558Y036670D01*
X003545Y036623D01*
X003527Y036577D01*
X003506Y036533D01*
X003482Y036490D01*
X003454Y036450D01*
X003423Y036411D01*
X003389Y036376D01*
X003352Y036343D01*
X003313Y036314D01*
X003271Y036288D01*
X003228Y036265D01*
X003182Y036246D01*
X003136Y036230D01*
X003088Y036218D01*
X003040Y036210D01*
X002991Y036206D01*
X002941Y036206D01*
X002892Y036210D01*
X002844Y036218D01*
X002796Y036230D01*
X002750Y036246D01*
X002704Y036265D01*
X002661Y036288D01*
X002619Y036314D01*
X002580Y036343D01*
X002543Y036376D01*
X002509Y036411D01*
X002478Y036450D01*
X002450Y036490D01*
X002426Y036533D01*
X002405Y036577D01*
X002387Y036623D01*
X002374Y036670D01*
X002364Y036718D01*
X002358Y036767D01*
X002356Y036816D01*
X006804Y037631D02*
X006806Y037679D01*
X006812Y037727D01*
X006822Y037774D01*
X006835Y037820D01*
X006853Y037865D01*
X006873Y037909D01*
X006898Y037951D01*
X006926Y037990D01*
X006956Y038027D01*
X006990Y038061D01*
X007027Y038093D01*
X007065Y038122D01*
X007106Y038147D01*
X007149Y038169D01*
X007194Y038187D01*
X007240Y038201D01*
X007287Y038212D01*
X007335Y038219D01*
X007383Y038222D01*
X007431Y038221D01*
X007479Y038216D01*
X007527Y038207D01*
X007573Y038195D01*
X007618Y038178D01*
X007662Y038158D01*
X007704Y038135D01*
X007744Y038108D01*
X007782Y038078D01*
X007817Y038045D01*
X007849Y038009D01*
X007879Y037971D01*
X007905Y037930D01*
X007927Y037887D01*
X007947Y037843D01*
X007962Y037798D01*
X007974Y037751D01*
X007982Y037703D01*
X007986Y037655D01*
X007986Y037607D01*
X007982Y037559D01*
X007974Y037511D01*
X007962Y037464D01*
X007947Y037419D01*
X007927Y037375D01*
X007905Y037332D01*
X007879Y037291D01*
X007849Y037253D01*
X007817Y037217D01*
X007782Y037184D01*
X007744Y037154D01*
X007704Y037127D01*
X007662Y037104D01*
X007618Y037084D01*
X007573Y037067D01*
X007527Y037055D01*
X007479Y037046D01*
X007431Y037041D01*
X007383Y037040D01*
X007335Y037043D01*
X007287Y037050D01*
X007240Y037061D01*
X007194Y037075D01*
X007149Y037093D01*
X007106Y037115D01*
X007065Y037140D01*
X007027Y037169D01*
X006990Y037201D01*
X006956Y037235D01*
X006926Y037272D01*
X006898Y037311D01*
X006873Y037353D01*
X006853Y037397D01*
X006835Y037442D01*
X006822Y037488D01*
X006812Y037535D01*
X006806Y037583D01*
X006804Y037631D01*
X014678Y037631D02*
X014680Y037679D01*
X014686Y037727D01*
X014696Y037774D01*
X014709Y037820D01*
X014727Y037865D01*
X014747Y037909D01*
X014772Y037951D01*
X014800Y037990D01*
X014830Y038027D01*
X014864Y038061D01*
X014901Y038093D01*
X014939Y038122D01*
X014980Y038147D01*
X015023Y038169D01*
X015068Y038187D01*
X015114Y038201D01*
X015161Y038212D01*
X015209Y038219D01*
X015257Y038222D01*
X015305Y038221D01*
X015353Y038216D01*
X015401Y038207D01*
X015447Y038195D01*
X015492Y038178D01*
X015536Y038158D01*
X015578Y038135D01*
X015618Y038108D01*
X015656Y038078D01*
X015691Y038045D01*
X015723Y038009D01*
X015753Y037971D01*
X015779Y037930D01*
X015801Y037887D01*
X015821Y037843D01*
X015836Y037798D01*
X015848Y037751D01*
X015856Y037703D01*
X015860Y037655D01*
X015860Y037607D01*
X015856Y037559D01*
X015848Y037511D01*
X015836Y037464D01*
X015821Y037419D01*
X015801Y037375D01*
X015779Y037332D01*
X015753Y037291D01*
X015723Y037253D01*
X015691Y037217D01*
X015656Y037184D01*
X015618Y037154D01*
X015578Y037127D01*
X015536Y037104D01*
X015492Y037084D01*
X015447Y037067D01*
X015401Y037055D01*
X015353Y037046D01*
X015305Y037041D01*
X015257Y037040D01*
X015209Y037043D01*
X015161Y037050D01*
X015114Y037061D01*
X015068Y037075D01*
X015023Y037093D01*
X014980Y037115D01*
X014939Y037140D01*
X014901Y037169D01*
X014864Y037201D01*
X014830Y037235D01*
X014800Y037272D01*
X014772Y037311D01*
X014747Y037353D01*
X014727Y037397D01*
X014709Y037442D01*
X014696Y037488D01*
X014686Y037535D01*
X014680Y037583D01*
X014678Y037631D01*
X022356Y037631D02*
X022358Y037679D01*
X022364Y037727D01*
X022374Y037774D01*
X022387Y037820D01*
X022405Y037865D01*
X022425Y037909D01*
X022450Y037951D01*
X022478Y037990D01*
X022508Y038027D01*
X022542Y038061D01*
X022579Y038093D01*
X022617Y038122D01*
X022658Y038147D01*
X022701Y038169D01*
X022746Y038187D01*
X022792Y038201D01*
X022839Y038212D01*
X022887Y038219D01*
X022935Y038222D01*
X022983Y038221D01*
X023031Y038216D01*
X023079Y038207D01*
X023125Y038195D01*
X023170Y038178D01*
X023214Y038158D01*
X023256Y038135D01*
X023296Y038108D01*
X023334Y038078D01*
X023369Y038045D01*
X023401Y038009D01*
X023431Y037971D01*
X023457Y037930D01*
X023479Y037887D01*
X023499Y037843D01*
X023514Y037798D01*
X023526Y037751D01*
X023534Y037703D01*
X023538Y037655D01*
X023538Y037607D01*
X023534Y037559D01*
X023526Y037511D01*
X023514Y037464D01*
X023499Y037419D01*
X023479Y037375D01*
X023457Y037332D01*
X023431Y037291D01*
X023401Y037253D01*
X023369Y037217D01*
X023334Y037184D01*
X023296Y037154D01*
X023256Y037127D01*
X023214Y037104D01*
X023170Y037084D01*
X023125Y037067D01*
X023079Y037055D01*
X023031Y037046D01*
X022983Y037041D01*
X022935Y037040D01*
X022887Y037043D01*
X022839Y037050D01*
X022792Y037061D01*
X022746Y037075D01*
X022701Y037093D01*
X022658Y037115D01*
X022617Y037140D01*
X022579Y037169D01*
X022542Y037201D01*
X022508Y037235D01*
X022478Y037272D01*
X022450Y037311D01*
X022425Y037353D01*
X022405Y037397D01*
X022387Y037442D01*
X022374Y037488D01*
X022364Y037535D01*
X022358Y037583D01*
X022356Y037631D01*
X030033Y037631D02*
X030035Y037679D01*
X030041Y037727D01*
X030051Y037774D01*
X030064Y037820D01*
X030082Y037865D01*
X030102Y037909D01*
X030127Y037951D01*
X030155Y037990D01*
X030185Y038027D01*
X030219Y038061D01*
X030256Y038093D01*
X030294Y038122D01*
X030335Y038147D01*
X030378Y038169D01*
X030423Y038187D01*
X030469Y038201D01*
X030516Y038212D01*
X030564Y038219D01*
X030612Y038222D01*
X030660Y038221D01*
X030708Y038216D01*
X030756Y038207D01*
X030802Y038195D01*
X030847Y038178D01*
X030891Y038158D01*
X030933Y038135D01*
X030973Y038108D01*
X031011Y038078D01*
X031046Y038045D01*
X031078Y038009D01*
X031108Y037971D01*
X031134Y037930D01*
X031156Y037887D01*
X031176Y037843D01*
X031191Y037798D01*
X031203Y037751D01*
X031211Y037703D01*
X031215Y037655D01*
X031215Y037607D01*
X031211Y037559D01*
X031203Y037511D01*
X031191Y037464D01*
X031176Y037419D01*
X031156Y037375D01*
X031134Y037332D01*
X031108Y037291D01*
X031078Y037253D01*
X031046Y037217D01*
X031011Y037184D01*
X030973Y037154D01*
X030933Y037127D01*
X030891Y037104D01*
X030847Y037084D01*
X030802Y037067D01*
X030756Y037055D01*
X030708Y037046D01*
X030660Y037041D01*
X030612Y037040D01*
X030564Y037043D01*
X030516Y037050D01*
X030469Y037061D01*
X030423Y037075D01*
X030378Y037093D01*
X030335Y037115D01*
X030294Y037140D01*
X030256Y037169D01*
X030219Y037201D01*
X030185Y037235D01*
X030155Y037272D01*
X030127Y037311D01*
X030102Y037353D01*
X030082Y037397D01*
X030064Y037442D01*
X030051Y037488D01*
X030041Y037535D01*
X030035Y037583D01*
X030033Y037631D01*
X037907Y037631D02*
X037909Y037679D01*
X037915Y037727D01*
X037925Y037774D01*
X037938Y037820D01*
X037956Y037865D01*
X037976Y037909D01*
X038001Y037951D01*
X038029Y037990D01*
X038059Y038027D01*
X038093Y038061D01*
X038130Y038093D01*
X038168Y038122D01*
X038209Y038147D01*
X038252Y038169D01*
X038297Y038187D01*
X038343Y038201D01*
X038390Y038212D01*
X038438Y038219D01*
X038486Y038222D01*
X038534Y038221D01*
X038582Y038216D01*
X038630Y038207D01*
X038676Y038195D01*
X038721Y038178D01*
X038765Y038158D01*
X038807Y038135D01*
X038847Y038108D01*
X038885Y038078D01*
X038920Y038045D01*
X038952Y038009D01*
X038982Y037971D01*
X039008Y037930D01*
X039030Y037887D01*
X039050Y037843D01*
X039065Y037798D01*
X039077Y037751D01*
X039085Y037703D01*
X039089Y037655D01*
X039089Y037607D01*
X039085Y037559D01*
X039077Y037511D01*
X039065Y037464D01*
X039050Y037419D01*
X039030Y037375D01*
X039008Y037332D01*
X038982Y037291D01*
X038952Y037253D01*
X038920Y037217D01*
X038885Y037184D01*
X038847Y037154D01*
X038807Y037127D01*
X038765Y037104D01*
X038721Y037084D01*
X038676Y037067D01*
X038630Y037055D01*
X038582Y037046D01*
X038534Y037041D01*
X038486Y037040D01*
X038438Y037043D01*
X038390Y037050D01*
X038343Y037061D01*
X038297Y037075D01*
X038252Y037093D01*
X038209Y037115D01*
X038168Y037140D01*
X038130Y037169D01*
X038093Y037201D01*
X038059Y037235D01*
X038029Y037272D01*
X038001Y037311D01*
X037976Y037353D01*
X037956Y037397D01*
X037938Y037442D01*
X037925Y037488D01*
X037915Y037535D01*
X037909Y037583D01*
X037907Y037631D01*
X053517Y037603D02*
X053519Y037653D01*
X053525Y037703D01*
X053535Y037752D01*
X053549Y037800D01*
X053566Y037847D01*
X053587Y037892D01*
X053612Y037936D01*
X053640Y037977D01*
X053672Y038016D01*
X053706Y038053D01*
X053743Y038087D01*
X053783Y038117D01*
X053825Y038144D01*
X053869Y038168D01*
X053915Y038189D01*
X053962Y038205D01*
X054010Y038218D01*
X054060Y038227D01*
X054109Y038232D01*
X054160Y038233D01*
X054210Y038230D01*
X054259Y038223D01*
X054308Y038212D01*
X054356Y038197D01*
X054402Y038179D01*
X054447Y038157D01*
X054490Y038131D01*
X054531Y038102D01*
X054570Y038070D01*
X054606Y038035D01*
X054638Y037997D01*
X054668Y037957D01*
X054695Y037914D01*
X054718Y037870D01*
X054737Y037824D01*
X054753Y037776D01*
X054765Y037727D01*
X054773Y037678D01*
X054777Y037628D01*
X054777Y037578D01*
X054773Y037528D01*
X054765Y037479D01*
X054753Y037430D01*
X054737Y037382D01*
X054718Y037336D01*
X054695Y037292D01*
X054668Y037249D01*
X054638Y037209D01*
X054606Y037171D01*
X054570Y037136D01*
X054531Y037104D01*
X054490Y037075D01*
X054447Y037049D01*
X054402Y037027D01*
X054356Y037009D01*
X054308Y036994D01*
X054259Y036983D01*
X054210Y036976D01*
X054160Y036973D01*
X054109Y036974D01*
X054060Y036979D01*
X054010Y036988D01*
X053962Y037001D01*
X053915Y037017D01*
X053869Y037038D01*
X053825Y037062D01*
X053783Y037089D01*
X053743Y037119D01*
X053706Y037153D01*
X053672Y037190D01*
X053640Y037229D01*
X053612Y037270D01*
X053587Y037314D01*
X053566Y037359D01*
X053549Y037406D01*
X053535Y037454D01*
X053525Y037503D01*
X053519Y037553D01*
X053517Y037603D01*
X061391Y037603D02*
X061393Y037653D01*
X061399Y037703D01*
X061409Y037752D01*
X061423Y037800D01*
X061440Y037847D01*
X061461Y037892D01*
X061486Y037936D01*
X061514Y037977D01*
X061546Y038016D01*
X061580Y038053D01*
X061617Y038087D01*
X061657Y038117D01*
X061699Y038144D01*
X061743Y038168D01*
X061789Y038189D01*
X061836Y038205D01*
X061884Y038218D01*
X061934Y038227D01*
X061983Y038232D01*
X062034Y038233D01*
X062084Y038230D01*
X062133Y038223D01*
X062182Y038212D01*
X062230Y038197D01*
X062276Y038179D01*
X062321Y038157D01*
X062364Y038131D01*
X062405Y038102D01*
X062444Y038070D01*
X062480Y038035D01*
X062512Y037997D01*
X062542Y037957D01*
X062569Y037914D01*
X062592Y037870D01*
X062611Y037824D01*
X062627Y037776D01*
X062639Y037727D01*
X062647Y037678D01*
X062651Y037628D01*
X062651Y037578D01*
X062647Y037528D01*
X062639Y037479D01*
X062627Y037430D01*
X062611Y037382D01*
X062592Y037336D01*
X062569Y037292D01*
X062542Y037249D01*
X062512Y037209D01*
X062480Y037171D01*
X062444Y037136D01*
X062405Y037104D01*
X062364Y037075D01*
X062321Y037049D01*
X062276Y037027D01*
X062230Y037009D01*
X062182Y036994D01*
X062133Y036983D01*
X062084Y036976D01*
X062034Y036973D01*
X061983Y036974D01*
X061934Y036979D01*
X061884Y036988D01*
X061836Y037001D01*
X061789Y037017D01*
X061743Y037038D01*
X061699Y037062D01*
X061657Y037089D01*
X061617Y037119D01*
X061580Y037153D01*
X061546Y037190D01*
X061514Y037229D01*
X061486Y037270D01*
X061461Y037314D01*
X061440Y037359D01*
X061423Y037406D01*
X061409Y037454D01*
X061399Y037503D01*
X061393Y037553D01*
X061391Y037603D01*
X086627Y037603D02*
X086629Y037651D01*
X086635Y037699D01*
X086645Y037746D01*
X086658Y037792D01*
X086676Y037837D01*
X086696Y037881D01*
X086721Y037923D01*
X086749Y037962D01*
X086779Y037999D01*
X086813Y038033D01*
X086850Y038065D01*
X086888Y038094D01*
X086929Y038119D01*
X086972Y038141D01*
X087017Y038159D01*
X087063Y038173D01*
X087110Y038184D01*
X087158Y038191D01*
X087206Y038194D01*
X087254Y038193D01*
X087302Y038188D01*
X087350Y038179D01*
X087396Y038167D01*
X087441Y038150D01*
X087485Y038130D01*
X087527Y038107D01*
X087567Y038080D01*
X087605Y038050D01*
X087640Y038017D01*
X087672Y037981D01*
X087702Y037943D01*
X087728Y037902D01*
X087750Y037859D01*
X087770Y037815D01*
X087785Y037770D01*
X087797Y037723D01*
X087805Y037675D01*
X087809Y037627D01*
X087809Y037579D01*
X087805Y037531D01*
X087797Y037483D01*
X087785Y037436D01*
X087770Y037391D01*
X087750Y037347D01*
X087728Y037304D01*
X087702Y037263D01*
X087672Y037225D01*
X087640Y037189D01*
X087605Y037156D01*
X087567Y037126D01*
X087527Y037099D01*
X087485Y037076D01*
X087441Y037056D01*
X087396Y037039D01*
X087350Y037027D01*
X087302Y037018D01*
X087254Y037013D01*
X087206Y037012D01*
X087158Y037015D01*
X087110Y037022D01*
X087063Y037033D01*
X087017Y037047D01*
X086972Y037065D01*
X086929Y037087D01*
X086888Y037112D01*
X086850Y037141D01*
X086813Y037173D01*
X086779Y037207D01*
X086749Y037244D01*
X086721Y037283D01*
X086696Y037325D01*
X086676Y037369D01*
X086658Y037414D01*
X086645Y037460D01*
X086635Y037507D01*
X086629Y037555D01*
X086627Y037603D01*
X092120Y036816D02*
X092122Y036865D01*
X092128Y036914D01*
X092138Y036962D01*
X092151Y037009D01*
X092169Y037055D01*
X092190Y037099D01*
X092214Y037142D01*
X092242Y037182D01*
X092273Y037221D01*
X092307Y037256D01*
X092344Y037289D01*
X092383Y037318D01*
X092425Y037344D01*
X092468Y037367D01*
X092514Y037386D01*
X092560Y037402D01*
X092608Y037414D01*
X092656Y037422D01*
X092705Y037426D01*
X092755Y037426D01*
X092804Y037422D01*
X092852Y037414D01*
X092900Y037402D01*
X092946Y037386D01*
X092992Y037367D01*
X093035Y037344D01*
X093077Y037318D01*
X093116Y037289D01*
X093153Y037256D01*
X093187Y037221D01*
X093218Y037182D01*
X093246Y037142D01*
X093270Y037099D01*
X093291Y037055D01*
X093309Y037009D01*
X093322Y036962D01*
X093332Y036914D01*
X093338Y036865D01*
X093340Y036816D01*
X093338Y036767D01*
X093332Y036718D01*
X093322Y036670D01*
X093309Y036623D01*
X093291Y036577D01*
X093270Y036533D01*
X093246Y036490D01*
X093218Y036450D01*
X093187Y036411D01*
X093153Y036376D01*
X093116Y036343D01*
X093077Y036314D01*
X093035Y036288D01*
X092992Y036265D01*
X092946Y036246D01*
X092900Y036230D01*
X092852Y036218D01*
X092804Y036210D01*
X092755Y036206D01*
X092705Y036206D01*
X092656Y036210D01*
X092608Y036218D01*
X092560Y036230D01*
X092514Y036246D01*
X092468Y036265D01*
X092425Y036288D01*
X092383Y036314D01*
X092344Y036343D01*
X092307Y036376D01*
X092273Y036411D01*
X092242Y036450D01*
X092214Y036490D01*
X092190Y036533D01*
X092169Y036577D01*
X092151Y036623D01*
X092138Y036670D01*
X092128Y036718D01*
X092122Y036767D01*
X092120Y036816D01*
M02*
