G75*
G70*
%OFA0B0*%
%FSLAX24Y24*%
%IPPOS*%
%LPD*%
%AMOC8*
5,1,8,0,0,1.08239X$1,22.5*
%
%ADD10C,0.0000*%
D10*
X000202Y000202D02*
X000202Y039572D01*
X094690Y039572D01*
X094690Y000202D01*
X000202Y000202D01*
X001757Y002170D02*
X001759Y002210D01*
X001765Y002251D01*
X001775Y002290D01*
X001788Y002328D01*
X001806Y002365D01*
X001827Y002399D01*
X001851Y002432D01*
X001878Y002462D01*
X001908Y002489D01*
X001941Y002513D01*
X001975Y002534D01*
X002012Y002552D01*
X002050Y002565D01*
X002089Y002575D01*
X002130Y002581D01*
X002170Y002583D01*
X002210Y002581D01*
X002251Y002575D01*
X002290Y002565D01*
X002328Y002552D01*
X002365Y002534D01*
X002399Y002513D01*
X002432Y002489D01*
X002462Y002462D01*
X002489Y002432D01*
X002513Y002399D01*
X002534Y002365D01*
X002552Y002328D01*
X002565Y002290D01*
X002575Y002251D01*
X002581Y002210D01*
X002583Y002170D01*
X002581Y002130D01*
X002575Y002089D01*
X002565Y002050D01*
X002552Y002012D01*
X002534Y001975D01*
X002513Y001941D01*
X002489Y001908D01*
X002462Y001878D01*
X002432Y001851D01*
X002399Y001827D01*
X002365Y001806D01*
X002328Y001788D01*
X002290Y001775D01*
X002251Y001765D01*
X002210Y001759D01*
X002170Y001757D01*
X002130Y001759D01*
X002089Y001765D01*
X002050Y001775D01*
X002012Y001788D01*
X001975Y001806D01*
X001941Y001827D01*
X001908Y001851D01*
X001878Y001878D01*
X001851Y001908D01*
X001827Y001941D01*
X001806Y001975D01*
X001788Y002012D01*
X001775Y002050D01*
X001765Y002089D01*
X001759Y002130D01*
X001757Y002170D01*
X020602Y010735D02*
X020604Y010775D01*
X020610Y010816D01*
X020620Y010855D01*
X020633Y010893D01*
X020651Y010930D01*
X020672Y010964D01*
X020696Y010997D01*
X020723Y011027D01*
X020753Y011054D01*
X020786Y011078D01*
X020820Y011099D01*
X020857Y011117D01*
X020895Y011130D01*
X020934Y011140D01*
X020975Y011146D01*
X021015Y011148D01*
X021055Y011146D01*
X021096Y011140D01*
X021135Y011130D01*
X021173Y011117D01*
X021210Y011099D01*
X021244Y011078D01*
X021277Y011054D01*
X021307Y011027D01*
X021334Y010997D01*
X021358Y010964D01*
X021379Y010930D01*
X021397Y010893D01*
X021410Y010855D01*
X021420Y010816D01*
X021426Y010775D01*
X021428Y010735D01*
X021426Y010695D01*
X021420Y010654D01*
X021410Y010615D01*
X021397Y010577D01*
X021379Y010540D01*
X021358Y010506D01*
X021334Y010473D01*
X021307Y010443D01*
X021277Y010416D01*
X021244Y010392D01*
X021210Y010371D01*
X021173Y010353D01*
X021135Y010340D01*
X021096Y010330D01*
X021055Y010324D01*
X021015Y010322D01*
X020975Y010324D01*
X020934Y010330D01*
X020895Y010340D01*
X020857Y010353D01*
X020820Y010371D01*
X020786Y010392D01*
X020753Y010416D01*
X020723Y010443D01*
X020696Y010473D01*
X020672Y010506D01*
X020651Y010540D01*
X020633Y010577D01*
X020620Y010615D01*
X020610Y010654D01*
X020604Y010695D01*
X020602Y010735D01*
X017850Y010763D02*
X017852Y010803D01*
X017858Y010844D01*
X017868Y010883D01*
X017881Y010921D01*
X017899Y010958D01*
X017920Y010992D01*
X017944Y011025D01*
X017971Y011055D01*
X018001Y011082D01*
X018034Y011106D01*
X018068Y011127D01*
X018105Y011145D01*
X018143Y011158D01*
X018182Y011168D01*
X018223Y011174D01*
X018263Y011176D01*
X018303Y011174D01*
X018344Y011168D01*
X018383Y011158D01*
X018421Y011145D01*
X018458Y011127D01*
X018492Y011106D01*
X018525Y011082D01*
X018555Y011055D01*
X018582Y011025D01*
X018606Y010992D01*
X018627Y010958D01*
X018645Y010921D01*
X018658Y010883D01*
X018668Y010844D01*
X018674Y010803D01*
X018676Y010763D01*
X018674Y010723D01*
X018668Y010682D01*
X018658Y010643D01*
X018645Y010605D01*
X018627Y010568D01*
X018606Y010534D01*
X018582Y010501D01*
X018555Y010471D01*
X018525Y010444D01*
X018492Y010420D01*
X018458Y010399D01*
X018421Y010381D01*
X018383Y010368D01*
X018344Y010358D01*
X018303Y010352D01*
X018263Y010350D01*
X018223Y010352D01*
X018182Y010358D01*
X018143Y010368D01*
X018105Y010381D01*
X018068Y010399D01*
X018034Y010420D01*
X018001Y010444D01*
X017971Y010471D01*
X017944Y010501D01*
X017920Y010534D01*
X017899Y010568D01*
X017881Y010605D01*
X017868Y010643D01*
X017858Y010682D01*
X017852Y010723D01*
X017850Y010763D01*
X002102Y010763D02*
X002104Y010803D01*
X002110Y010844D01*
X002120Y010883D01*
X002133Y010921D01*
X002151Y010958D01*
X002172Y010992D01*
X002196Y011025D01*
X002223Y011055D01*
X002253Y011082D01*
X002286Y011106D01*
X002320Y011127D01*
X002357Y011145D01*
X002395Y011158D01*
X002434Y011168D01*
X002475Y011174D01*
X002515Y011176D01*
X002555Y011174D01*
X002596Y011168D01*
X002635Y011158D01*
X002673Y011145D01*
X002710Y011127D01*
X002744Y011106D01*
X002777Y011082D01*
X002807Y011055D01*
X002834Y011025D01*
X002858Y010992D01*
X002879Y010958D01*
X002897Y010921D01*
X002910Y010883D01*
X002920Y010844D01*
X002926Y010803D01*
X002928Y010763D01*
X002926Y010723D01*
X002920Y010682D01*
X002910Y010643D01*
X002897Y010605D01*
X002879Y010568D01*
X002858Y010534D01*
X002834Y010501D01*
X002807Y010471D01*
X002777Y010444D01*
X002744Y010420D01*
X002710Y010399D01*
X002673Y010381D01*
X002635Y010368D01*
X002596Y010358D01*
X002555Y010352D01*
X002515Y010350D01*
X002475Y010352D01*
X002434Y010358D01*
X002395Y010368D01*
X002357Y010381D01*
X002320Y010399D01*
X002286Y010420D01*
X002253Y010444D01*
X002223Y010471D01*
X002196Y010501D01*
X002172Y010534D01*
X002151Y010568D01*
X002133Y010605D01*
X002120Y010643D01*
X002110Y010682D01*
X002104Y010723D01*
X002102Y010763D01*
X002102Y018637D02*
X002104Y018677D01*
X002110Y018718D01*
X002120Y018757D01*
X002133Y018795D01*
X002151Y018832D01*
X002172Y018866D01*
X002196Y018899D01*
X002223Y018929D01*
X002253Y018956D01*
X002286Y018980D01*
X002320Y019001D01*
X002357Y019019D01*
X002395Y019032D01*
X002434Y019042D01*
X002475Y019048D01*
X002515Y019050D01*
X002555Y019048D01*
X002596Y019042D01*
X002635Y019032D01*
X002673Y019019D01*
X002710Y019001D01*
X002744Y018980D01*
X002777Y018956D01*
X002807Y018929D01*
X002834Y018899D01*
X002858Y018866D01*
X002879Y018832D01*
X002897Y018795D01*
X002910Y018757D01*
X002920Y018718D01*
X002926Y018677D01*
X002928Y018637D01*
X002926Y018597D01*
X002920Y018556D01*
X002910Y018517D01*
X002897Y018479D01*
X002879Y018442D01*
X002858Y018408D01*
X002834Y018375D01*
X002807Y018345D01*
X002777Y018318D01*
X002744Y018294D01*
X002710Y018273D01*
X002673Y018255D01*
X002635Y018242D01*
X002596Y018232D01*
X002555Y018226D01*
X002515Y018224D01*
X002475Y018226D01*
X002434Y018232D01*
X002395Y018242D01*
X002357Y018255D01*
X002320Y018273D01*
X002286Y018294D01*
X002253Y018318D01*
X002223Y018345D01*
X002196Y018375D01*
X002172Y018408D01*
X002151Y018442D01*
X002133Y018479D01*
X002120Y018517D01*
X002110Y018556D01*
X002104Y018597D01*
X002102Y018637D01*
X017850Y018637D02*
X017852Y018677D01*
X017858Y018718D01*
X017868Y018757D01*
X017881Y018795D01*
X017899Y018832D01*
X017920Y018866D01*
X017944Y018899D01*
X017971Y018929D01*
X018001Y018956D01*
X018034Y018980D01*
X018068Y019001D01*
X018105Y019019D01*
X018143Y019032D01*
X018182Y019042D01*
X018223Y019048D01*
X018263Y019050D01*
X018303Y019048D01*
X018344Y019042D01*
X018383Y019032D01*
X018421Y019019D01*
X018458Y019001D01*
X018492Y018980D01*
X018525Y018956D01*
X018555Y018929D01*
X018582Y018899D01*
X018606Y018866D01*
X018627Y018832D01*
X018645Y018795D01*
X018658Y018757D01*
X018668Y018718D01*
X018674Y018677D01*
X018676Y018637D01*
X018674Y018597D01*
X018668Y018556D01*
X018658Y018517D01*
X018645Y018479D01*
X018627Y018442D01*
X018606Y018408D01*
X018582Y018375D01*
X018555Y018345D01*
X018525Y018318D01*
X018492Y018294D01*
X018458Y018273D01*
X018421Y018255D01*
X018383Y018242D01*
X018344Y018232D01*
X018303Y018226D01*
X018263Y018224D01*
X018223Y018226D01*
X018182Y018232D01*
X018143Y018242D01*
X018105Y018255D01*
X018068Y018273D01*
X018034Y018294D01*
X018001Y018318D01*
X017971Y018345D01*
X017944Y018375D01*
X017920Y018408D01*
X017899Y018442D01*
X017881Y018479D01*
X017868Y018517D01*
X017858Y018556D01*
X017852Y018597D01*
X017850Y018637D01*
X020602Y018609D02*
X020604Y018649D01*
X020610Y018690D01*
X020620Y018729D01*
X020633Y018767D01*
X020651Y018804D01*
X020672Y018838D01*
X020696Y018871D01*
X020723Y018901D01*
X020753Y018928D01*
X020786Y018952D01*
X020820Y018973D01*
X020857Y018991D01*
X020895Y019004D01*
X020934Y019014D01*
X020975Y019020D01*
X021015Y019022D01*
X021055Y019020D01*
X021096Y019014D01*
X021135Y019004D01*
X021173Y018991D01*
X021210Y018973D01*
X021244Y018952D01*
X021277Y018928D01*
X021307Y018901D01*
X021334Y018871D01*
X021358Y018838D01*
X021379Y018804D01*
X021397Y018767D01*
X021410Y018729D01*
X021420Y018690D01*
X021426Y018649D01*
X021428Y018609D01*
X021426Y018569D01*
X021420Y018528D01*
X021410Y018489D01*
X021397Y018451D01*
X021379Y018414D01*
X021358Y018380D01*
X021334Y018347D01*
X021307Y018317D01*
X021277Y018290D01*
X021244Y018266D01*
X021210Y018245D01*
X021173Y018227D01*
X021135Y018214D01*
X021096Y018204D01*
X021055Y018198D01*
X021015Y018196D01*
X020975Y018198D01*
X020934Y018204D01*
X020895Y018214D01*
X020857Y018227D01*
X020820Y018245D01*
X020786Y018266D01*
X020753Y018290D01*
X020723Y018317D01*
X020696Y018347D01*
X020672Y018380D01*
X020651Y018414D01*
X020633Y018451D01*
X020620Y018489D01*
X020610Y018528D01*
X020604Y018569D01*
X020602Y018609D01*
X036350Y018609D02*
X036352Y018649D01*
X036358Y018690D01*
X036368Y018729D01*
X036381Y018767D01*
X036399Y018804D01*
X036420Y018838D01*
X036444Y018871D01*
X036471Y018901D01*
X036501Y018928D01*
X036534Y018952D01*
X036568Y018973D01*
X036605Y018991D01*
X036643Y019004D01*
X036682Y019014D01*
X036723Y019020D01*
X036763Y019022D01*
X036803Y019020D01*
X036844Y019014D01*
X036883Y019004D01*
X036921Y018991D01*
X036958Y018973D01*
X036992Y018952D01*
X037025Y018928D01*
X037055Y018901D01*
X037082Y018871D01*
X037106Y018838D01*
X037127Y018804D01*
X037145Y018767D01*
X037158Y018729D01*
X037168Y018690D01*
X037174Y018649D01*
X037176Y018609D01*
X037174Y018569D01*
X037168Y018528D01*
X037158Y018489D01*
X037145Y018451D01*
X037127Y018414D01*
X037106Y018380D01*
X037082Y018347D01*
X037055Y018317D01*
X037025Y018290D01*
X036992Y018266D01*
X036958Y018245D01*
X036921Y018227D01*
X036883Y018214D01*
X036844Y018204D01*
X036803Y018198D01*
X036763Y018196D01*
X036723Y018198D01*
X036682Y018204D01*
X036643Y018214D01*
X036605Y018227D01*
X036568Y018245D01*
X036534Y018266D01*
X036501Y018290D01*
X036471Y018317D01*
X036444Y018347D01*
X036420Y018380D01*
X036399Y018414D01*
X036381Y018451D01*
X036368Y018489D01*
X036358Y018528D01*
X036352Y018569D01*
X036350Y018609D01*
X039007Y018601D02*
X039009Y018641D01*
X039015Y018682D01*
X039025Y018721D01*
X039038Y018759D01*
X039056Y018796D01*
X039077Y018830D01*
X039101Y018863D01*
X039128Y018893D01*
X039158Y018920D01*
X039191Y018944D01*
X039225Y018965D01*
X039262Y018983D01*
X039300Y018996D01*
X039339Y019006D01*
X039380Y019012D01*
X039420Y019014D01*
X039460Y019012D01*
X039501Y019006D01*
X039540Y018996D01*
X039578Y018983D01*
X039615Y018965D01*
X039649Y018944D01*
X039682Y018920D01*
X039712Y018893D01*
X039739Y018863D01*
X039763Y018830D01*
X039784Y018796D01*
X039802Y018759D01*
X039815Y018721D01*
X039825Y018682D01*
X039831Y018641D01*
X039833Y018601D01*
X039831Y018561D01*
X039825Y018520D01*
X039815Y018481D01*
X039802Y018443D01*
X039784Y018406D01*
X039763Y018372D01*
X039739Y018339D01*
X039712Y018309D01*
X039682Y018282D01*
X039649Y018258D01*
X039615Y018237D01*
X039578Y018219D01*
X039540Y018206D01*
X039501Y018196D01*
X039460Y018190D01*
X039420Y018188D01*
X039380Y018190D01*
X039339Y018196D01*
X039300Y018206D01*
X039262Y018219D01*
X039225Y018237D01*
X039191Y018258D01*
X039158Y018282D01*
X039128Y018309D01*
X039101Y018339D01*
X039077Y018372D01*
X039056Y018406D01*
X039038Y018443D01*
X039025Y018481D01*
X039015Y018520D01*
X039009Y018561D01*
X039007Y018601D01*
X054755Y018601D02*
X054757Y018641D01*
X054763Y018682D01*
X054773Y018721D01*
X054786Y018759D01*
X054804Y018796D01*
X054825Y018830D01*
X054849Y018863D01*
X054876Y018893D01*
X054906Y018920D01*
X054939Y018944D01*
X054973Y018965D01*
X055010Y018983D01*
X055048Y018996D01*
X055087Y019006D01*
X055128Y019012D01*
X055168Y019014D01*
X055208Y019012D01*
X055249Y019006D01*
X055288Y018996D01*
X055326Y018983D01*
X055363Y018965D01*
X055397Y018944D01*
X055430Y018920D01*
X055460Y018893D01*
X055487Y018863D01*
X055511Y018830D01*
X055532Y018796D01*
X055550Y018759D01*
X055563Y018721D01*
X055573Y018682D01*
X055579Y018641D01*
X055581Y018601D01*
X055579Y018561D01*
X055573Y018520D01*
X055563Y018481D01*
X055550Y018443D01*
X055532Y018406D01*
X055511Y018372D01*
X055487Y018339D01*
X055460Y018309D01*
X055430Y018282D01*
X055397Y018258D01*
X055363Y018237D01*
X055326Y018219D01*
X055288Y018206D01*
X055249Y018196D01*
X055208Y018190D01*
X055168Y018188D01*
X055128Y018190D01*
X055087Y018196D01*
X055048Y018206D01*
X055010Y018219D01*
X054973Y018237D01*
X054939Y018258D01*
X054906Y018282D01*
X054876Y018309D01*
X054849Y018339D01*
X054825Y018372D01*
X054804Y018406D01*
X054786Y018443D01*
X054773Y018481D01*
X054763Y018520D01*
X054757Y018561D01*
X054755Y018601D01*
X057326Y018621D02*
X057328Y018661D01*
X057334Y018702D01*
X057344Y018741D01*
X057357Y018779D01*
X057375Y018816D01*
X057396Y018850D01*
X057420Y018883D01*
X057447Y018913D01*
X057477Y018940D01*
X057510Y018964D01*
X057544Y018985D01*
X057581Y019003D01*
X057619Y019016D01*
X057658Y019026D01*
X057699Y019032D01*
X057739Y019034D01*
X057779Y019032D01*
X057820Y019026D01*
X057859Y019016D01*
X057897Y019003D01*
X057934Y018985D01*
X057968Y018964D01*
X058001Y018940D01*
X058031Y018913D01*
X058058Y018883D01*
X058082Y018850D01*
X058103Y018816D01*
X058121Y018779D01*
X058134Y018741D01*
X058144Y018702D01*
X058150Y018661D01*
X058152Y018621D01*
X058150Y018581D01*
X058144Y018540D01*
X058134Y018501D01*
X058121Y018463D01*
X058103Y018426D01*
X058082Y018392D01*
X058058Y018359D01*
X058031Y018329D01*
X058001Y018302D01*
X057968Y018278D01*
X057934Y018257D01*
X057897Y018239D01*
X057859Y018226D01*
X057820Y018216D01*
X057779Y018210D01*
X057739Y018208D01*
X057699Y018210D01*
X057658Y018216D01*
X057619Y018226D01*
X057581Y018239D01*
X057544Y018257D01*
X057510Y018278D01*
X057477Y018302D01*
X057447Y018329D01*
X057420Y018359D01*
X057396Y018392D01*
X057375Y018426D01*
X057357Y018463D01*
X057344Y018501D01*
X057334Y018540D01*
X057328Y018581D01*
X057326Y018621D01*
X073074Y018621D02*
X073076Y018661D01*
X073082Y018702D01*
X073092Y018741D01*
X073105Y018779D01*
X073123Y018816D01*
X073144Y018850D01*
X073168Y018883D01*
X073195Y018913D01*
X073225Y018940D01*
X073258Y018964D01*
X073292Y018985D01*
X073329Y019003D01*
X073367Y019016D01*
X073406Y019026D01*
X073447Y019032D01*
X073487Y019034D01*
X073527Y019032D01*
X073568Y019026D01*
X073607Y019016D01*
X073645Y019003D01*
X073682Y018985D01*
X073716Y018964D01*
X073749Y018940D01*
X073779Y018913D01*
X073806Y018883D01*
X073830Y018850D01*
X073851Y018816D01*
X073869Y018779D01*
X073882Y018741D01*
X073892Y018702D01*
X073898Y018661D01*
X073900Y018621D01*
X073898Y018581D01*
X073892Y018540D01*
X073882Y018501D01*
X073869Y018463D01*
X073851Y018426D01*
X073830Y018392D01*
X073806Y018359D01*
X073779Y018329D01*
X073749Y018302D01*
X073716Y018278D01*
X073682Y018257D01*
X073645Y018239D01*
X073607Y018226D01*
X073568Y018216D01*
X073527Y018210D01*
X073487Y018208D01*
X073447Y018210D01*
X073406Y018216D01*
X073367Y018226D01*
X073329Y018239D01*
X073292Y018257D01*
X073258Y018278D01*
X073225Y018302D01*
X073195Y018329D01*
X073168Y018359D01*
X073144Y018392D01*
X073123Y018426D01*
X073105Y018463D01*
X073092Y018501D01*
X073082Y018540D01*
X073076Y018581D01*
X073074Y018621D01*
X075771Y018593D02*
X075773Y018633D01*
X075779Y018674D01*
X075789Y018713D01*
X075802Y018751D01*
X075820Y018788D01*
X075841Y018822D01*
X075865Y018855D01*
X075892Y018885D01*
X075922Y018912D01*
X075955Y018936D01*
X075989Y018957D01*
X076026Y018975D01*
X076064Y018988D01*
X076103Y018998D01*
X076144Y019004D01*
X076184Y019006D01*
X076224Y019004D01*
X076265Y018998D01*
X076304Y018988D01*
X076342Y018975D01*
X076379Y018957D01*
X076413Y018936D01*
X076446Y018912D01*
X076476Y018885D01*
X076503Y018855D01*
X076527Y018822D01*
X076548Y018788D01*
X076566Y018751D01*
X076579Y018713D01*
X076589Y018674D01*
X076595Y018633D01*
X076597Y018593D01*
X076595Y018553D01*
X076589Y018512D01*
X076579Y018473D01*
X076566Y018435D01*
X076548Y018398D01*
X076527Y018364D01*
X076503Y018331D01*
X076476Y018301D01*
X076446Y018274D01*
X076413Y018250D01*
X076379Y018229D01*
X076342Y018211D01*
X076304Y018198D01*
X076265Y018188D01*
X076224Y018182D01*
X076184Y018180D01*
X076144Y018182D01*
X076103Y018188D01*
X076064Y018198D01*
X076026Y018211D01*
X075989Y018229D01*
X075955Y018250D01*
X075922Y018274D01*
X075892Y018301D01*
X075865Y018331D01*
X075841Y018364D01*
X075820Y018398D01*
X075802Y018435D01*
X075789Y018473D01*
X075779Y018512D01*
X075773Y018553D01*
X075771Y018593D01*
X091519Y018593D02*
X091521Y018633D01*
X091527Y018674D01*
X091537Y018713D01*
X091550Y018751D01*
X091568Y018788D01*
X091589Y018822D01*
X091613Y018855D01*
X091640Y018885D01*
X091670Y018912D01*
X091703Y018936D01*
X091737Y018957D01*
X091774Y018975D01*
X091812Y018988D01*
X091851Y018998D01*
X091892Y019004D01*
X091932Y019006D01*
X091972Y019004D01*
X092013Y018998D01*
X092052Y018988D01*
X092090Y018975D01*
X092127Y018957D01*
X092161Y018936D01*
X092194Y018912D01*
X092224Y018885D01*
X092251Y018855D01*
X092275Y018822D01*
X092296Y018788D01*
X092314Y018751D01*
X092327Y018713D01*
X092337Y018674D01*
X092343Y018633D01*
X092345Y018593D01*
X092343Y018553D01*
X092337Y018512D01*
X092327Y018473D01*
X092314Y018435D01*
X092296Y018398D01*
X092275Y018364D01*
X092251Y018331D01*
X092224Y018301D01*
X092194Y018274D01*
X092161Y018250D01*
X092127Y018229D01*
X092090Y018211D01*
X092052Y018198D01*
X092013Y018188D01*
X091972Y018182D01*
X091932Y018180D01*
X091892Y018182D01*
X091851Y018188D01*
X091812Y018198D01*
X091774Y018211D01*
X091737Y018229D01*
X091703Y018250D01*
X091670Y018274D01*
X091640Y018301D01*
X091613Y018331D01*
X091589Y018364D01*
X091568Y018398D01*
X091550Y018435D01*
X091537Y018473D01*
X091527Y018512D01*
X091521Y018553D01*
X091519Y018593D01*
X073074Y010747D02*
X073076Y010787D01*
X073082Y010828D01*
X073092Y010867D01*
X073105Y010905D01*
X073123Y010942D01*
X073144Y010976D01*
X073168Y011009D01*
X073195Y011039D01*
X073225Y011066D01*
X073258Y011090D01*
X073292Y011111D01*
X073329Y011129D01*
X073367Y011142D01*
X073406Y011152D01*
X073447Y011158D01*
X073487Y011160D01*
X073527Y011158D01*
X073568Y011152D01*
X073607Y011142D01*
X073645Y011129D01*
X073682Y011111D01*
X073716Y011090D01*
X073749Y011066D01*
X073779Y011039D01*
X073806Y011009D01*
X073830Y010976D01*
X073851Y010942D01*
X073869Y010905D01*
X073882Y010867D01*
X073892Y010828D01*
X073898Y010787D01*
X073900Y010747D01*
X073898Y010707D01*
X073892Y010666D01*
X073882Y010627D01*
X073869Y010589D01*
X073851Y010552D01*
X073830Y010518D01*
X073806Y010485D01*
X073779Y010455D01*
X073749Y010428D01*
X073716Y010404D01*
X073682Y010383D01*
X073645Y010365D01*
X073607Y010352D01*
X073568Y010342D01*
X073527Y010336D01*
X073487Y010334D01*
X073447Y010336D01*
X073406Y010342D01*
X073367Y010352D01*
X073329Y010365D01*
X073292Y010383D01*
X073258Y010404D01*
X073225Y010428D01*
X073195Y010455D01*
X073168Y010485D01*
X073144Y010518D01*
X073123Y010552D01*
X073105Y010589D01*
X073092Y010627D01*
X073082Y010666D01*
X073076Y010707D01*
X073074Y010747D01*
X075771Y010719D02*
X075773Y010759D01*
X075779Y010800D01*
X075789Y010839D01*
X075802Y010877D01*
X075820Y010914D01*
X075841Y010948D01*
X075865Y010981D01*
X075892Y011011D01*
X075922Y011038D01*
X075955Y011062D01*
X075989Y011083D01*
X076026Y011101D01*
X076064Y011114D01*
X076103Y011124D01*
X076144Y011130D01*
X076184Y011132D01*
X076224Y011130D01*
X076265Y011124D01*
X076304Y011114D01*
X076342Y011101D01*
X076379Y011083D01*
X076413Y011062D01*
X076446Y011038D01*
X076476Y011011D01*
X076503Y010981D01*
X076527Y010948D01*
X076548Y010914D01*
X076566Y010877D01*
X076579Y010839D01*
X076589Y010800D01*
X076595Y010759D01*
X076597Y010719D01*
X076595Y010679D01*
X076589Y010638D01*
X076579Y010599D01*
X076566Y010561D01*
X076548Y010524D01*
X076527Y010490D01*
X076503Y010457D01*
X076476Y010427D01*
X076446Y010400D01*
X076413Y010376D01*
X076379Y010355D01*
X076342Y010337D01*
X076304Y010324D01*
X076265Y010314D01*
X076224Y010308D01*
X076184Y010306D01*
X076144Y010308D01*
X076103Y010314D01*
X076064Y010324D01*
X076026Y010337D01*
X075989Y010355D01*
X075955Y010376D01*
X075922Y010400D01*
X075892Y010427D01*
X075865Y010457D01*
X075841Y010490D01*
X075820Y010524D01*
X075802Y010561D01*
X075789Y010599D01*
X075779Y010638D01*
X075773Y010679D01*
X075771Y010719D01*
X091519Y010719D02*
X091521Y010759D01*
X091527Y010800D01*
X091537Y010839D01*
X091550Y010877D01*
X091568Y010914D01*
X091589Y010948D01*
X091613Y010981D01*
X091640Y011011D01*
X091670Y011038D01*
X091703Y011062D01*
X091737Y011083D01*
X091774Y011101D01*
X091812Y011114D01*
X091851Y011124D01*
X091892Y011130D01*
X091932Y011132D01*
X091972Y011130D01*
X092013Y011124D01*
X092052Y011114D01*
X092090Y011101D01*
X092127Y011083D01*
X092161Y011062D01*
X092194Y011038D01*
X092224Y011011D01*
X092251Y010981D01*
X092275Y010948D01*
X092296Y010914D01*
X092314Y010877D01*
X092327Y010839D01*
X092337Y010800D01*
X092343Y010759D01*
X092345Y010719D01*
X092343Y010679D01*
X092337Y010638D01*
X092327Y010599D01*
X092314Y010561D01*
X092296Y010524D01*
X092275Y010490D01*
X092251Y010457D01*
X092224Y010427D01*
X092194Y010400D01*
X092161Y010376D01*
X092127Y010355D01*
X092090Y010337D01*
X092052Y010324D01*
X092013Y010314D01*
X091972Y010308D01*
X091932Y010306D01*
X091892Y010308D01*
X091851Y010314D01*
X091812Y010324D01*
X091774Y010337D01*
X091737Y010355D01*
X091703Y010376D01*
X091670Y010400D01*
X091640Y010427D01*
X091613Y010457D01*
X091589Y010490D01*
X091568Y010524D01*
X091550Y010561D01*
X091537Y010599D01*
X091527Y010638D01*
X091521Y010679D01*
X091519Y010719D01*
X092308Y002170D02*
X092310Y002210D01*
X092316Y002251D01*
X092326Y002290D01*
X092339Y002328D01*
X092357Y002365D01*
X092378Y002399D01*
X092402Y002432D01*
X092429Y002462D01*
X092459Y002489D01*
X092492Y002513D01*
X092526Y002534D01*
X092563Y002552D01*
X092601Y002565D01*
X092640Y002575D01*
X092681Y002581D01*
X092721Y002583D01*
X092761Y002581D01*
X092802Y002575D01*
X092841Y002565D01*
X092879Y002552D01*
X092916Y002534D01*
X092950Y002513D01*
X092983Y002489D01*
X093013Y002462D01*
X093040Y002432D01*
X093064Y002399D01*
X093085Y002365D01*
X093103Y002328D01*
X093116Y002290D01*
X093126Y002251D01*
X093132Y002210D01*
X093134Y002170D01*
X093132Y002130D01*
X093126Y002089D01*
X093116Y002050D01*
X093103Y002012D01*
X093085Y001975D01*
X093064Y001941D01*
X093040Y001908D01*
X093013Y001878D01*
X092983Y001851D01*
X092950Y001827D01*
X092916Y001806D01*
X092879Y001788D01*
X092841Y001775D01*
X092802Y001765D01*
X092761Y001759D01*
X092721Y001757D01*
X092681Y001759D01*
X092640Y001765D01*
X092601Y001775D01*
X092563Y001788D01*
X092526Y001806D01*
X092492Y001827D01*
X092459Y001851D01*
X092429Y001878D01*
X092402Y001908D01*
X092378Y001941D01*
X092357Y001975D01*
X092339Y002012D01*
X092326Y002050D01*
X092316Y002089D01*
X092310Y002130D01*
X092308Y002170D01*
X057326Y010747D02*
X057328Y010787D01*
X057334Y010828D01*
X057344Y010867D01*
X057357Y010905D01*
X057375Y010942D01*
X057396Y010976D01*
X057420Y011009D01*
X057447Y011039D01*
X057477Y011066D01*
X057510Y011090D01*
X057544Y011111D01*
X057581Y011129D01*
X057619Y011142D01*
X057658Y011152D01*
X057699Y011158D01*
X057739Y011160D01*
X057779Y011158D01*
X057820Y011152D01*
X057859Y011142D01*
X057897Y011129D01*
X057934Y011111D01*
X057968Y011090D01*
X058001Y011066D01*
X058031Y011039D01*
X058058Y011009D01*
X058082Y010976D01*
X058103Y010942D01*
X058121Y010905D01*
X058134Y010867D01*
X058144Y010828D01*
X058150Y010787D01*
X058152Y010747D01*
X058150Y010707D01*
X058144Y010666D01*
X058134Y010627D01*
X058121Y010589D01*
X058103Y010552D01*
X058082Y010518D01*
X058058Y010485D01*
X058031Y010455D01*
X058001Y010428D01*
X057968Y010404D01*
X057934Y010383D01*
X057897Y010365D01*
X057859Y010352D01*
X057820Y010342D01*
X057779Y010336D01*
X057739Y010334D01*
X057699Y010336D01*
X057658Y010342D01*
X057619Y010352D01*
X057581Y010365D01*
X057544Y010383D01*
X057510Y010404D01*
X057477Y010428D01*
X057447Y010455D01*
X057420Y010485D01*
X057396Y010518D01*
X057375Y010552D01*
X057357Y010589D01*
X057344Y010627D01*
X057334Y010666D01*
X057328Y010707D01*
X057326Y010747D01*
X054755Y010727D02*
X054757Y010767D01*
X054763Y010808D01*
X054773Y010847D01*
X054786Y010885D01*
X054804Y010922D01*
X054825Y010956D01*
X054849Y010989D01*
X054876Y011019D01*
X054906Y011046D01*
X054939Y011070D01*
X054973Y011091D01*
X055010Y011109D01*
X055048Y011122D01*
X055087Y011132D01*
X055128Y011138D01*
X055168Y011140D01*
X055208Y011138D01*
X055249Y011132D01*
X055288Y011122D01*
X055326Y011109D01*
X055363Y011091D01*
X055397Y011070D01*
X055430Y011046D01*
X055460Y011019D01*
X055487Y010989D01*
X055511Y010956D01*
X055532Y010922D01*
X055550Y010885D01*
X055563Y010847D01*
X055573Y010808D01*
X055579Y010767D01*
X055581Y010727D01*
X055579Y010687D01*
X055573Y010646D01*
X055563Y010607D01*
X055550Y010569D01*
X055532Y010532D01*
X055511Y010498D01*
X055487Y010465D01*
X055460Y010435D01*
X055430Y010408D01*
X055397Y010384D01*
X055363Y010363D01*
X055326Y010345D01*
X055288Y010332D01*
X055249Y010322D01*
X055208Y010316D01*
X055168Y010314D01*
X055128Y010316D01*
X055087Y010322D01*
X055048Y010332D01*
X055010Y010345D01*
X054973Y010363D01*
X054939Y010384D01*
X054906Y010408D01*
X054876Y010435D01*
X054849Y010465D01*
X054825Y010498D01*
X054804Y010532D01*
X054786Y010569D01*
X054773Y010607D01*
X054763Y010646D01*
X054757Y010687D01*
X054755Y010727D01*
X039007Y010727D02*
X039009Y010767D01*
X039015Y010808D01*
X039025Y010847D01*
X039038Y010885D01*
X039056Y010922D01*
X039077Y010956D01*
X039101Y010989D01*
X039128Y011019D01*
X039158Y011046D01*
X039191Y011070D01*
X039225Y011091D01*
X039262Y011109D01*
X039300Y011122D01*
X039339Y011132D01*
X039380Y011138D01*
X039420Y011140D01*
X039460Y011138D01*
X039501Y011132D01*
X039540Y011122D01*
X039578Y011109D01*
X039615Y011091D01*
X039649Y011070D01*
X039682Y011046D01*
X039712Y011019D01*
X039739Y010989D01*
X039763Y010956D01*
X039784Y010922D01*
X039802Y010885D01*
X039815Y010847D01*
X039825Y010808D01*
X039831Y010767D01*
X039833Y010727D01*
X039831Y010687D01*
X039825Y010646D01*
X039815Y010607D01*
X039802Y010569D01*
X039784Y010532D01*
X039763Y010498D01*
X039739Y010465D01*
X039712Y010435D01*
X039682Y010408D01*
X039649Y010384D01*
X039615Y010363D01*
X039578Y010345D01*
X039540Y010332D01*
X039501Y010322D01*
X039460Y010316D01*
X039420Y010314D01*
X039380Y010316D01*
X039339Y010322D01*
X039300Y010332D01*
X039262Y010345D01*
X039225Y010363D01*
X039191Y010384D01*
X039158Y010408D01*
X039128Y010435D01*
X039101Y010465D01*
X039077Y010498D01*
X039056Y010532D01*
X039038Y010569D01*
X039025Y010607D01*
X039015Y010646D01*
X039009Y010687D01*
X039007Y010727D01*
X036350Y010735D02*
X036352Y010775D01*
X036358Y010816D01*
X036368Y010855D01*
X036381Y010893D01*
X036399Y010930D01*
X036420Y010964D01*
X036444Y010997D01*
X036471Y011027D01*
X036501Y011054D01*
X036534Y011078D01*
X036568Y011099D01*
X036605Y011117D01*
X036643Y011130D01*
X036682Y011140D01*
X036723Y011146D01*
X036763Y011148D01*
X036803Y011146D01*
X036844Y011140D01*
X036883Y011130D01*
X036921Y011117D01*
X036958Y011099D01*
X036992Y011078D01*
X037025Y011054D01*
X037055Y011027D01*
X037082Y010997D01*
X037106Y010964D01*
X037127Y010930D01*
X037145Y010893D01*
X037158Y010855D01*
X037168Y010816D01*
X037174Y010775D01*
X037176Y010735D01*
X037174Y010695D01*
X037168Y010654D01*
X037158Y010615D01*
X037145Y010577D01*
X037127Y010540D01*
X037106Y010506D01*
X037082Y010473D01*
X037055Y010443D01*
X037025Y010416D01*
X036992Y010392D01*
X036958Y010371D01*
X036921Y010353D01*
X036883Y010340D01*
X036844Y010330D01*
X036803Y010324D01*
X036763Y010322D01*
X036723Y010324D01*
X036682Y010330D01*
X036643Y010340D01*
X036605Y010353D01*
X036568Y010371D01*
X036534Y010392D01*
X036501Y010416D01*
X036471Y010443D01*
X036444Y010473D01*
X036420Y010506D01*
X036399Y010540D01*
X036381Y010577D01*
X036368Y010615D01*
X036358Y010654D01*
X036352Y010695D01*
X036350Y010735D01*
X047033Y002170D02*
X047035Y002210D01*
X047041Y002251D01*
X047051Y002290D01*
X047064Y002328D01*
X047082Y002365D01*
X047103Y002399D01*
X047127Y002432D01*
X047154Y002462D01*
X047184Y002489D01*
X047217Y002513D01*
X047251Y002534D01*
X047288Y002552D01*
X047326Y002565D01*
X047365Y002575D01*
X047406Y002581D01*
X047446Y002583D01*
X047486Y002581D01*
X047527Y002575D01*
X047566Y002565D01*
X047604Y002552D01*
X047641Y002534D01*
X047675Y002513D01*
X047708Y002489D01*
X047738Y002462D01*
X047765Y002432D01*
X047789Y002399D01*
X047810Y002365D01*
X047828Y002328D01*
X047841Y002290D01*
X047851Y002251D01*
X047857Y002210D01*
X047859Y002170D01*
X047857Y002130D01*
X047851Y002089D01*
X047841Y002050D01*
X047828Y002012D01*
X047810Y001975D01*
X047789Y001941D01*
X047765Y001908D01*
X047738Y001878D01*
X047708Y001851D01*
X047675Y001827D01*
X047641Y001806D01*
X047604Y001788D01*
X047566Y001775D01*
X047527Y001765D01*
X047486Y001759D01*
X047446Y001757D01*
X047406Y001759D01*
X047365Y001765D01*
X047326Y001775D01*
X047288Y001788D01*
X047251Y001806D01*
X047217Y001827D01*
X047184Y001851D01*
X047154Y001878D01*
X047127Y001908D01*
X047103Y001941D01*
X047082Y001975D01*
X047064Y002012D01*
X047051Y002050D01*
X047041Y002089D01*
X047035Y002130D01*
X047033Y002170D01*
X047033Y037603D02*
X047035Y037643D01*
X047041Y037684D01*
X047051Y037723D01*
X047064Y037761D01*
X047082Y037798D01*
X047103Y037832D01*
X047127Y037865D01*
X047154Y037895D01*
X047184Y037922D01*
X047217Y037946D01*
X047251Y037967D01*
X047288Y037985D01*
X047326Y037998D01*
X047365Y038008D01*
X047406Y038014D01*
X047446Y038016D01*
X047486Y038014D01*
X047527Y038008D01*
X047566Y037998D01*
X047604Y037985D01*
X047641Y037967D01*
X047675Y037946D01*
X047708Y037922D01*
X047738Y037895D01*
X047765Y037865D01*
X047789Y037832D01*
X047810Y037798D01*
X047828Y037761D01*
X047841Y037723D01*
X047851Y037684D01*
X047857Y037643D01*
X047859Y037603D01*
X047857Y037563D01*
X047851Y037522D01*
X047841Y037483D01*
X047828Y037445D01*
X047810Y037408D01*
X047789Y037374D01*
X047765Y037341D01*
X047738Y037311D01*
X047708Y037284D01*
X047675Y037260D01*
X047641Y037239D01*
X047604Y037221D01*
X047566Y037208D01*
X047527Y037198D01*
X047486Y037192D01*
X047446Y037190D01*
X047406Y037192D01*
X047365Y037198D01*
X047326Y037208D01*
X047288Y037221D01*
X047251Y037239D01*
X047217Y037260D01*
X047184Y037284D01*
X047154Y037311D01*
X047127Y037341D01*
X047103Y037374D01*
X047082Y037408D01*
X047064Y037445D01*
X047051Y037483D01*
X047041Y037522D01*
X047035Y037563D01*
X047033Y037603D01*
X037111Y037631D02*
X037113Y037679D01*
X037119Y037727D01*
X037129Y037774D01*
X037142Y037820D01*
X037160Y037865D01*
X037180Y037909D01*
X037205Y037951D01*
X037233Y037990D01*
X037263Y038027D01*
X037297Y038061D01*
X037334Y038093D01*
X037372Y038122D01*
X037413Y038147D01*
X037456Y038169D01*
X037501Y038187D01*
X037547Y038201D01*
X037594Y038212D01*
X037642Y038219D01*
X037690Y038222D01*
X037738Y038221D01*
X037786Y038216D01*
X037834Y038207D01*
X037880Y038195D01*
X037925Y038178D01*
X037969Y038158D01*
X038011Y038135D01*
X038051Y038108D01*
X038089Y038078D01*
X038124Y038045D01*
X038156Y038009D01*
X038186Y037971D01*
X038212Y037930D01*
X038234Y037887D01*
X038254Y037843D01*
X038269Y037798D01*
X038281Y037751D01*
X038289Y037703D01*
X038293Y037655D01*
X038293Y037607D01*
X038289Y037559D01*
X038281Y037511D01*
X038269Y037464D01*
X038254Y037419D01*
X038234Y037375D01*
X038212Y037332D01*
X038186Y037291D01*
X038156Y037253D01*
X038124Y037217D01*
X038089Y037184D01*
X038051Y037154D01*
X038011Y037127D01*
X037969Y037104D01*
X037925Y037084D01*
X037880Y037067D01*
X037834Y037055D01*
X037786Y037046D01*
X037738Y037041D01*
X037690Y037040D01*
X037642Y037043D01*
X037594Y037050D01*
X037547Y037061D01*
X037501Y037075D01*
X037456Y037093D01*
X037413Y037115D01*
X037372Y037140D01*
X037334Y037169D01*
X037297Y037201D01*
X037263Y037235D01*
X037233Y037272D01*
X037205Y037311D01*
X037180Y037353D01*
X037160Y037397D01*
X037142Y037442D01*
X037129Y037488D01*
X037119Y037535D01*
X037113Y037583D01*
X037111Y037631D01*
X029237Y037631D02*
X029239Y037679D01*
X029245Y037727D01*
X029255Y037774D01*
X029268Y037820D01*
X029286Y037865D01*
X029306Y037909D01*
X029331Y037951D01*
X029359Y037990D01*
X029389Y038027D01*
X029423Y038061D01*
X029460Y038093D01*
X029498Y038122D01*
X029539Y038147D01*
X029582Y038169D01*
X029627Y038187D01*
X029673Y038201D01*
X029720Y038212D01*
X029768Y038219D01*
X029816Y038222D01*
X029864Y038221D01*
X029912Y038216D01*
X029960Y038207D01*
X030006Y038195D01*
X030051Y038178D01*
X030095Y038158D01*
X030137Y038135D01*
X030177Y038108D01*
X030215Y038078D01*
X030250Y038045D01*
X030282Y038009D01*
X030312Y037971D01*
X030338Y037930D01*
X030360Y037887D01*
X030380Y037843D01*
X030395Y037798D01*
X030407Y037751D01*
X030415Y037703D01*
X030419Y037655D01*
X030419Y037607D01*
X030415Y037559D01*
X030407Y037511D01*
X030395Y037464D01*
X030380Y037419D01*
X030360Y037375D01*
X030338Y037332D01*
X030312Y037291D01*
X030282Y037253D01*
X030250Y037217D01*
X030215Y037184D01*
X030177Y037154D01*
X030137Y037127D01*
X030095Y037104D01*
X030051Y037084D01*
X030006Y037067D01*
X029960Y037055D01*
X029912Y037046D01*
X029864Y037041D01*
X029816Y037040D01*
X029768Y037043D01*
X029720Y037050D01*
X029673Y037061D01*
X029627Y037075D01*
X029582Y037093D01*
X029539Y037115D01*
X029498Y037140D01*
X029460Y037169D01*
X029423Y037201D01*
X029389Y037235D01*
X029359Y037272D01*
X029331Y037311D01*
X029306Y037353D01*
X029286Y037397D01*
X029268Y037442D01*
X029255Y037488D01*
X029245Y037535D01*
X029239Y037583D01*
X029237Y037631D01*
X021559Y037631D02*
X021561Y037679D01*
X021567Y037727D01*
X021577Y037774D01*
X021590Y037820D01*
X021608Y037865D01*
X021628Y037909D01*
X021653Y037951D01*
X021681Y037990D01*
X021711Y038027D01*
X021745Y038061D01*
X021782Y038093D01*
X021820Y038122D01*
X021861Y038147D01*
X021904Y038169D01*
X021949Y038187D01*
X021995Y038201D01*
X022042Y038212D01*
X022090Y038219D01*
X022138Y038222D01*
X022186Y038221D01*
X022234Y038216D01*
X022282Y038207D01*
X022328Y038195D01*
X022373Y038178D01*
X022417Y038158D01*
X022459Y038135D01*
X022499Y038108D01*
X022537Y038078D01*
X022572Y038045D01*
X022604Y038009D01*
X022634Y037971D01*
X022660Y037930D01*
X022682Y037887D01*
X022702Y037843D01*
X022717Y037798D01*
X022729Y037751D01*
X022737Y037703D01*
X022741Y037655D01*
X022741Y037607D01*
X022737Y037559D01*
X022729Y037511D01*
X022717Y037464D01*
X022702Y037419D01*
X022682Y037375D01*
X022660Y037332D01*
X022634Y037291D01*
X022604Y037253D01*
X022572Y037217D01*
X022537Y037184D01*
X022499Y037154D01*
X022459Y037127D01*
X022417Y037104D01*
X022373Y037084D01*
X022328Y037067D01*
X022282Y037055D01*
X022234Y037046D01*
X022186Y037041D01*
X022138Y037040D01*
X022090Y037043D01*
X022042Y037050D01*
X021995Y037061D01*
X021949Y037075D01*
X021904Y037093D01*
X021861Y037115D01*
X021820Y037140D01*
X021782Y037169D01*
X021745Y037201D01*
X021711Y037235D01*
X021681Y037272D01*
X021653Y037311D01*
X021628Y037353D01*
X021608Y037397D01*
X021590Y037442D01*
X021577Y037488D01*
X021567Y037535D01*
X021561Y037583D01*
X021559Y037631D01*
X013882Y037631D02*
X013884Y037679D01*
X013890Y037727D01*
X013900Y037774D01*
X013913Y037820D01*
X013931Y037865D01*
X013951Y037909D01*
X013976Y037951D01*
X014004Y037990D01*
X014034Y038027D01*
X014068Y038061D01*
X014105Y038093D01*
X014143Y038122D01*
X014184Y038147D01*
X014227Y038169D01*
X014272Y038187D01*
X014318Y038201D01*
X014365Y038212D01*
X014413Y038219D01*
X014461Y038222D01*
X014509Y038221D01*
X014557Y038216D01*
X014605Y038207D01*
X014651Y038195D01*
X014696Y038178D01*
X014740Y038158D01*
X014782Y038135D01*
X014822Y038108D01*
X014860Y038078D01*
X014895Y038045D01*
X014927Y038009D01*
X014957Y037971D01*
X014983Y037930D01*
X015005Y037887D01*
X015025Y037843D01*
X015040Y037798D01*
X015052Y037751D01*
X015060Y037703D01*
X015064Y037655D01*
X015064Y037607D01*
X015060Y037559D01*
X015052Y037511D01*
X015040Y037464D01*
X015025Y037419D01*
X015005Y037375D01*
X014983Y037332D01*
X014957Y037291D01*
X014927Y037253D01*
X014895Y037217D01*
X014860Y037184D01*
X014822Y037154D01*
X014782Y037127D01*
X014740Y037104D01*
X014696Y037084D01*
X014651Y037067D01*
X014605Y037055D01*
X014557Y037046D01*
X014509Y037041D01*
X014461Y037040D01*
X014413Y037043D01*
X014365Y037050D01*
X014318Y037061D01*
X014272Y037075D01*
X014227Y037093D01*
X014184Y037115D01*
X014143Y037140D01*
X014105Y037169D01*
X014068Y037201D01*
X014034Y037235D01*
X014004Y037272D01*
X013976Y037311D01*
X013951Y037353D01*
X013931Y037397D01*
X013913Y037442D01*
X013900Y037488D01*
X013890Y037535D01*
X013884Y037583D01*
X013882Y037631D01*
X006008Y037631D02*
X006010Y037679D01*
X006016Y037727D01*
X006026Y037774D01*
X006039Y037820D01*
X006057Y037865D01*
X006077Y037909D01*
X006102Y037951D01*
X006130Y037990D01*
X006160Y038027D01*
X006194Y038061D01*
X006231Y038093D01*
X006269Y038122D01*
X006310Y038147D01*
X006353Y038169D01*
X006398Y038187D01*
X006444Y038201D01*
X006491Y038212D01*
X006539Y038219D01*
X006587Y038222D01*
X006635Y038221D01*
X006683Y038216D01*
X006731Y038207D01*
X006777Y038195D01*
X006822Y038178D01*
X006866Y038158D01*
X006908Y038135D01*
X006948Y038108D01*
X006986Y038078D01*
X007021Y038045D01*
X007053Y038009D01*
X007083Y037971D01*
X007109Y037930D01*
X007131Y037887D01*
X007151Y037843D01*
X007166Y037798D01*
X007178Y037751D01*
X007186Y037703D01*
X007190Y037655D01*
X007190Y037607D01*
X007186Y037559D01*
X007178Y037511D01*
X007166Y037464D01*
X007151Y037419D01*
X007131Y037375D01*
X007109Y037332D01*
X007083Y037291D01*
X007053Y037253D01*
X007021Y037217D01*
X006986Y037184D01*
X006948Y037154D01*
X006908Y037127D01*
X006866Y037104D01*
X006822Y037084D01*
X006777Y037067D01*
X006731Y037055D01*
X006683Y037046D01*
X006635Y037041D01*
X006587Y037040D01*
X006539Y037043D01*
X006491Y037050D01*
X006444Y037061D01*
X006398Y037075D01*
X006353Y037093D01*
X006310Y037115D01*
X006269Y037140D01*
X006231Y037169D01*
X006194Y037201D01*
X006160Y037235D01*
X006130Y037272D01*
X006102Y037311D01*
X006077Y037353D01*
X006057Y037397D01*
X006039Y037442D01*
X006026Y037488D01*
X006016Y037535D01*
X006010Y037583D01*
X006008Y037631D01*
X001757Y037603D02*
X001759Y037643D01*
X001765Y037684D01*
X001775Y037723D01*
X001788Y037761D01*
X001806Y037798D01*
X001827Y037832D01*
X001851Y037865D01*
X001878Y037895D01*
X001908Y037922D01*
X001941Y037946D01*
X001975Y037967D01*
X002012Y037985D01*
X002050Y037998D01*
X002089Y038008D01*
X002130Y038014D01*
X002170Y038016D01*
X002210Y038014D01*
X002251Y038008D01*
X002290Y037998D01*
X002328Y037985D01*
X002365Y037967D01*
X002399Y037946D01*
X002432Y037922D01*
X002462Y037895D01*
X002489Y037865D01*
X002513Y037832D01*
X002534Y037798D01*
X002552Y037761D01*
X002565Y037723D01*
X002575Y037684D01*
X002581Y037643D01*
X002583Y037603D01*
X002581Y037563D01*
X002575Y037522D01*
X002565Y037483D01*
X002552Y037445D01*
X002534Y037408D01*
X002513Y037374D01*
X002489Y037341D01*
X002462Y037311D01*
X002432Y037284D01*
X002399Y037260D01*
X002365Y037239D01*
X002328Y037221D01*
X002290Y037208D01*
X002251Y037198D01*
X002210Y037192D01*
X002170Y037190D01*
X002130Y037192D01*
X002089Y037198D01*
X002050Y037208D01*
X002012Y037221D01*
X001975Y037239D01*
X001941Y037260D01*
X001908Y037284D01*
X001878Y037311D01*
X001851Y037341D01*
X001827Y037374D01*
X001806Y037408D01*
X001788Y037445D01*
X001775Y037483D01*
X001765Y037522D01*
X001759Y037563D01*
X001757Y037603D01*
X085831Y037603D02*
X085833Y037651D01*
X085839Y037699D01*
X085849Y037746D01*
X085862Y037792D01*
X085880Y037837D01*
X085900Y037881D01*
X085925Y037923D01*
X085953Y037962D01*
X085983Y037999D01*
X086017Y038033D01*
X086054Y038065D01*
X086092Y038094D01*
X086133Y038119D01*
X086176Y038141D01*
X086221Y038159D01*
X086267Y038173D01*
X086314Y038184D01*
X086362Y038191D01*
X086410Y038194D01*
X086458Y038193D01*
X086506Y038188D01*
X086554Y038179D01*
X086600Y038167D01*
X086645Y038150D01*
X086689Y038130D01*
X086731Y038107D01*
X086771Y038080D01*
X086809Y038050D01*
X086844Y038017D01*
X086876Y037981D01*
X086906Y037943D01*
X086932Y037902D01*
X086954Y037859D01*
X086974Y037815D01*
X086989Y037770D01*
X087001Y037723D01*
X087009Y037675D01*
X087013Y037627D01*
X087013Y037579D01*
X087009Y037531D01*
X087001Y037483D01*
X086989Y037436D01*
X086974Y037391D01*
X086954Y037347D01*
X086932Y037304D01*
X086906Y037263D01*
X086876Y037225D01*
X086844Y037189D01*
X086809Y037156D01*
X086771Y037126D01*
X086731Y037099D01*
X086689Y037076D01*
X086645Y037056D01*
X086600Y037039D01*
X086554Y037027D01*
X086506Y037018D01*
X086458Y037013D01*
X086410Y037012D01*
X086362Y037015D01*
X086314Y037022D01*
X086267Y037033D01*
X086221Y037047D01*
X086176Y037065D01*
X086133Y037087D01*
X086092Y037112D01*
X086054Y037141D01*
X086017Y037173D01*
X085983Y037207D01*
X085953Y037244D01*
X085925Y037283D01*
X085900Y037325D01*
X085880Y037369D01*
X085862Y037414D01*
X085849Y037460D01*
X085839Y037507D01*
X085833Y037555D01*
X085831Y037603D01*
X092308Y037603D02*
X092310Y037643D01*
X092316Y037684D01*
X092326Y037723D01*
X092339Y037761D01*
X092357Y037798D01*
X092378Y037832D01*
X092402Y037865D01*
X092429Y037895D01*
X092459Y037922D01*
X092492Y037946D01*
X092526Y037967D01*
X092563Y037985D01*
X092601Y037998D01*
X092640Y038008D01*
X092681Y038014D01*
X092721Y038016D01*
X092761Y038014D01*
X092802Y038008D01*
X092841Y037998D01*
X092879Y037985D01*
X092916Y037967D01*
X092950Y037946D01*
X092983Y037922D01*
X093013Y037895D01*
X093040Y037865D01*
X093064Y037832D01*
X093085Y037798D01*
X093103Y037761D01*
X093116Y037723D01*
X093126Y037684D01*
X093132Y037643D01*
X093134Y037603D01*
X093132Y037563D01*
X093126Y037522D01*
X093116Y037483D01*
X093103Y037445D01*
X093085Y037408D01*
X093064Y037374D01*
X093040Y037341D01*
X093013Y037311D01*
X092983Y037284D01*
X092950Y037260D01*
X092916Y037239D01*
X092879Y037221D01*
X092841Y037208D01*
X092802Y037198D01*
X092761Y037192D01*
X092721Y037190D01*
X092681Y037192D01*
X092640Y037198D01*
X092601Y037208D01*
X092563Y037221D01*
X092526Y037239D01*
X092492Y037260D01*
X092459Y037284D01*
X092429Y037311D01*
X092402Y037341D01*
X092378Y037374D01*
X092357Y037408D01*
X092339Y037445D01*
X092326Y037483D01*
X092316Y037522D01*
X092310Y037563D01*
X092308Y037603D01*
M02*
