%
M48
M72
T01C0.0240
T02C0.0276
T03C0.0315
T04C0.0360
T05C0.0402
T06C0.0827
T07C0.1181
%
T01
X7170Y5162
X6894Y5989
X22249Y12170
X23430Y12524
X24808Y12170
X25989Y12879
X27997Y13233
X30359Y13233
X31068Y13233
X30674Y11934
X29729Y12170
X28706Y12170
X28351Y11225
X27367Y11816
X30674Y9808
X31658Y8824
X34572Y9532
X32170Y10595
X31855Y11934
X34375Y12564
X35477Y13233
X33706Y13784
X33312Y14454
X34335Y14454
X34493Y15517
X35556Y16225
X34099Y16698
X33706Y17013
X33391Y17406
X31776Y16343
X37406Y15162
X37879Y15398
X38233Y15753
X37761Y16461
X38233Y16698
X40556Y17524
X40950Y18469
X43706Y19769
X39532Y21501
X37957Y21501
X35753Y19769
X43548Y16225
X44020Y16461
X44414Y16816
X47957Y15556
X48902Y15753
X49375Y15595
X50398Y15753
X50635Y16225
X50871Y16698
X51776Y16146
X52721Y16146
X50162Y14887
X47367Y13745
X46540Y13194
X48902Y13194
X49375Y12091
X50162Y11737
X50398Y11265
X50713Y12170
X52013Y12170
X51461Y13194
X54020Y13194
X56973Y11894
X58666Y11501
X59020Y12209
X60359Y11501
X61068Y11501
X61304Y11028
X62957Y11619
X64139Y11855
X64926Y11265
X65162Y11973
X66501Y12209
X67524Y11973
X68627Y11619
X69060Y12209
X70871Y12209
X71619Y12209
X72288Y11934
X72249Y13233
X70871Y13233
X69690Y13233
X67131Y13233
X64769Y13233
X63548Y12839
X62209Y13233
X60359Y13942
X59650Y13233
X61580Y12209
X67918Y9847
X68312Y9532
X66855Y8784
X70477Y9139
X72288Y6619
X73076Y6422
X77249Y6698
X77603Y5989
X78194Y6343
X82839Y4139
X85320Y4139
X84139Y6225
X85044Y6619
X85005Y8824
X84139Y9139
X83351Y8824
X83706Y11934
X83981Y13194
X81619Y13194
X80950Y12170
X78194Y16146
X77249Y16383
X70359Y16304
X70005Y15950
X69060Y15556
X68430Y15950
X67643Y15753
X66501Y16619
X66265Y16146
X65950Y15753
X65162Y15674
X62957Y17367
X63312Y17721
X63036Y18154
X60989Y17013
X61343Y16658
X59887Y16501
X58942Y16501
X58233Y17524
X59532Y17721
X60005Y18194
X58587Y19532
X51776Y19808
X64572Y23745
X64572Y25871
X63509Y27918
X64217Y29099
X63469Y30280
X63469Y31461
X61343Y32643
X58351Y32643
X58351Y31461
X59060Y30280
X56304Y29099
X55595Y29099
X55595Y30280
X52761Y31461
X50871Y31461
X50871Y32643
X53469Y32643
X48745Y30280
X48745Y29099
X48706Y27918
X45202Y29099
X45202Y30280
X44493Y31461
X45202Y32643
X40477Y32643
X40477Y31461
X39729Y30280
X39257Y29099
X40438Y27918
X43942Y26737
X44178Y27918
X52131Y26304
X56225Y27131
X58351Y27918
X56973Y25792
X68036Y27918
X69454Y29099
X71383Y29178
X71383Y30359
X69454Y30280
X69375Y31422
X68863Y31383
X67997Y31461
X67997Y32643
X71068Y33824
X71383Y33036
X73509Y30280
X72446Y28233
X73509Y26698
X77485Y25477
X77839Y25831
X69454Y17603
X69808Y17249
X70320Y17249
X69217Y17131
X68981Y16658
X52367Y10910
X52485Y9650
X49729Y8942
X48233Y8824
X45398Y7682
X46894Y6501
X46146Y4139
X45477Y4178
X45123Y3391
X44650Y3154
X42013Y3784
X38233Y4887
X37879Y5595
X36343Y6422
X35595Y6619
X30123Y4139
X29178Y4887
X29178Y5595
X28942Y6186
X27721Y4178
X33666Y3115
X35713Y3036
X48312Y4099
X52131Y4139
X54178Y4099
X56383Y4887
X56737Y4532
X60359Y6304
X61304Y5910
X63666Y6816
X65202Y6501
X66580Y6658
X63312Y7643
X64493Y4178
X66816Y4139
X69887Y3784
X71934Y3430
X54769Y6422
X53981Y6580
X49060Y10910
X48154Y12170
X47091Y12170
X45831Y11816
X46186Y11461
X43233Y12170
X43981Y13194
X41225Y13194
X40477Y12170
X39020Y33942
X38076Y33942
X6894Y33981
T02
X22702Y2702
X40202Y2702
T03
X41782Y4428
X42570Y4428
X43357Y4428
X43357Y5215
X42570Y5215
X41782Y5215
X46900Y7184
X47688Y7184
X48475Y7184
X49263Y7184
X50050Y7184
X50837Y7184
X51625Y7184
X52412Y7184
X53200Y7184
X53987Y7184
X53987Y8168
X53200Y8168
X52412Y8168
X51625Y8168
X50837Y8168
X50050Y8168
X49263Y8168
X48475Y8168
X47688Y8168
X46900Y8168
X35581Y8176
X34794Y8176
X34007Y8176
X33219Y8176
X32432Y8176
X31644Y8176
X30857Y8176
X30070Y8176
X29282Y8176
X28495Y8176
X28495Y7192
X29282Y7192
X30070Y7192
X30857Y7192
X31644Y7192
X32432Y7192
X33219Y7192
X34007Y7192
X34794Y7192
X35581Y7192
X24952Y5223
X24164Y5223
X23377Y5223
X23377Y4436
X24164Y4436
X24952Y4436
X17081Y7219
X16294Y7219
X15507Y7219
X14719Y7219
X13932Y7219
X13144Y7219
X12357Y7219
X11570Y7219
X10782Y7219
X9995Y7219
X9995Y8204
X10782Y8204
X11570Y8204
X12357Y8204
X13144Y8204
X13932Y8204
X14719Y8204
X15507Y8204
X16294Y8204
X17081Y8204
X6452Y5251
X5664Y5251
X4877Y5251
X4877Y4463
X5664Y4463
X6452Y4463
X60101Y4448
X60889Y4448
X61676Y4448
X61676Y5235
X60889Y5235
X60101Y5235
X65219Y7204
X66007Y7204
X66794Y7204
X67581Y7204
X68369Y7204
X69156Y7204
X69944Y7204
X70731Y7204
X71519Y7204
X72306Y7204
X72306Y8188
X71519Y8188
X70731Y8188
X69944Y8188
X69156Y8188
X68369Y8188
X67581Y8188
X66794Y8188
X66007Y8188
X65219Y8188
X78546Y5207
X79333Y5207
X80121Y5207
X80121Y4420
X79333Y4420
X78546Y4420
X83664Y7176
X84452Y7176
X85239Y7176
X86026Y7176
X86814Y7176
X87601Y7176
X88389Y7176
X89176Y7176
X89963Y7176
X90751Y7176
X90751Y8160
X89963Y8160
X89176Y8160
X88389Y8160
X87601Y8160
X86814Y8160
X86026Y8160
X85239Y8160
X84452Y8160
X83664Y8160
T04
X77308Y26776
X75162Y26776
X75162Y27957
X77308Y27957
X77308Y29139
X75162Y29139
X75162Y30320
X77308Y30320
X77308Y31501
X75162Y31501
X75162Y32682
X77308Y32682
X72446Y32682
X72446Y31501
X72446Y30320
X72446Y29139
X66934Y29139
X66934Y30320
X66934Y31501
X66934Y32682
X62406Y32682
X62406Y31501
X62406Y30320
X62406Y29139
X62406Y27957
X62406Y26776
X66934Y26776
X66934Y27957
X57288Y27957
X57288Y26776
X54532Y26776
X54532Y27957
X54532Y29139
X54532Y30320
X54532Y31501
X54532Y32682
X57288Y32682
X57288Y31501
X57288Y30320
X57288Y29139
X49808Y29139
X49808Y30320
X49808Y31501
X49808Y32682
X46265Y32682
X46265Y31501
X46265Y30320
X46265Y29139
X46265Y27957
X46265Y26776
X49808Y26776
X49808Y27957
X41540Y27957
X41540Y26776
X41540Y29139
X41540Y30320
X41540Y31501
X41540Y32682
T05
X38883Y34749
X37702Y34749
X36520Y34749
X36520Y35930
X37702Y35930
X38883Y35930
X31009Y35930
X29828Y35930
X28646Y35930
X28646Y34749
X29828Y34749
X31009Y34749
X23331Y34749
X22150Y34749
X20969Y34749
X20969Y35930
X22150Y35930
X23331Y35930
X15654Y35930
X14473Y35930
X13292Y35930
X13292Y34749
X14473Y34749
X15654Y34749
X7780Y34749
X6599Y34749
X5418Y34749
X5418Y35930
X6599Y35930
X7780Y35930
X86422Y35902
X86422Y34721
T06
X2170Y2170
X21015Y10735
X18263Y10763
X2515Y10763
X2515Y18637
X18263Y18637
X21015Y18609
X36763Y18609
X39420Y18601
X55168Y18601
X57739Y18621
X73487Y18621
X76184Y18593
X91932Y18593
X73487Y10747
X76184Y10719
X91932Y10719
X92721Y2170
X57739Y10747
X55168Y10727
X39420Y10727
X36763Y10735
X2170Y37603
X92721Y37603
T07
X86422Y37603
X37702Y37631
X29828Y37631
X22150Y37631
X14473Y37631
X6599Y37631
M30
