%
M48
M72
T01C0.0240
T02C0.0315
T03C0.0360
T04C0.0402
T05C0.0827
T06C0.1181
T07C0.1220
T08C0.1260
%
T01
X23321Y4887
X27179Y5438
X27533Y5950
X29738Y6186
X29974Y5595
X29974Y4887
X28517Y4178
X30998Y3115
X34423Y4178
X36470Y4099
X41037Y4650
X41510Y4887
X42140Y5595
X43360Y5792
X43872Y5792
X45329Y6146
X47297Y6461
X48163Y6225
X48754Y5910
X49029Y6619
X48675Y4887
X46982Y4139
X46273Y4139
X45683Y3351
X46982Y3115
X49384Y3115
X52927Y4139
X54974Y4060
X56352Y4887
X56706Y4532
X61155Y6304
X63754Y5950
X64108Y5123
X65998Y6501
X67376Y6658
X67612Y4139
X70683Y3784
X72730Y3430
X73439Y5398
X73872Y6422
X73084Y6619
X69659Y8824
X65604Y9257
X61864Y8391
X56352Y9060
X54423Y8824
X54344Y9532
X53399Y9178
X52809Y8863
X51431Y9847
X50407Y9335
X50171Y10123
X51391Y10792
X51155Y11580
X50958Y12052
X51510Y12170
X48951Y12170
X47888Y12170
X47297Y11343
X47809Y10792
X46628Y11816
X44029Y12170
X44777Y13194
X47336Y13194
X49699Y13194
X49817Y14532
X50958Y14375
X51155Y15753
X51667Y15753
X51628Y16265
X49895Y15674
X51864Y16737
X53281Y17761
X53636Y18115
X53281Y18706
X53636Y19060
X56391Y20280
X55683Y20438
X57179Y19217
X61982Y20950
X64699Y20950
X72140Y17249
X70958Y16934
X71195Y16383
X71903Y16580
X69147Y15044
X68636Y15083
X66746Y15713
X67021Y16146
X63517Y15595
X61746Y15595
X60801Y15674
X60565Y16146
X59974Y15989
X61155Y13942
X61155Y13430
X60447Y13233
X59344Y13233
X58990Y12564
X59817Y12209
X61864Y11501
X62376Y12209
X63754Y12879
X63754Y13469
X64108Y13824
X63006Y13233
X65565Y13233
X67927Y13233
X67297Y12209
X68596Y12209
X69856Y12209
X71549Y11855
X72061Y11973
X72848Y10989
X73045Y13233
X70486Y13233
X65958Y11973
X65447Y11973
X64620Y11855
X64344Y11146
X65014Y11146
X54817Y13194
X53754Y11934
X52258Y13194
X45092Y15635
X43596Y16186
X42966Y16501
X42612Y16855
X42258Y17209
X41903Y17564
X42297Y18469
X42888Y15989
X37021Y15950
X34462Y16383
X33832Y17052
X32927Y16658
X29423Y14572
X29777Y14217
X28793Y13233
X31155Y13233
X30525Y12170
X29502Y12170
X28163Y11816
X29147Y11461
X27533Y10792
X25604Y12170
X24226Y12524
X23045Y12170
X23281Y11501
X26234Y13233
X32691Y11973
X33006Y11580
X33163Y12170
X35289Y11973
X36273Y13233
X37021Y13981
X34462Y13981
X33714Y13233
X31903Y10123
X31706Y8902
X30880Y6619
X35171Y6501
X35604Y6619
X36391Y6619
X37140Y6422
X42140Y8863
X42494Y9217
X47769Y8863
X41273Y12170
X42021Y13194
X54777Y6580
X55565Y6422
X55998Y6698
X78793Y5359
X79226Y6146
X78990Y6619
X83636Y4139
X86116Y4139
X84935Y6225
X85958Y6619
X84069Y11658
X84108Y12170
X85171Y11934
X84777Y13194
X82415Y13194
X81746Y12170
X80171Y13194
X79226Y13548
X80171Y16383
X79226Y16580
X78754Y16816
X78281Y17052
X85289Y15713
X85683Y16028
X67848Y24926
X67494Y25280
X67297Y25753
X66155Y25398
X64502Y26028
X63714Y25831
X61510Y24926
X60447Y25241
X60289Y24769
X61155Y25477
X59147Y26028
X59856Y26776
X59147Y27957
X59856Y29139
X57021Y30320
X56391Y30320
X54266Y29139
X51667Y30320
X51667Y31501
X53557Y31501
X54266Y32682
X51667Y32682
X45998Y31501
X43754Y30320
X43399Y31501
X43399Y32682
X41825Y33627
X41313Y33627
X41313Y34335
X30171Y33627
X29029Y34020
X28321Y33627
X30053Y28154
X29423Y27524
X28321Y26186
X28675Y25831
X27533Y24414
X26785Y24493
X41273Y27957
X41352Y28469
X44974Y28587
X45998Y27957
X44974Y27328
X45329Y26776
X49541Y27957
X49541Y29139
X45998Y29139
X53281Y26698
X56746Y25359
X57100Y25005
X64266Y26776
X64777Y26776
X66667Y26776
X68793Y29020
X69147Y28666
X69659Y29414
X70998Y29769
X72140Y29414
X72218Y30320
X71549Y30595
X74305Y30320
X70368Y32957
X69935Y32682
X69580Y33981
X68793Y31501
X68793Y30320
X64817Y29139
X64266Y30320
X62140Y31501
X62140Y32682
X59147Y31501
X57021Y32682
X73951Y26737
X74305Y27091
X78596Y25792
X78636Y25280
X52100Y20438
X49699Y20438
T02
X27573Y25202
X26785Y25202
X25998Y25202
X25998Y25989
X26785Y25989
X27573Y25989
X29291Y8176
X30079Y8176
X30866Y8176
X31653Y8176
X32441Y8176
X33228Y8176
X34016Y8176
X34803Y8176
X35590Y8176
X36378Y8176
X36378Y7192
X35590Y7192
X34803Y7192
X34016Y7192
X33228Y7192
X32441Y7192
X31653Y7192
X30866Y7192
X30079Y7192
X29291Y7192
X25748Y5223
X24960Y5223
X24173Y5223
X24173Y4436
X24960Y4436
X25748Y4436
X17878Y7219
X17090Y7219
X16303Y7219
X15516Y7219
X14728Y7219
X13941Y7219
X13153Y7219
X12366Y7219
X11579Y7219
X10791Y7219
X10791Y8204
X11579Y8204
X12366Y8204
X13153Y8204
X13941Y8204
X14728Y8204
X15516Y8204
X16303Y8204
X17090Y8204
X17878Y8204
X7248Y5251
X6460Y5251
X5673Y5251
X5673Y4463
X6460Y4463
X7248Y4463
X42579Y4428
X43366Y4428
X44153Y4428
X44153Y5215
X43366Y5215
X42579Y5215
X47697Y7184
X48484Y7184
X49271Y7184
X50059Y7184
X50846Y7184
X51634Y7184
X52421Y7184
X53208Y7184
X53996Y7184
X54783Y7184
X54783Y8168
X53996Y8168
X53208Y8168
X52421Y8168
X51634Y8168
X50846Y8168
X50059Y8168
X49271Y8168
X48484Y8168
X47697Y8168
X60897Y5235
X61685Y5235
X62472Y5235
X62472Y4448
X61685Y4448
X60897Y4448
X66016Y7204
X66803Y7204
X67590Y7204
X68378Y7204
X69165Y7204
X69953Y7204
X70740Y7204
X71527Y7204
X72315Y7204
X73102Y7204
X73102Y8188
X72315Y8188
X71527Y8188
X70740Y8188
X69953Y8188
X69165Y8188
X68378Y8188
X67590Y8188
X66803Y8188
X66016Y8188
X79342Y5207
X80130Y5207
X80917Y5207
X80917Y4420
X80130Y4420
X79342Y4420
X84460Y7176
X85248Y7176
X86035Y7176
X86823Y7176
X87610Y7176
X88397Y7176
X89185Y7176
X89972Y7176
X90760Y7176
X91547Y7176
X91547Y8160
X90760Y8160
X89972Y8160
X89185Y8160
X88397Y8160
X87610Y8160
X86823Y8160
X86035Y8160
X85248Y8160
X84460Y8160
T03
X78104Y26776
X75958Y26776
X75958Y27957
X78104Y27957
X78104Y29139
X75958Y29139
X75958Y30320
X78104Y30320
X78104Y31501
X75958Y31501
X75958Y32682
X78104Y32682
X73242Y32682
X73242Y31501
X73242Y30320
X73242Y29139
X67730Y29139
X67730Y30320
X67730Y31501
X67730Y32682
X63203Y32682
X63203Y31501
X63203Y30320
X63203Y29139
X63203Y27957
X63203Y26776
X67730Y26776
X67730Y27957
X58084Y27957
X58084Y26776
X55329Y26776
X55329Y27957
X55329Y29139
X55329Y30320
X55329Y31501
X55329Y32682
X58084Y32682
X58084Y31501
X58084Y30320
X58084Y29139
X50604Y29139
X50604Y30320
X50604Y31501
X50604Y32682
X47061Y32682
X47061Y31501
X47061Y30320
X47061Y29139
X47061Y27957
X47061Y26776
X50604Y26776
X50604Y27957
X42336Y27957
X42336Y26776
X42336Y29139
X42336Y30320
X42336Y31501
X42336Y32682
T04
X39679Y34749
X38498Y34749
X37317Y34749
X37317Y35930
X38498Y35930
X39679Y35930
X31805Y35930
X30624Y35930
X29443Y35930
X29443Y34749
X30624Y34749
X31805Y34749
X24128Y34749
X22947Y34749
X21766Y34749
X21766Y35930
X22947Y35930
X24128Y35930
X16451Y35930
X15269Y35930
X14088Y35930
X14088Y34749
X15269Y34749
X16451Y34749
X8577Y34749
X7395Y34749
X6214Y34749
X6214Y35930
X7395Y35930
X8577Y35930
X87218Y35902
X87218Y34721
T05
X92728Y18593
X76980Y18593
X74283Y18621
X58535Y18621
X55964Y18601
X40216Y18601
X37559Y18609
X21811Y18609
X19059Y18637
X3311Y18637
X3311Y10763
X19059Y10763
X21811Y10735
X37559Y10735
X40216Y10727
X55964Y10727
X58535Y10747
X74283Y10747
X76980Y10719
X92728Y10719
T06
X87218Y37603
X38498Y37631
X30624Y37631
X22947Y37631
X15269Y37631
X7395Y37631
T07
X2966Y2957
X47848Y20674
X92730Y36816
X92730Y2957
X2966Y36816
T08
X54147Y37603
X62021Y37603
M30
