G75*
G70*
%OFA0B0*%
%FSLAX24Y24*%
%IPPOS*%
%LPD*%
%AMOC8*
5,1,8,0,0,1.08239X$1,22.5*
%
%ADD10C,0.0907*%
%ADD11R,0.0595X0.0595*%
%ADD12C,0.0595*%
%ADD13R,0.0474X0.0513*%
%ADD14R,0.0513X0.0474*%
%ADD15R,0.0682X0.0682*%
%ADD16C,0.0682*%
%ADD17C,0.1261*%
%ADD18OC8,0.1080*%
%ADD19R,0.0516X0.0516*%
%ADD20C,0.0480*%
D10*
X002170Y002170D03*
X021015Y010735D03*
X018263Y010763D03*
X002515Y010763D03*
X002515Y018637D03*
X018263Y018637D03*
X021015Y018609D03*
X036763Y018609D03*
X039420Y018601D03*
X055168Y018601D03*
X057739Y018621D03*
X073487Y018621D03*
X076184Y018593D03*
X091932Y018593D03*
X073487Y010747D03*
X076184Y010719D03*
X091932Y010719D03*
X092721Y002170D03*
X057739Y010747D03*
X055168Y010727D03*
X039420Y010727D03*
X036763Y010735D03*
X047446Y002170D03*
X047446Y037603D03*
X092721Y037603D03*
X002170Y037603D03*
D11*
X017081Y008204D03*
X017081Y007219D03*
X024952Y005223D03*
X035581Y007192D03*
X035581Y008176D03*
X043357Y005215D03*
X053987Y007184D03*
X053987Y008168D03*
X061676Y005235D03*
X072306Y007204D03*
X072306Y008188D03*
X080121Y005207D03*
X090751Y007176D03*
X090751Y008160D03*
X006452Y005251D03*
D12*
X005664Y005251D03*
X004877Y005251D03*
X004877Y004463D03*
X005664Y004463D03*
X006452Y004463D03*
X009995Y007219D03*
X010782Y007219D03*
X011570Y007219D03*
X012357Y007219D03*
X013144Y007219D03*
X013932Y007219D03*
X014719Y007219D03*
X015507Y007219D03*
X016294Y007219D03*
X016294Y008204D03*
X015507Y008204D03*
X014719Y008204D03*
X013932Y008204D03*
X013144Y008204D03*
X012357Y008204D03*
X011570Y008204D03*
X010782Y008204D03*
X009995Y008204D03*
X023377Y005223D03*
X024164Y005223D03*
X024164Y004436D03*
X023377Y004436D03*
X024952Y004436D03*
X028495Y007192D03*
X029282Y007192D03*
X030070Y007192D03*
X030857Y007192D03*
X031644Y007192D03*
X032432Y007192D03*
X033219Y007192D03*
X034007Y007192D03*
X034794Y007192D03*
X034794Y008176D03*
X034007Y008176D03*
X033219Y008176D03*
X032432Y008176D03*
X031644Y008176D03*
X030857Y008176D03*
X030070Y008176D03*
X029282Y008176D03*
X028495Y008176D03*
X041782Y005215D03*
X042570Y005215D03*
X042570Y004428D03*
X043357Y004428D03*
X041782Y004428D03*
X046900Y007184D03*
X047688Y007184D03*
X048475Y007184D03*
X049263Y007184D03*
X050050Y007184D03*
X050837Y007184D03*
X051625Y007184D03*
X052412Y007184D03*
X053200Y007184D03*
X053200Y008168D03*
X052412Y008168D03*
X051625Y008168D03*
X050837Y008168D03*
X050050Y008168D03*
X049263Y008168D03*
X048475Y008168D03*
X047688Y008168D03*
X046900Y008168D03*
X060101Y005235D03*
X060889Y005235D03*
X060889Y004448D03*
X061676Y004448D03*
X060101Y004448D03*
X065219Y007204D03*
X066007Y007204D03*
X066794Y007204D03*
X067581Y007204D03*
X068369Y007204D03*
X069156Y007204D03*
X069944Y007204D03*
X070731Y007204D03*
X071519Y007204D03*
X071519Y008188D03*
X070731Y008188D03*
X069944Y008188D03*
X069156Y008188D03*
X068369Y008188D03*
X067581Y008188D03*
X066794Y008188D03*
X066007Y008188D03*
X065219Y008188D03*
X078546Y005207D03*
X079333Y005207D03*
X079333Y004420D03*
X078546Y004420D03*
X080121Y004420D03*
X083664Y007176D03*
X084452Y007176D03*
X085239Y007176D03*
X086026Y007176D03*
X086814Y007176D03*
X087601Y007176D03*
X088389Y007176D03*
X089176Y007176D03*
X089963Y007176D03*
X089963Y008160D03*
X089176Y008160D03*
X088389Y008160D03*
X087601Y008160D03*
X086814Y008160D03*
X086026Y008160D03*
X085239Y008160D03*
X084452Y008160D03*
X083664Y008160D03*
D13*
X083605Y004814D03*
X082936Y004814D03*
X085377Y004794D03*
X086046Y004794D03*
X086046Y003613D03*
X085377Y003613D03*
X083605Y003633D03*
X082936Y003633D03*
X073113Y003581D03*
X072444Y003581D03*
X072444Y004763D03*
X073113Y004763D03*
X071066Y004841D03*
X070396Y004841D03*
X070396Y003660D03*
X071066Y003660D03*
X067601Y003641D03*
X066932Y003641D03*
X065160Y003660D03*
X064491Y003660D03*
X064491Y004841D03*
X065160Y004841D03*
X066932Y004822D03*
X067601Y004822D03*
X054794Y004743D03*
X054125Y004743D03*
X052747Y004822D03*
X052078Y004822D03*
X052078Y003641D03*
X052747Y003641D03*
X054125Y003562D03*
X054794Y003562D03*
X049282Y003621D03*
X048613Y003621D03*
X046841Y003641D03*
X046172Y003641D03*
X046172Y004822D03*
X046841Y004822D03*
X048613Y004802D03*
X049282Y004802D03*
X036389Y004751D03*
X035719Y004751D03*
X034341Y004830D03*
X033672Y004830D03*
X033672Y003648D03*
X034341Y003648D03*
X035719Y003570D03*
X036389Y003570D03*
X030877Y003629D03*
X030207Y003629D03*
X028436Y003648D03*
X027767Y003648D03*
X027767Y004830D03*
X028436Y004830D03*
X030207Y004810D03*
X030877Y004810D03*
X030404Y012704D03*
X029735Y012704D03*
X028042Y012704D03*
X027373Y012704D03*
X025483Y012704D03*
X024814Y012704D03*
X022924Y012704D03*
X022255Y012704D03*
X022255Y013885D03*
X022924Y013885D03*
X024814Y013885D03*
X025483Y013885D03*
X027373Y013885D03*
X028042Y013885D03*
X029735Y013885D03*
X030404Y013885D03*
X032294Y013885D03*
X032963Y013885D03*
X034853Y013885D03*
X035522Y013885D03*
X035522Y012704D03*
X034853Y012704D03*
X032963Y012704D03*
X032294Y012704D03*
X040463Y012696D03*
X041133Y012696D03*
X043219Y012696D03*
X043889Y012696D03*
X045778Y012696D03*
X046448Y012696D03*
X048141Y012696D03*
X048810Y012696D03*
X050700Y012696D03*
X051369Y012696D03*
X053259Y012696D03*
X053928Y012696D03*
X053928Y013877D03*
X053259Y013877D03*
X051369Y013877D03*
X050700Y013877D03*
X048810Y013877D03*
X048141Y013877D03*
X046448Y013877D03*
X045778Y013877D03*
X043889Y013877D03*
X043219Y013877D03*
X041133Y013877D03*
X040463Y013877D03*
X058979Y013896D03*
X059648Y013896D03*
X061538Y013896D03*
X062207Y013896D03*
X064097Y013896D03*
X064767Y013896D03*
X066459Y013896D03*
X067129Y013896D03*
X069019Y013896D03*
X069688Y013896D03*
X071578Y013896D03*
X072247Y013896D03*
X072247Y012715D03*
X071578Y012715D03*
X069688Y012715D03*
X069019Y012715D03*
X067129Y012715D03*
X066459Y012715D03*
X064767Y012715D03*
X064097Y012715D03*
X062207Y012715D03*
X061538Y012715D03*
X059648Y012715D03*
X058979Y012715D03*
X080967Y012688D03*
X081637Y012688D03*
X083330Y012688D03*
X083999Y012688D03*
X083999Y013869D03*
X083330Y013869D03*
X081637Y013869D03*
X080967Y013869D03*
D14*
X080967Y015050D03*
X081637Y015050D03*
X083330Y015050D03*
X083999Y015050D03*
X072247Y015078D03*
X071578Y015078D03*
X069688Y015078D03*
X069019Y015078D03*
X067129Y015078D03*
X066459Y015078D03*
X064767Y015078D03*
X064097Y015078D03*
X062207Y015078D03*
X061538Y015078D03*
X059648Y015078D03*
X058979Y015078D03*
X053928Y015058D03*
X053259Y015058D03*
X051369Y015058D03*
X050700Y015058D03*
X048810Y015058D03*
X048141Y015058D03*
X046448Y015058D03*
X045778Y015058D03*
X043889Y015058D03*
X043219Y015058D03*
X041133Y015058D03*
X040463Y015058D03*
X035522Y015066D03*
X034853Y015066D03*
X032963Y015066D03*
X032294Y015066D03*
X030404Y015066D03*
X029735Y015066D03*
X028042Y015066D03*
X027373Y015066D03*
X025483Y015066D03*
X024814Y015066D03*
X022924Y015066D03*
X022255Y015066D03*
X027767Y006011D03*
X028436Y006011D03*
X030207Y005991D03*
X030877Y005991D03*
X033672Y006011D03*
X034341Y006011D03*
X035719Y005932D03*
X036389Y005932D03*
X046172Y006003D03*
X046841Y006003D03*
X048613Y005983D03*
X049282Y005983D03*
X052078Y006003D03*
X052747Y006003D03*
X054125Y005924D03*
X054794Y005924D03*
X064491Y006022D03*
X065160Y006022D03*
X066932Y006003D03*
X067601Y006003D03*
X070396Y006022D03*
X071066Y006022D03*
X072444Y005944D03*
X073113Y005944D03*
X082936Y005995D03*
X083605Y005995D03*
X085377Y005975D03*
X086046Y005975D03*
D15*
X036520Y035930D03*
X028646Y035930D03*
X020969Y035930D03*
X013292Y035930D03*
X005418Y035930D03*
D16*
X006599Y035930D03*
X007780Y035930D03*
X007780Y034749D03*
X006599Y034749D03*
X005418Y034749D03*
X013292Y034749D03*
X014473Y034749D03*
X015654Y034749D03*
X015654Y035930D03*
X014473Y035930D03*
X020969Y034749D03*
X022150Y034749D03*
X023331Y034749D03*
X023331Y035930D03*
X022150Y035930D03*
X028646Y034749D03*
X029828Y034749D03*
X031009Y034749D03*
X031009Y035930D03*
X029828Y035930D03*
X036520Y034749D03*
X037702Y034749D03*
X038883Y034749D03*
X038883Y035930D03*
X037702Y035930D03*
X086422Y035902D03*
X086422Y034721D03*
D17*
X086422Y037603D03*
X037702Y037631D03*
X029828Y037631D03*
X022150Y037631D03*
X014473Y037631D03*
X006599Y037631D03*
D18*
X041540Y032682D03*
X041540Y031501D03*
X041540Y030320D03*
X041540Y029139D03*
X041540Y027957D03*
X041540Y026776D03*
X046265Y026776D03*
X046265Y027957D03*
X046265Y029139D03*
X046265Y030320D03*
X046265Y031501D03*
X046265Y032682D03*
X049808Y032682D03*
X049808Y031501D03*
X049808Y030320D03*
X049808Y029139D03*
X049808Y027957D03*
X049808Y026776D03*
X054532Y026776D03*
X054532Y027957D03*
X054532Y029139D03*
X054532Y030320D03*
X054532Y031501D03*
X054532Y032682D03*
X057288Y032682D03*
X057288Y031501D03*
X057288Y030320D03*
X057288Y029139D03*
X057288Y027957D03*
X057288Y026776D03*
X062406Y026776D03*
X062406Y027957D03*
X062406Y029139D03*
X062406Y030320D03*
X062406Y031501D03*
X062406Y032682D03*
X066934Y032682D03*
X066934Y031501D03*
X066934Y030320D03*
X066934Y029139D03*
X066934Y027957D03*
X066934Y026776D03*
X072446Y029139D03*
X072446Y030320D03*
X072446Y031501D03*
X072446Y032682D03*
X075162Y032682D03*
X077308Y032682D03*
X077308Y031501D03*
X075162Y031501D03*
X075162Y030320D03*
X077308Y030320D03*
X077308Y029139D03*
X075162Y029139D03*
X075162Y027957D03*
X077308Y027957D03*
X077308Y026776D03*
X075162Y026776D03*
D19*
X040202Y002702D03*
X022702Y002702D03*
D20*
X027721Y004178D03*
X029178Y004887D03*
X029178Y005595D03*
X028942Y006186D03*
X030123Y004139D03*
X033666Y003115D03*
X035713Y003036D03*
X038233Y004887D03*
X037879Y005595D03*
X036343Y006422D03*
X035595Y006619D03*
X031658Y008824D03*
X030674Y009808D03*
X032170Y010595D03*
X034572Y009532D03*
X031855Y011934D03*
X030674Y011934D03*
X029729Y012170D03*
X028706Y012170D03*
X028351Y011225D03*
X027367Y011816D03*
X024808Y012170D03*
X025989Y012879D03*
X027997Y013233D03*
X030359Y013233D03*
X031068Y013233D03*
X033312Y014454D03*
X034335Y014454D03*
X033706Y013784D03*
X035477Y013233D03*
X034375Y012564D03*
X040477Y012170D03*
X041225Y013194D03*
X043233Y012170D03*
X043981Y013194D03*
X046540Y013194D03*
X047367Y013745D03*
X048902Y013194D03*
X049375Y012091D03*
X050162Y011737D03*
X050398Y011265D03*
X050713Y012170D03*
X052013Y012170D03*
X051461Y013194D03*
X054020Y013194D03*
X056973Y011894D03*
X058666Y011501D03*
X059020Y012209D03*
X060359Y011501D03*
X061068Y011501D03*
X061304Y011028D03*
X062957Y011619D03*
X064139Y011855D03*
X064926Y011265D03*
X065162Y011973D03*
X066501Y012209D03*
X067524Y011973D03*
X068627Y011619D03*
X069060Y012209D03*
X070871Y012209D03*
X071619Y012209D03*
X072288Y011934D03*
X072249Y013233D03*
X070871Y013233D03*
X069690Y013233D03*
X067131Y013233D03*
X064769Y013233D03*
X063548Y012839D03*
X062209Y013233D03*
X060359Y013942D03*
X059650Y013233D03*
X061580Y012209D03*
X067918Y009847D03*
X068312Y009532D03*
X066855Y008784D03*
X070477Y009139D03*
X072288Y006619D03*
X073076Y006422D03*
X077249Y006698D03*
X077603Y005989D03*
X078194Y006343D03*
X082839Y004139D03*
X085320Y004139D03*
X084139Y006225D03*
X085044Y006619D03*
X085005Y008824D03*
X084139Y009139D03*
X083351Y008824D03*
X083706Y011934D03*
X083981Y013194D03*
X081619Y013194D03*
X080950Y012170D03*
X078194Y016146D03*
X077249Y016383D03*
X070359Y016304D03*
X070005Y015950D03*
X069060Y015556D03*
X068430Y015950D03*
X067643Y015753D03*
X066501Y016619D03*
X066265Y016146D03*
X065950Y015753D03*
X065162Y015674D03*
X062957Y017367D03*
X063312Y017721D03*
X063036Y018154D03*
X060989Y017013D03*
X061343Y016658D03*
X059887Y016501D03*
X058942Y016501D03*
X058233Y017524D03*
X059532Y017721D03*
X060005Y018194D03*
X058587Y019532D03*
X051776Y019808D03*
X050871Y016698D03*
X050635Y016225D03*
X050398Y015753D03*
X049375Y015595D03*
X048902Y015753D03*
X047957Y015556D03*
X050162Y014887D03*
X051776Y016146D03*
X052721Y016146D03*
X044414Y016816D03*
X044020Y016461D03*
X043548Y016225D03*
X040556Y017524D03*
X040950Y018469D03*
X043706Y019769D03*
X039532Y021501D03*
X037957Y021501D03*
X035753Y019769D03*
X033391Y017406D03*
X033706Y017013D03*
X034099Y016698D03*
X034493Y015517D03*
X035556Y016225D03*
X037406Y015162D03*
X037879Y015398D03*
X038233Y015753D03*
X037761Y016461D03*
X038233Y016698D03*
X031776Y016343D03*
X023430Y012524D03*
X022249Y012170D03*
X006894Y005989D03*
X007170Y005162D03*
X042013Y003784D03*
X044650Y003154D03*
X045123Y003391D03*
X045477Y004178D03*
X046146Y004139D03*
X048312Y004099D03*
X052131Y004139D03*
X054178Y004099D03*
X056383Y004887D03*
X056737Y004532D03*
X060359Y006304D03*
X061304Y005910D03*
X063666Y006816D03*
X065202Y006501D03*
X066580Y006658D03*
X063312Y007643D03*
X064493Y004178D03*
X066816Y004139D03*
X069887Y003784D03*
X071934Y003430D03*
X054769Y006422D03*
X053981Y006580D03*
X049729Y008942D03*
X048233Y008824D03*
X045398Y007682D03*
X046894Y006501D03*
X052485Y009650D03*
X052367Y010910D03*
X049060Y010910D03*
X048154Y012170D03*
X047091Y012170D03*
X045831Y011816D03*
X046186Y011461D03*
X068981Y016658D03*
X069217Y017131D03*
X069454Y017603D03*
X069808Y017249D03*
X070320Y017249D03*
X064572Y023745D03*
X064572Y025871D03*
X063509Y027918D03*
X064217Y029099D03*
X063469Y030280D03*
X063469Y031461D03*
X061343Y032643D03*
X058351Y032643D03*
X058351Y031461D03*
X059060Y030280D03*
X056304Y029099D03*
X055595Y029099D03*
X055595Y030280D03*
X052761Y031461D03*
X050871Y031461D03*
X050871Y032643D03*
X053469Y032643D03*
X048745Y030280D03*
X048745Y029099D03*
X048706Y027918D03*
X045202Y029099D03*
X045202Y030280D03*
X044493Y031461D03*
X045202Y032643D03*
X040477Y032643D03*
X040477Y031461D03*
X039729Y030280D03*
X039257Y029099D03*
X040438Y027918D03*
X043942Y026737D03*
X044178Y027918D03*
X052131Y026304D03*
X056225Y027131D03*
X058351Y027918D03*
X056973Y025792D03*
X068036Y027918D03*
X069454Y029099D03*
X071383Y029178D03*
X071383Y030359D03*
X069454Y030280D03*
X069375Y031422D03*
X068863Y031383D03*
X067997Y031461D03*
X067997Y032643D03*
X071068Y033824D03*
X071383Y033036D03*
X073509Y030280D03*
X072446Y028233D03*
X073509Y026698D03*
X077485Y025477D03*
X077839Y025831D03*
X039020Y033942D03*
X038076Y033942D03*
X006894Y033981D03*
M02*
